<svg width="598" height="521" viewBox="0 0 598 521" fill="none" xmlns="http://www.w3.org/2000/svg">
<g clip-path="url(#clip0_195_1055)">
<path d="M557.79 246.703C557.79 246.703 562.177 165.393 538.792 154.451C515.427 143.509 437.987 135.462 425.57 162.476C413.153 189.49 417.54 269.787 417.54 269.787L458.434 304.103L507.377 304.827L557.769 246.703H557.79Z" fill="#BA97C6" stroke="#801E68" stroke-width="2" stroke-linecap="round" stroke-linejoin="round"/>
<path d="M452.618 174.887L456.261 184.381" stroke="#801E68" stroke-width="2" stroke-linecap="round" stroke-linejoin="round"/>
<path d="M473.065 184.381L467.953 193.131" stroke="#801E68" stroke-width="2" stroke-linecap="round" stroke-linejoin="round"/>
<path d="M467.208 170.502L475.259 169.778" stroke="#801E68" stroke-width="2" stroke-linecap="round" stroke-linejoin="round"/>
<path d="M490.593 185.105V193.131" stroke="#801E68" stroke-width="2" stroke-linecap="round" stroke-linejoin="round"/>
<path d="M500.092 174.163L503.01 181.444" stroke="#801E68" stroke-width="2" stroke-linecap="round" stroke-linejoin="round"/>
<path d="M519.815 188.022L514.703 195.323" stroke="#801E68" stroke-width="2" stroke-linecap="round" stroke-linejoin="round"/>
<path d="M531.487 204.094L534.405 211.395" stroke="#801E68" stroke-width="2" stroke-linecap="round" stroke-linejoin="round"/>
<path d="M502.286 207.01L501.914 212.843" stroke="#801E68" stroke-width="2" stroke-linecap="round" stroke-linejoin="round"/>
<path d="M465.76 211.395L460.648 217.952" stroke="#801E68" stroke-width="2" stroke-linecap="round" stroke-linejoin="round"/>
<path d="M471.596 220.145L473.789 225.978" stroke="#801E68" stroke-width="2" stroke-linecap="round" stroke-linejoin="round"/>
<path d="M454.791 236.94L449.68 243.497" stroke="#801E68" stroke-width="2" stroke-linecap="round" stroke-linejoin="round"/>
<path d="M430.702 228.915H446.037" stroke="#801E68" stroke-width="2" stroke-linecap="round" stroke-linejoin="round"/>
<path d="M438.008 201.901L444.568 206.265" stroke="#801E68" stroke-width="2" stroke-linecap="round" stroke-linejoin="round"/>
<path d="M437.263 251.544L435.069 258.845" stroke="#801E68" stroke-width="2" stroke-linecap="round" stroke-linejoin="round"/>
<path d="M451.873 254.46L454.791 263.954" stroke="#801E68" stroke-width="2" stroke-linecap="round" stroke-linejoin="round"/>
<path d="M540.986 186.574L547.567 183.637" stroke="#801E68" stroke-width="2" stroke-linecap="round" stroke-linejoin="round"/>
<path d="M549.015 206.265L557.79 210.65" stroke="#801E68" stroke-width="2" stroke-linecap="round" stroke-linejoin="round"/>
<path d="M536.598 168.309L538.068 162.476" stroke="#801E68" stroke-width="2" stroke-linecap="round" stroke-linejoin="round"/>
<path d="M520.539 159.56L521.636 149.342" stroke="#801E68" stroke-width="2" stroke-linecap="round" stroke-linejoin="round"/>
<path d="M446.037 159.56L439.105 150.79" stroke="#801E68" stroke-width="2" stroke-linecap="round" stroke-linejoin="round"/>
<path d="M452.618 122.328L452.411 131.822L451.894 155.899C451.894 155.899 498.644 173.418 516.172 152.982L516.483 135.09L516.897 110.641L452.618 122.328Z" fill="#E4C8E2" stroke="#801E68" stroke-width="2" stroke-linecap="round" stroke-linejoin="round"/>
<path d="M516.462 135.09L516.876 110.641L452.598 122.328L452.391 131.822C452.391 131.822 490.469 148.225 516.441 135.09H516.462Z" fill="#4B1844" stroke="#801E68" stroke-width="2" stroke-linecap="round" stroke-linejoin="round"/>
<path d="M445.665 99.3267C445.665 99.3267 437.263 92.7491 436.89 68.6724C436.518 44.575 443.823 21.5946 474.865 20.8499C505.908 20.1053 528.548 28.1515 528.548 57.7096C528.548 87.2677 520.146 99.6784 520.146 99.6784L445.644 99.306L445.665 99.3267Z" fill="#B85C9F" stroke="#801E68" stroke-width="2" stroke-linecap="round" stroke-linejoin="round"/>
<path d="M448.955 64.2873C448.955 64.2873 446.907 76.7186 445.499 89.8119C444.671 97.4031 444.071 105.242 444.216 110.993C444.299 114.282 444.961 117.364 446.203 120.197C450.921 130.912 463.876 137.924 484.385 137.634C506.673 137.324 518.718 127.83 521.884 114.964C522.401 112.875 522.691 110.683 522.733 108.428C522.877 101.83 522.05 95.707 521.015 90.8048C519.525 83.772 517.621 79.2215 517.621 79.2215C517.621 79.2215 474.534 87.247 448.955 64.2459V64.2873Z" fill="#E4C8E2" stroke="#801E68" stroke-width="2" stroke-linecap="round" stroke-linejoin="round"/>
<path d="M521.636 50.0563C521.636 50.0563 528.217 73.7814 517.621 79.2628" stroke="#801E68" stroke-width="2" stroke-linecap="round" stroke-linejoin="round"/>
<path d="M450.776 78.5182C450.776 78.5182 455.516 74.1331 464.29 74.1331" stroke="#801E68" stroke-width="2" stroke-linecap="round" stroke-linejoin="round"/>
<path d="M461.372 100.423C459.282 94.4038 450.901 93.9695 445.023 94.4452C444.464 100.506 444.092 106.401 444.195 111.013C444.216 111.944 444.299 112.875 444.423 113.785C451.584 111.737 463.711 107.208 461.372 100.444V100.423Z" fill="#FCE8F3" stroke="#801E68" stroke-width="2" stroke-linecap="round" stroke-linejoin="round"/>
<path d="M521.512 93.5144C516.11 92.2733 504.397 90.5358 504.107 98.9544C503.817 107.89 517.621 107.104 522.712 106.504C522.691 101.767 522.195 97.3617 521.512 93.4937V93.5144Z" fill="#FCE8F3" stroke="#801E68" stroke-width="2" stroke-linecap="round" stroke-linejoin="round"/>
<path d="M477.08 86.9161C477.08 86.9161 476.707 104.436 477.804 104.436C478.901 104.436 485.109 105.16 485.109 105.16" stroke="#801E68" stroke-width="2" stroke-linecap="round" stroke-linejoin="round"/>
<path d="M490.945 112.11C490.945 112.11 483.64 115.026 484.012 118.315C484.385 121.604 490.221 120.508 494.236 119.411C498.251 118.315 496.802 110.289 490.945 112.11Z" fill="#B85C9F" stroke="#801E68" stroke-width="2" stroke-linecap="round" stroke-linejoin="round"/>
<path d="M458.827 89.1086C460.244 89.1086 461.393 87.9603 461.393 86.5438C461.393 85.1272 460.244 83.9789 458.827 83.9789C457.41 83.9789 456.261 85.1272 456.261 86.5438C456.261 87.9603 457.41 89.1086 458.827 89.1086Z" fill="#4B1844" stroke="#801E68" stroke-width="2" stroke-linecap="round" stroke-linejoin="round"/>
<path d="M501.541 90.5772C502.958 90.5772 504.107 89.4289 504.107 88.0123C504.107 86.5958 502.958 85.4474 501.541 85.4474C500.124 85.4474 498.975 86.5958 498.975 88.0123C498.975 89.4289 500.124 90.5772 501.541 90.5772Z" fill="#4B1844" stroke="#801E68" stroke-width="2" stroke-linecap="round" stroke-linejoin="round"/>
<path d="M443.844 97.5065C443.844 97.5065 432.896 128.161 438.36 130.353C443.844 132.546 446.203 120.218 446.203 120.218" stroke="#801E68" stroke-width="2" stroke-linecap="round" stroke-linejoin="round"/>
<path d="M521.512 93.5144C521.512 93.5144 534.798 124.872 528.217 127.809C521.636 130.726 520.539 118.687 520.539 118.687" stroke="#801E68" stroke-width="2" stroke-linecap="round" stroke-linejoin="round"/>
<path d="M201.341 255.908C201.341 255.908 202.065 182.168 207.177 173.418C212.288 164.648 232.011 155.175 251.009 152.982L252.478 127.437L314.563 125.244V149.342C314.563 149.342 354.007 150.066 358.394 176.356C362.782 202.646 379.586 257.397 379.586 257.397L359.864 276.386L275.139 286.604L216.696 268.36L201.361 255.949L201.341 255.908Z" fill="#BA97C6" stroke="#801E68" stroke-width="2" stroke-linecap="round" stroke-linejoin="round"/>
<path d="M252.478 127.437L314.563 125.244V137.903C314.563 137.903 282.175 148.121 251.505 134.49L252.478 127.437Z" fill="#4B1844" stroke="#801E68" stroke-width="2" stroke-linecap="round" stroke-linejoin="round"/>
<path d="M358.394 176.335C362.782 202.625 379.586 257.377 379.586 257.377L359.864 276.365L275.139 286.583L216.696 268.339L201.361 255.929C201.361 255.929 202.086 182.189 207.197 173.439C207.197 173.439 289.377 192.055 358.022 176.004L358.394 176.376V176.335Z" fill="#B85C9F" stroke="#801E68" stroke-width="2" stroke-linecap="round" stroke-linejoin="round"/>
<path d="M249.56 130.353C249.56 130.353 253.947 139.124 282.796 136.931C311.645 134.739 328.821 116.495 328.821 116.495L337.224 87.6607L326.276 57.7303L258.355 44.2234L226.216 85.0959L233.894 117.943L249.601 130.353H249.56Z" fill="#BA97C6" stroke="#801E68" stroke-width="2" stroke-linecap="round" stroke-linejoin="round"/>
<path d="M254.299 90.9289C254.299 92.3354 253.161 93.4938 251.733 93.4938C250.305 93.4938 249.167 92.3561 249.167 90.9289C249.167 89.5017 250.305 88.364 251.733 88.364C253.161 88.364 254.299 89.5017 254.299 90.9289Z" fill="#4B1844" stroke="#801E68" stroke-width="2" stroke-linecap="round" stroke-linejoin="round"/>
<path d="M296.662 93.1214C298.079 93.1214 299.228 91.9731 299.228 90.5566C299.228 89.14 298.079 87.9917 296.662 87.9917C295.244 87.9917 294.095 89.14 294.095 90.5566C294.095 91.9731 295.244 93.1214 296.662 93.1214Z" fill="#4B1844" stroke="#801E68" stroke-width="2" stroke-linecap="round" stroke-linejoin="round"/>
<path d="M292.274 79.2422C292.274 79.2422 298.855 76.6773 304.319 79.2422" stroke="#801E68" stroke-width="2" stroke-linecap="round" stroke-linejoin="round"/>
<path d="M260.156 79.6145C260.156 79.6145 251.029 78.1459 246.269 81.0831" stroke="#801E68" stroke-width="2" stroke-linecap="round" stroke-linejoin="round"/>
<path d="M272.924 93.4937C272.924 93.4937 272.924 112.11 274.021 112.11H282.051" stroke="#801E68" stroke-width="2" stroke-linecap="round" stroke-linejoin="round"/>
<path d="M320.771 93.4937C320.771 93.4937 301.421 88.757 301.421 101.168C301.421 113.578 316.756 114.675 323.337 109.193L326.255 101.168L320.771 93.4937Z" fill="#E4C8E2" stroke="#801E68" stroke-width="2" stroke-linecap="round" stroke-linejoin="round"/>
<path d="M237.143 100.423C237.143 100.423 258.686 96.0379 260.156 106.256C261.625 116.474 245.918 119.391 242.627 119.391C239.337 119.391 235.322 108.8 235.322 108.8L237.143 100.402V100.423Z" fill="#E4C8E2" stroke="#801E68" stroke-width="2" stroke-linecap="round" stroke-linejoin="round"/>
<path d="M253.947 63.191C253.947 63.191 256.865 70.1203 266.364 69.024C275.863 67.9278 274.766 56.6134 274.766 56.6134C274.766 56.6134 279.154 67.9278 289.377 69.748C299.6 71.5682 308.002 61.3501 308.002 61.3501C308.002 61.3501 303.987 81.7863 321.889 84.7029C321.889 84.7029 307.65 103.319 321.516 112.089C321.516 112.089 308.002 117.922 310.92 129.609C313.838 141.296 323.337 135.442 323.337 135.442C323.337 135.442 320.047 149.673 332.836 149.673C345.626 149.673 345.253 133.622 345.253 133.622C345.253 133.622 355.104 135.814 360.961 127.044C366.797 118.274 357.318 109.152 357.318 109.152C357.318 109.152 369.363 100.03 369.363 89.0673C369.363 78.1045 358.043 77.7529 358.043 77.7529C358.043 77.7529 364.251 60.9571 354.4 48.9187C344.55 36.8804 333.581 42.7134 333.581 42.7134C333.581 42.7134 339.417 22.6288 318.246 16.7958C297.055 10.9628 290.494 26.6416 290.494 26.6416C290.494 26.6416 289.398 7.30162 268.578 9.12185C247.759 10.9421 255.065 30.3027 255.065 30.3027C255.065 30.3027 249.229 21.1809 237.536 26.2899C225.844 31.399 231.7 40.8932 231.7 40.8932C231.7 40.8932 220.008 33.9639 217.09 41.9894C214.172 50.015 221.104 58.4129 221.104 58.4129C221.104 58.4129 193.353 56.2204 193.704 77.0289C194.077 97.8375 206.494 95.6449 206.494 95.6449C206.494 95.6449 186.772 95.2726 189.69 110.248C192.608 125.224 206.121 110.248 206.121 110.248C206.121 110.248 195.525 117.55 200.637 127.768C205.749 137.986 215.248 130.684 215.248 130.684C215.248 130.684 219.635 149.673 233.149 146.384C246.663 143.095 238.985 133.249 238.985 133.249C238.985 133.249 247.759 142.019 254.692 133.622C261.625 125.224 244.841 113.537 244.841 113.537C244.841 113.537 253.616 99.6577 239.005 89.8119C239.005 89.8119 260.549 83.9789 253.989 63.1703L253.947 63.191Z" fill="#F6A01A" stroke="#801E68" stroke-width="2" stroke-linecap="round" stroke-linejoin="round"/>
<path d="M267.44 124.52C267.44 124.52 286.976 125.803 297.572 115.585C297.572 115.585 294.468 117.053 289.542 116.309C284.617 115.585 280.954 115.936 280.044 117.405C279.133 118.874 278.574 121.79 278.574 121.79C278.574 121.79 275.842 117.777 272.179 118.874C268.537 119.97 269.8 123.796 267.44 124.541V124.52Z" fill="#4B1844" stroke="#801E68" stroke-width="2" stroke-linecap="round" stroke-linejoin="round"/>
<path d="M446.762 18.0369C446.762 18.0369 444.568 30.4475 448.955 37.3768" stroke="#801E68" stroke-width="2" stroke-linecap="round" stroke-linejoin="round"/>
<path d="M467.953 318.83L462.842 256.777C462.842 256.777 457.006 227.57 425.591 231.232L425.239 218.821L424.866 205.686L369.714 206.782L368.618 229.784C368.618 229.784 343.059 230.508 338.672 257.521C334.285 284.535 333.56 352.422 333.56 352.422C333.56 352.422 429.978 360.447 460.648 356.807C491.318 353.166 467.953 318.851 467.953 318.851V318.83Z" fill="#E4C8E2" stroke="#801E68" stroke-width="2" stroke-linecap="round" stroke-linejoin="round"/>
<path d="M368.618 229.763C368.618 229.763 405.889 234.5 425.239 218.821L424.866 205.686L369.715 206.782L368.618 229.784" fill="#4B1844"/>
<path d="M368.618 229.763C368.618 229.763 405.889 234.5 425.239 218.821L424.866 205.686L369.715 206.782L368.618 229.784" stroke="#801E68" stroke-width="2" stroke-linecap="round" stroke-linejoin="round"/>
<path d="M348.15 304.951C348.15 304.951 360.567 295.457 362.037 287.431C363.506 279.406 364.23 229.763 364.23 229.763H368.618C368.618 229.763 366.424 268.464 367.893 270.635C369.363 272.828 423.397 272.104 428.509 270.635L429.233 231.211L435.069 231.935C435.069 231.935 427.764 293.988 441.65 313.7C455.536 333.413 452.598 348.74 452.598 348.74L446.513 463.414H366.176L350.841 459.029L348.171 304.93L348.15 304.951Z" fill="#F6A01A" stroke="#801E68" stroke-width="2" stroke-linecap="round" stroke-linejoin="round"/>
<path d="M385.049 112.958L386.146 121.356L396.37 124.996L402.206 120.259L403.675 110.765L391.258 106.38L385.049 112.958Z" fill="#F6A01A" stroke="#801E68" stroke-width="2" stroke-linecap="round" stroke-linejoin="round"/>
<path d="M379.938 114.054C379.938 114.054 404.047 115.15 408.786 114.426C413.526 113.702 424.121 109.69 421.203 99.4509C418.285 89.2328 403.675 99.0786 403.675 99.0786C403.675 99.0786 404.399 91.7769 396.742 88.4881C389.085 85.1993 384.698 92.1286 384.698 92.1286C384.698 92.1286 373.378 83.7307 366.445 90.3083C359.512 96.886 366.445 114.406 379.958 114.033L379.938 114.054Z" fill="#4B1844" stroke="#801E68" stroke-width="2" stroke-linecap="round" stroke-linejoin="round"/>
<path d="M363.506 187.05C363.506 187.05 352.558 179.748 354.731 155.651C356.925 131.553 375.923 119.142 394.548 118.046C413.174 116.95 441.65 127.168 442.747 151.989C443.844 176.811 438.732 187.029 438.732 187.029L400.757 197.971L363.506 187.029V187.05Z" fill="#4B1844" stroke="#801E68" stroke-width="2" stroke-linecap="round" stroke-linejoin="round"/>
<path d="M363.506 187.049C363.506 187.049 352.91 177.928 350.365 189.614C347.799 201.301 364.251 196.544 365.7 194.723C367.169 192.903 363.506 187.049 363.506 187.049Z" fill="#F6A01A" stroke="#801E68" stroke-width="2" stroke-linecap="round" stroke-linejoin="round"/>
<path d="M429.233 187.422C429.233 187.422 441.277 178.3 442.747 186.698C444.216 195.096 435.069 200.577 429.606 196.192L429.233 187.422Z" fill="#F6A01A" stroke="#801E68" stroke-width="2" stroke-linecap="round" stroke-linejoin="round"/>
<path d="M367.873 149.817C367.873 149.817 366.734 159.394 365.658 170.254C364.541 181.547 363.485 194.248 363.858 199.088C364.003 201.053 364.479 203.411 365.389 205.893C368.804 215.429 378.282 226.888 398.563 225.729C419.672 224.53 427.536 216.132 430.33 205.666C431.509 201.28 431.779 196.523 431.779 191.786C431.779 185.188 431.654 178.072 431.178 171.681C430.495 162.518 429.088 154.802 426.294 152.01C421.555 147.273 406.572 153.479 402.185 139.972C402.185 139.972 386.85 162.973 367.852 149.817H367.873Z" fill="#E4C8E2" stroke="#801E68" stroke-width="2" stroke-linecap="round" stroke-linejoin="round"/>
<path d="M369.714 164.793C369.714 164.793 374.102 160.408 378.841 159.312" stroke="#801E68" stroke-width="2" stroke-linecap="round" stroke-linejoin="round"/>
<path d="M409.883 156.747C409.883 156.747 419.734 159.312 422.3 164.772" stroke="#801E68" stroke-width="2" stroke-linecap="round" stroke-linejoin="round"/>
<path d="M375.55 172.819H384.677" stroke="#801E68" stroke-width="2" stroke-linecap="round" stroke-linejoin="round"/>
<path d="M409.883 173.17L420.107 173.915" stroke="#801E68" stroke-width="2" stroke-linecap="round" stroke-linejoin="round"/>
<path d="M400.384 170.254V195.447C400.384 195.447 395.273 196.544 393.452 196.171" stroke="#801E68" stroke-width="2" stroke-linecap="round" stroke-linejoin="round"/>
<path d="M380.662 201.653C380.662 201.653 395.645 204.942 412.801 202.025C412.801 202.025 410.608 212.243 397.094 211.871C383.58 211.499 380.662 201.653 380.662 201.653Z" fill="#4B1844" stroke="#801E68" stroke-width="2" stroke-linecap="round" stroke-linejoin="round"/>
<path d="M365.12 176.004C364.354 184.278 363.754 192.469 363.796 197.144C368.742 195.84 376.275 192.779 377.02 185.953C377.785 178.755 369.88 176.625 365.12 176.004Z" fill="#FCE8F3" stroke="#801E68" stroke-width="2" stroke-linecap="round" stroke-linejoin="round"/>
<path d="M431.799 191.786C431.799 187.112 431.737 182.189 431.53 177.431C427.184 178.052 417.478 180.162 417.189 186.677C416.92 192.965 426.667 196.378 431.572 197.702C431.716 195.737 431.779 193.772 431.779 191.786H431.799Z" fill="#FCE8F3" stroke="#801E68" stroke-width="2" stroke-linecap="round" stroke-linejoin="round"/>
<path d="M372.984 290.348L423.376 289.624C423.376 289.624 426.294 317.362 398.543 317.362C370.791 317.362 372.984 290.348 372.984 290.348Z" fill="#F6A01A" stroke="#801E68" stroke-width="2" stroke-linecap="round" stroke-linejoin="round"/>
<path d="M373.729 299.118L421.203 300.566" stroke="#801E68" stroke-width="2" stroke-linecap="round" stroke-linejoin="round"/>
<path d="M373.357 295.457L376.461 295.498" stroke="#801E68" stroke-width="2" stroke-linecap="round" stroke-linejoin="round"/>
<path d="M382.628 295.602L416.485 296.098" stroke="#801E68" stroke-width="2" stroke-linecap="round" stroke-linejoin="round"/>
<path d="M419.548 296.139L422.652 296.181" stroke="#801E68" stroke-width="2" stroke-linecap="round" stroke-linejoin="round"/>
<path d="M24.1096 159.787C24.1096 159.787 23.6129 116.95 38.2235 97.9822C38.2235 97.9822 24.1096 94.0936 26.5309 63.4185C28.9729 32.7642 60.6154 24.9661 74.2533 24.4904C87.8913 23.994 126.839 18.6574 131.702 58.5577C136.566 98.458 120.506 100.899 120.506 100.899C120.506 100.899 130.73 96.0379 134.62 153.954L106.372 163.2L24.0889 159.787H24.1096Z" fill="#BA97C6" stroke="#801E68" stroke-width="3" stroke-linecap="round" stroke-linejoin="round"/>
<path d="M65.4994 29.8477C65.4994 29.8477 50.8888 11.3558 72.308 2.58558C93.7272 -6.18463 92.7546 19.1331 83.5039 27.4069C74.2533 35.6807 65.4787 29.8477 65.4787 29.8477H65.4994Z" fill="#BA97C6" stroke="#801E68" stroke-width="2" stroke-linecap="round" stroke-linejoin="round"/>
<path d="M164.338 240.705C164.338 240.705 161.42 175.487 159.475 163.8C157.53 152.113 109.807 142.268 109.807 142.268L109.435 136.538L108.338 119.887L48.6951 122.555L48.6123 129.981L48.4468 145.184C48.4468 145.184 37.7268 144.212 22.1435 152.962C6.56028 161.732 13.3689 230.838 13.3689 230.838C13.3689 230.838 0.869179 326.525 24.0889 334.509C47.2879 342.493 135.469 291.403 135.469 291.403C135.469 291.403 166.18 277.606 164.318 240.684L164.338 240.705Z" fill="#E4C8E2" stroke="#801E68" stroke-width="2" stroke-linecap="round" stroke-linejoin="round"/>
<path d="M109.435 136.538L108.338 119.887L48.6951 122.555L48.6123 129.981C48.6123 129.981 70.9421 146.736 109.435 136.538Z" fill="#4B1844" stroke="#801E68" stroke-width="0.75" stroke-linecap="round" stroke-linejoin="round"/>
<path d="M129.778 234.251C131.247 222.089 129.778 145.681 129.778 145.681H127.832L126.86 170.502C74.75 207.486 37.7475 172.943 37.7475 172.943C37.7475 160.284 34.8295 147.149 34.8295 147.149L32.8842 148.121C36.7749 155.899 34.8295 233.776 34.8295 233.776C34.8295 233.776 37.2095 320.216 36.899 324.415C36.5886 328.614 131.495 280.605 131.495 280.605L129.798 234.251" fill="#4B1844"/>
<path d="M129.778 234.251C131.247 222.089 129.778 145.681 129.778 145.681H127.832L126.86 170.502C74.75 207.486 37.7475 172.943 37.7475 172.943C37.7475 160.284 34.8295 147.149 34.8295 147.149L32.8842 148.121C36.7749 155.899 34.8295 233.776 34.8295 233.776C34.8295 233.776 37.2095 320.216 36.899 324.415C36.5886 328.614 131.495 280.605 131.495 280.605L129.798 234.251" stroke="#801E68" stroke-width="0.75" stroke-linecap="round" stroke-linejoin="round"/>
<path d="M46.0047 47.3674C46.0047 47.3674 23.6129 118.418 58.1734 131.574C92.7545 144.708 135.117 132.546 122.452 71.2166C122.452 71.2166 110.759 53.6968 108.338 38.6179C108.338 38.6179 96.1692 61.9706 73.7566 60.5227C51.3647 59.0541 46.0047 47.3881 46.0047 47.3881V47.3674Z" fill="#E4C8E2"/>
<mask id="mask0_195_1055" style="mask-type:luminance" maskUnits="userSpaceOnUse" x="38" y="38" width="87" height="99">
<path d="M46.0047 47.3674C46.0047 47.3674 23.6129 118.418 58.1734 131.574C92.7545 144.708 135.117 132.546 122.452 71.2166C122.452 71.2166 110.759 53.6968 108.338 38.6179C108.338 38.6179 96.1692 61.9706 73.7566 60.5227C51.3647 59.0541 46.0047 47.3881 46.0047 47.3881V47.3674Z" fill="white"/>
</mask>
<g mask="url(#mask0_195_1055)">
<path d="M36.2781 81.4347C36.2781 81.4347 53.3307 85.8198 54.3034 100.899C55.276 115.978 39.6928 119.887 39.6928 119.887L31.9115 102.843L36.2988 81.4347H36.2781Z" fill="#FCE8F3" stroke="#801E68" stroke-width="2" stroke-linecap="round" stroke-linejoin="round"/>
<path d="M128.308 82.4069C128.308 82.4069 107.862 89.7085 107.862 101.871C107.862 114.033 125.39 116.95 125.39 116.95L130.254 100.402L128.308 82.3862V82.4069Z" fill="#FCE8F3" stroke="#801E68" stroke-width="2" stroke-linecap="round" stroke-linejoin="round"/>
</g>
<path d="M46.0047 47.3674C46.0047 47.3674 23.6129 118.418 58.1734 131.574C92.7545 144.708 135.117 132.546 122.452 71.2166C122.452 71.2166 110.759 53.6968 108.338 38.6179C108.338 38.6179 96.1692 61.9706 73.7566 60.5227C51.3647 59.0541 46.0047 47.3881 46.0047 47.3881V47.3674Z" stroke="#801E68" stroke-width="2" stroke-linecap="round" stroke-linejoin="round"/>
<path d="M46.0047 47.3674C46.0047 47.3674 23.6129 118.418 58.1734 131.574C92.7545 144.708 135.117 132.546 122.452 71.2165" stroke="#801E68" stroke-width="0.75" stroke-miterlimit="10"/>
<path d="M60.1394 65.3835C60.1394 65.3835 46.0254 65.88 40.6655 72.1887" stroke="#801E68" stroke-width="2" stroke-linecap="round" stroke-linejoin="round"/>
<path d="M103.475 63.4392C103.475 63.4392 114.67 62.467 119.534 66.3557" stroke="#801E68" stroke-width="2" stroke-linecap="round" stroke-linejoin="round"/>
<path d="M67.4447 113.082C67.4447 113.082 73.7773 114.551 76.6953 113.082" stroke="#801E68" stroke-width="2" stroke-linecap="round" stroke-linejoin="round"/>
<path d="M86.9186 101.871C86.9186 101.871 80.11 103.815 79.6133 100.899C79.1166 97.9823 79.1166 76.5739 79.1166 76.5739" stroke="#801E68" stroke-width="2" stroke-linecap="round" stroke-linejoin="round"/>
<path d="M36.8783 74.1331C36.8783 74.1331 41.6174 92.3768 54.0344 92.3768C66.4513 92.3768 75.9503 77.7735 75.9503 77.7735H86.1736C86.1736 77.7735 91.2852 90.9082 106.268 92.0045C121.251 93.1007 125.991 81.414 127.46 73.7608C127.46 73.7608 124.169 69.3757 111.752 70.8443C99.3355 72.3129 88.3879 74.857 87.2911 74.857C86.1943 74.857 74.8741 74.4847 74.8741 74.4847C74.8741 74.4847 53.9102 72.7472 48.9434 71.6923C41.038 69.9962 36.899 74.1331 36.899 74.1331H36.8783Z" fill="#F6A01A" stroke="#801E68" stroke-width="2" stroke-linecap="round" stroke-linejoin="round"/>
<path d="M43.5835 77.7942C43.5835 77.7942 46.5015 86.5644 53.0825 86.792C59.6634 87.0402 65.2511 80.9589 66.4721 78.5182C66.4721 78.5182 48.2192 75.1053 43.5835 77.7942Z" fill="#B85C9F" stroke="#801E68" stroke-width="0.75" stroke-linecap="round" stroke-linejoin="round"/>
<path d="M118.085 77.7942C118.085 77.7942 115.167 86.5644 108.586 86.792C102.005 87.0402 96.4176 80.9589 95.1966 78.5182C95.1966 78.5182 113.45 75.1053 118.085 77.7942Z" fill="#B85C9F" stroke="#801E68" stroke-width="0.75" stroke-linecap="round" stroke-linejoin="round"/>
<path d="M270.338 337.694C270.338 337.694 263.529 259.817 242.089 257.873C220.67 255.929 210.922 253.984 210.922 253.984L153.473 256.901C153.473 256.901 117.071 254.46 109.29 273.924C101.509 293.388 105.751 335.75 105.751 335.75L104.592 489.125C104.592 489.125 206.245 503.728 257.859 489.125L270.338 337.694Z" fill="#FCE8F3" stroke="#801E68" stroke-width="2" stroke-linecap="round" stroke-linejoin="round"/>
<path d="M153.618 243.022L154.115 261.038C154.115 261.038 177.976 288.776 208.17 259.569V231.831L153.639 243.022H153.618Z" fill="#E4C8E2" stroke="#801E68" stroke-width="2" stroke-linecap="round" stroke-linejoin="round"/>
<path d="M208.17 244.966V231.831L153.639 243.022L154.136 261.038C154.136 261.038 191.635 266.147 208.191 244.987L208.17 244.966Z" fill="#4B1844" stroke="#801E68" stroke-width="0.75" stroke-linecap="round" stroke-linejoin="round"/>
<path d="M108.835 208.954C108.835 208.954 123.921 217.228 153.142 212.843C182.364 208.458 212.557 210.899 212.557 210.899C212.557 210.899 238.861 211.395 243.227 207.982C247.615 204.569 230.562 134.987 181.391 134.987C132.22 134.987 107.386 184.629 108.835 208.954Z" fill="#4B1844" stroke="#801E68" stroke-width="0.75" stroke-linecap="round" stroke-linejoin="round"/>
<path d="M152.17 176.335C152.17 176.335 148.672 189.449 146.354 202.935C145.216 209.575 144.368 216.297 144.368 221.593C144.368 224.881 144.637 228.377 145.278 231.811C147.782 245.131 155.998 257.894 176.507 257.128C198.609 256.301 209.639 245.111 213.261 229.99C213.861 227.446 214.275 224.799 214.482 222.089C214.937 216.215 214.399 209.802 213.468 203.721C211.357 190.131 207.177 178.3 207.177 178.3C207.177 178.3 191.593 183.657 188.675 161.256C188.675 161.256 164.338 195.323 152.149 176.335H152.17Z" fill="#E4C8E2" stroke="#801E68" stroke-width="2" stroke-linecap="round" stroke-linejoin="round"/>
<path d="M193.559 183.161C193.559 183.161 203.783 185.602 204.755 193.379" stroke="#801E68" stroke-width="2" stroke-linecap="round" stroke-linejoin="round"/>
<path d="M158.978 194.351C158.978 194.351 165.311 188.022 170.671 187.049" stroke="#801E68" stroke-width="2" stroke-linecap="round" stroke-linejoin="round"/>
<path d="M178.949 223.558C178.949 223.558 187.227 224.054 187.723 220.145C188.22 216.256 187.227 201.156 187.227 201.156" stroke="#801E68" stroke-width="2" stroke-linecap="round" stroke-linejoin="round"/>
<path d="M214.503 222.089C214.875 217.352 214.585 212.264 213.965 207.279C209.019 205.934 200.203 205.024 197.45 214.312C194.47 224.406 207.818 225.026 214.192 224.757C214.296 223.868 214.42 222.999 214.503 222.089Z" fill="#FCE8F3" stroke="#801E68" stroke-width="2" stroke-linecap="round" stroke-linejoin="round"/>
<path d="M163.862 212.843C162.828 203.204 151.818 206.224 145.465 208.83C144.823 213.443 144.388 217.89 144.388 221.613C144.388 222.606 144.43 223.62 144.471 224.633C150.473 224.695 165.021 223.702 163.862 212.864V212.843Z" fill="#FCE8F3" stroke="#801E68" stroke-width="2" stroke-linecap="round" stroke-linejoin="round"/>
<path d="M172.14 230.363C172.14 230.363 165.559 228.17 164.835 231.459C164.111 234.748 167.029 237.664 171.416 237.664C175.803 237.664 177.997 234.376 172.14 230.363Z" fill="#B85C9F" stroke="#801E68" stroke-width="2" stroke-linecap="round" stroke-linejoin="round"/>
<path d="M179.445 272.704L182.012 494.731" stroke="#801E68" stroke-width="2" stroke-linecap="round" stroke-linejoin="round"/>
<path d="M193.435 299.47C193.435 301.89 191.614 303.855 189.358 303.855C187.103 303.855 185.281 301.89 185.281 299.47C185.281 297.049 187.103 295.084 189.358 295.084C191.614 295.084 193.435 297.049 193.435 299.47Z" fill="#F6A01A" stroke="#801E68" stroke-width="0.75" stroke-linecap="round" stroke-linejoin="round"/>
<path d="M193.435 337.488C193.435 339.908 191.614 341.873 189.358 341.873C187.103 341.873 185.281 339.908 185.281 337.488C185.281 335.067 187.103 333.102 189.358 333.102C191.614 333.102 193.435 335.067 193.435 337.488Z" fill="#F6A01A" stroke="#801E68" stroke-width="0.75" stroke-linecap="round" stroke-linejoin="round"/>
<path d="M193.435 373.809C193.435 376.23 191.614 378.195 189.358 378.195C187.103 378.195 185.281 376.23 185.281 373.809C185.281 371.389 187.103 369.424 189.358 369.424C191.614 369.424 193.435 371.389 193.435 373.809Z" fill="#F6A01A" stroke="#801E68" stroke-width="0.75" stroke-linecap="round" stroke-linejoin="round"/>
<path d="M197.574 413.234C197.574 415.654 195.753 417.619 193.497 417.619C191.242 417.619 189.42 415.654 189.42 413.234C189.42 410.814 191.242 408.849 193.497 408.849C195.753 408.849 197.574 410.814 197.574 413.234Z" fill="#F6A01A" stroke="#801E68" stroke-width="0.75" stroke-linecap="round" stroke-linejoin="round"/>
<path d="M197.574 451.252C197.574 453.672 195.753 455.637 193.497 455.637C191.242 455.637 189.42 453.672 189.42 451.252C189.42 448.832 191.242 446.867 193.497 446.867C195.753 446.867 197.574 448.832 197.574 451.252Z" fill="#F6A01A" stroke="#801E68" stroke-width="0.75" stroke-linecap="round" stroke-linejoin="round"/>
<path d="M197.698 199.708C197.698 201.115 196.56 202.273 195.132 202.273C193.704 202.273 192.566 201.136 192.566 199.708C192.566 198.281 193.704 197.144 195.132 197.144C196.56 197.144 197.698 198.281 197.698 199.708Z" fill="#4B1844" stroke="#801E68" stroke-width="0.75" stroke-linecap="round" stroke-linejoin="round"/>
<path d="M164.959 203.721C166.376 203.721 167.525 202.573 167.525 201.156C167.525 199.74 166.376 198.591 164.959 198.591C163.542 198.591 162.393 199.74 162.393 201.156C162.393 202.573 163.542 203.721 164.959 203.721Z" fill="#4B1844" stroke="#801E68" stroke-width="0.75" stroke-linecap="round" stroke-linejoin="round"/>
<path d="M314.563 330.372L305.788 316.493L294.095 332.544L236.398 348.595C236.398 348.595 234.453 288.238 239.813 257.087C245.173 225.936 272.2 206.224 288.984 221.551C288.984 221.551 301.401 206.224 320.399 209.141C339.397 212.057 359.119 260.252 351.813 334.716" fill="#BA97C6"/>
<path d="M314.563 330.372L305.788 316.493L294.095 332.544L236.398 348.595C236.398 348.595 234.453 288.238 239.813 257.087C245.173 225.936 272.2 206.224 288.984 221.551C288.984 221.551 301.401 206.224 320.399 209.141C339.397 212.057 359.119 260.252 351.813 334.716" stroke="#801E68" stroke-width="2" stroke-linecap="round" stroke-linejoin="round"/>
<path d="M222.863 483.789C222.863 483.789 218.145 349.36 233.48 336.95C248.815 324.539 289.729 324.539 289.729 324.539C289.729 324.539 360.588 309.936 364.23 356.662C367.873 403.388 363.692 520.214 363.692 520.214L283.479 494.731H233.811L222.863 483.789Z" fill="#4B1844" stroke="#801E68" stroke-width="2" stroke-linecap="round" stroke-linejoin="round"/>
<path d="M268.537 314.569V327.228C268.537 327.228 271.455 342.307 290.929 342.307C310.403 342.307 315.763 328.2 315.763 328.2L315.266 309.212L268.516 314.569H268.537Z" fill="#E4C8E2" stroke="#801E68" stroke-width="2" stroke-linecap="round" stroke-linejoin="round"/>
<path d="M315.784 328.2L315.287 309.212L268.537 314.569V322.843C268.537 322.843 295.316 332.089 315.763 328.2H315.784Z" fill="#4B1844" stroke="#801E68" stroke-width="2" stroke-linecap="round" stroke-linejoin="round"/>
<path d="M257.838 259.569C257.838 259.569 256.638 267.864 255.975 278.061C255.458 286.19 255.292 295.539 256.369 302.882C256.886 306.357 257.9 309.233 259.39 311.632C264.998 320.692 277.208 322.74 293.371 322.347C306.057 322.036 317.812 316.679 324.91 308.116C329.235 302.882 331.843 296.45 331.843 289.251C331.843 283.811 331.45 278.785 330.87 274.359C329.442 263.334 326.959 256.156 326.959 256.156C326.959 256.156 321.599 259.073 302.125 259.073L296.765 247.882C296.765 247.882 289.46 255.66 287.99 259.073C287.99 259.073 264.129 263.934 257.796 259.569H257.838Z" fill="#E4C8E2" stroke="#801E68" stroke-width="2" stroke-linecap="round" stroke-linejoin="round"/>
<path d="M318.702 263.954C318.702 263.954 311.893 258.597 308.478 258.597" stroke="#801E68" stroke-width="2" stroke-linecap="round" stroke-linejoin="round"/>
<path d="M263.198 266.374C263.198 266.374 269.034 261.514 271.476 261.514" stroke="#801E68" stroke-width="2" stroke-linecap="round" stroke-linejoin="round"/>
<path d="M255.706 283.625C255.458 290.244 255.541 297.174 256.389 302.882C256.41 303.089 256.472 303.275 256.493 303.482C261.377 303.648 267.896 303.027 270.503 298.994C274.497 292.788 265.143 284.97 255.706 283.646V283.625Z" fill="#FCE8F3" stroke="#801E68" stroke-width="2" stroke-linecap="round" stroke-linejoin="round"/>
<path d="M331.843 289.251C331.843 286.356 331.719 283.584 331.532 280.936C325.924 281.06 313.611 282.426 312.845 292.168C312.203 300.607 321.537 303.213 327.807 303.999C330.374 299.635 331.843 294.671 331.843 289.251Z" fill="#FCE8F3" stroke="#801E68" stroke-width="2" stroke-linecap="round" stroke-linejoin="round"/>
<path d="M287.535 275.62L287.038 293.637C287.038 293.637 286.066 297.525 292.398 297.525" stroke="#801E68" stroke-width="2" stroke-linecap="round" stroke-linejoin="round"/>
<path d="M294.84 306.295C294.84 306.295 300.676 305.323 302.146 303.379" stroke="#801E68" stroke-width="2" stroke-linecap="round" stroke-linejoin="round"/>
<path d="M287.535 281.226C287.535 287.266 281.534 292.168 274.145 292.168C266.757 292.168 260.756 287.266 260.756 281.226C260.756 275.186 266.757 270.284 274.145 270.284C281.534 270.284 287.535 275.186 287.535 281.226Z" stroke="#801E68" stroke-width="2" stroke-linecap="round" stroke-linejoin="round"/>
<path d="M325.034 278.475C325.034 284.97 318.598 290.224 310.672 290.224C302.746 290.224 296.31 284.97 296.31 278.475C296.31 271.98 302.746 266.726 310.672 266.726C318.598 266.726 325.034 271.98 325.034 278.475Z" stroke="#801E68" stroke-width="2" stroke-linecap="round" stroke-linejoin="round"/>
<path d="M287.535 281.226C287.535 281.226 291.922 279.095 296.848 281.474" stroke="#801E68" stroke-width="2" stroke-linecap="round" stroke-linejoin="round"/>
<path d="M315.287 317.734L314.563 330.393C324.062 340.611 323.337 408.497 323.337 408.497L344.529 409.221L351.834 334.757L352.558 319.182" fill="#BA97C6"/>
<path d="M315.287 317.734L314.563 330.393C324.062 340.611 323.337 408.497 323.337 408.497L344.529 409.221L351.834 334.757L352.558 319.182" stroke="#801E68" stroke-width="2" stroke-linecap="round" stroke-linejoin="round"/>
<path d="M267.689 283.542C269.106 283.542 270.255 282.394 270.255 280.978C270.255 279.561 269.106 278.413 267.689 278.413C266.271 278.413 265.122 279.561 265.122 280.978C265.122 282.394 266.271 283.542 267.689 283.542Z" fill="#4B1844" stroke="#801E68" stroke-width="2" stroke-linecap="round" stroke-linejoin="round"/>
<path d="M309.699 278.061C309.699 279.468 308.561 280.626 307.133 280.626C305.705 280.626 304.567 279.488 304.567 278.061C304.567 276.634 305.705 275.496 307.133 275.496C308.561 275.496 309.699 276.634 309.699 278.061Z" fill="#4B1844" stroke="#801E68" stroke-width="2" stroke-linecap="round" stroke-linejoin="round"/>
<path d="M564.598 342.783C564.598 342.783 580.658 226.702 525.154 222.316L511.268 252.971L520.767 339.846L564.598 342.762V342.783Z" fill="#F6A01A" stroke="#801E68" stroke-width="2" stroke-linecap="round" stroke-linejoin="round"/>
<path d="M557.293 342.307C557.293 342.307 578.485 231.831 524.906 229.887" stroke="#801E68" stroke-width="2" stroke-linecap="round" stroke-linejoin="round"/>
<path d="M553.402 334.509C553.402 334.509 554.872 293.636 549.512 275.124" stroke="#801E68" stroke-width="2" stroke-linecap="round" stroke-linejoin="round"/>
<path d="M428.55 490.325C428.55 490.325 422.9 364.688 444.816 341.335C466.732 317.982 564.557 318.251 575.567 345.72C587.259 374.926 582.872 490.325 582.872 490.325C582.872 490.325 440.988 504.204 428.571 490.325H428.55Z" fill="#B85C9F" stroke="#801E68" stroke-width="2" stroke-linecap="round" stroke-linejoin="round"/>
<mask id="mask1_195_1055" style="mask-type:luminance" maskUnits="userSpaceOnUse" x="427" y="324" width="157" height="173">
<path d="M428.55 490.325C428.55 490.325 422.9 364.688 444.816 341.335C466.732 317.982 564.557 318.251 575.567 345.72C587.259 374.926 582.872 490.325 582.872 490.325C582.872 490.325 440.988 504.204 428.571 490.325H428.55Z" fill="white"/>
</mask>
<g mask="url(#mask1_195_1055)">
<path d="M540.24 323.091C540.24 323.091 535.15 352.546 556.113 363.488C592.578 382.538 597.234 328.531 597.234 328.531L540.24 323.091Z" fill="#4B1844" stroke="#801E68" stroke-width="2" stroke-linecap="round" stroke-linejoin="round"/>
<path d="M417.168 359.579C417.168 359.579 476.914 378.919 477.928 333.123L433.745 334.53L417.168 359.599V359.579Z" fill="#4B1844" stroke="#801E68" stroke-width="2" stroke-linecap="round" stroke-linejoin="round"/>
</g>
<path d="M477.928 339.39C477.928 339.39 490.097 352.525 508.598 352.525C527.099 352.525 539.765 337.922 539.765 337.922C539.765 337.922 539.889 334.157 540.034 329.152C540.323 319.885 540.737 306.419 540.737 304.827C540.737 302.386 487.179 315.541 487.179 315.541L477.928 339.39Z" fill="#BA97C6" stroke="#801E68" stroke-width="2" stroke-linecap="round" stroke-linejoin="round"/>
<path d="M487.179 315.541C487.179 315.541 540.737 302.407 540.737 304.827C540.737 306.399 540.323 319.885 540.034 329.152C540.034 329.152 498.126 340.859 487.179 315.541Z" fill="#4B1844" stroke="#801E68" stroke-width="2" stroke-linecap="round" stroke-linejoin="round"/>
<path d="M491.566 324.787C491.566 324.787 496.926 328.2 512.985 327.704C524.512 327.352 537.529 324.249 545.228 303.503C547.794 296.594 549.76 287.721 550.898 276.344C551.105 274.255 551.292 272.063 551.436 269.787C551.436 269.787 550.94 248.855 525.63 242.049L492.518 249.351L491.545 324.787H491.566Z" fill="#BA97C6" stroke="#801E68" stroke-width="2" stroke-linecap="round" stroke-linejoin="round"/>
<path d="M523.209 263.954C523.209 263.954 532.459 264.926 536.35 265.899" stroke="#801E68" stroke-width="2" stroke-linecap="round" stroke-linejoin="round"/>
<path d="M507.149 263.954L496.926 265.402" stroke="#801E68" stroke-width="2" stroke-linecap="round" stroke-linejoin="round"/>
<path d="M550.567 279.426C544.628 278.599 532.708 278.082 531.983 286.831C531.238 295.726 542.082 297.008 547.277 297.091C548.643 292.064 549.76 286.231 550.567 279.426Z" fill="#E4C8E2" stroke="#801E68" stroke-width="2" stroke-linecap="round" stroke-linejoin="round"/>
<path d="M508.122 278.558C508.122 278.558 507.149 295.105 507.625 296.574C508.122 298.042 515.903 297.07 515.903 297.07" stroke="#801E68" stroke-width="2" stroke-linecap="round" stroke-linejoin="round"/>
<path d="M531.011 303.606C524.678 313.576 510.067 310.66 510.067 310.66L515.903 305.303L521.139 307.123C521.139 307.123 521.139 302.738 522.96 302.738C524.781 302.738 530.99 303.586 530.99 303.586L531.011 303.606Z" fill="#4B1844" stroke="#801E68" stroke-width="2" stroke-linecap="round" stroke-linejoin="round"/>
<path d="M525.651 242.049C525.651 242.049 498.375 249.351 497.899 284.391C497.402 319.43 498.395 333.537 496.429 335.978C494.484 338.418 460.4 346.196 442.871 341.335C442.871 341.335 435.566 271.256 455.536 241.553C475.507 211.871 501.789 209.43 525.175 222.337C525.175 222.337 525.671 240.581 525.671 242.049H525.651Z" fill="#F6A01A" stroke="#801E68" stroke-width="2" stroke-linecap="round" stroke-linejoin="round"/>
<path d="M483.164 339.866C483.164 339.866 471.12 252.743 525.154 238.637" stroke="#801E68" stroke-width="2" stroke-linecap="round" stroke-linejoin="round"/>
<path d="M470.375 341.707C470.375 341.707 448.21 225.998 525.154 233.3" stroke="#801E68" stroke-width="2" stroke-linecap="round" stroke-linejoin="round"/>
<path d="M458.33 342.783C458.33 342.783 435.566 203.597 525.154 225.005" stroke="#801E68" stroke-width="2" stroke-linecap="round" stroke-linejoin="round"/>
<path d="M531.611 275.021C531.611 276.427 530.473 277.585 529.045 277.585C527.617 277.585 526.478 276.448 526.478 275.021C526.478 273.593 527.617 272.456 529.045 272.456C530.473 272.456 531.611 273.593 531.611 275.021Z" fill="#4B1844" stroke="#801E68" stroke-width="2" stroke-linecap="round" stroke-linejoin="round"/>
<path d="M5.07027 487.553C5.07027 487.553 -7.55362 341.686 18.9979 324.911C41.7003 310.536 73.7774 305.199 73.7774 305.199L102.254 303.007C102.254 303.007 142.422 300.814 146.81 349.733C151.197 398.651 145.299 494.131 145.299 494.131C145.299 494.131 26.9655 516.036 5.07027 487.553Z" fill="#BA97C6" stroke="#801E68" stroke-width="2" stroke-linecap="round" stroke-linejoin="round"/>
<path d="M72.6805 390.709C25.7445 390.709 3.84924 374.802 2.89727 374.099C2.02809 373.458 1.80044 372.155 2.42129 371.224C3.02144 370.293 4.22175 370.045 5.09093 370.707C5.33927 370.893 29.78 388.516 81.4551 386.406C134.041 384.234 147.803 385.62 148.362 385.682C149.417 385.806 150.183 386.799 150.079 387.937C149.976 389.075 149.045 389.902 147.969 389.798C147.824 389.798 133.73 388.392 81.5793 390.543C78.5165 390.667 75.5364 390.729 72.6805 390.729V390.709Z" fill="#801E68"/>
<path d="M148.176 367.128C148.176 367.128 148.113 367.128 148.072 367.128C147.7 367.108 109.952 364.936 87.9119 364.936C84.0213 364.936 80.2962 364.956 76.716 364.977C59.5806 365.081 46.0461 365.163 37.9544 362.661C28.9522 359.889 5.75316 362.702 5.52552 362.723C4.49077 362.847 3.51811 362.04 3.39394 360.902C3.26977 359.765 4.03549 358.751 5.09093 358.606C6.06359 358.482 29.2833 355.669 39.0099 358.668C46.5842 361.006 59.8703 360.923 76.6953 360.82C80.2755 360.799 84.0213 360.778 87.9119 360.778C110.055 360.778 147.906 362.95 148.279 362.971C149.334 363.033 150.142 364.005 150.1 365.143C150.038 366.239 149.19 367.108 148.176 367.108V367.128Z" fill="#801E68"/>
<path d="M51.0543 340.921C33.3395 340.921 11.5063 337.198 11.2787 337.157C10.2646 336.991 9.58171 335.936 9.72657 334.799C9.89213 333.661 10.8234 332.896 11.8375 333.061C12.0858 333.102 37.3543 337.405 55.2761 336.681C71.0042 336.06 93.603 335.212 108.276 335.212C121.81 335.212 143.933 334.488 144.161 334.488C144.161 334.488 144.202 334.488 144.223 334.488C145.216 334.488 146.044 335.378 146.065 336.495C146.085 337.632 145.299 338.584 144.264 338.625C144.037 338.625 121.872 339.349 108.276 339.349C93.6651 339.349 71.1077 340.177 55.4209 340.818C54.0137 340.88 52.565 340.9 51.075 340.9L51.0543 340.921Z" fill="#801E68"/>
<path d="M100.391 320.94C97.1419 320.94 93.7479 320.733 90.3747 320.506C85.0561 320.175 79.5719 319.823 75.1432 320.381C63.7817 321.85 32.9877 319.74 31.6839 319.657C30.794 319.595 30.1111 318.623 30.1525 317.486C30.1939 316.348 30.9596 315.459 31.8495 315.541C32.1599 315.562 63.6989 317.713 74.8328 316.286C79.4891 315.686 85.0975 316.038 90.5402 316.389C98.5285 316.906 106.806 317.424 111.959 314.941C121.148 310.515 127.481 309.729 127.729 309.708C128.619 309.605 129.405 310.432 129.488 311.57C129.571 312.708 128.909 313.721 128.039 313.824C127.977 313.824 121.852 314.59 113.098 318.809C109.642 320.464 105.192 320.94 100.391 320.94Z" fill="#801E68"/>
<path d="M3.97344 462.877C4.22178 463.063 28.3727 480.686 79.4478 478.576C131.413 476.404 145.03 477.79 145.568 477.852C146.623 477.976 147.368 478.969 147.265 480.107C147.161 481.244 146.251 482.072 145.175 481.968C145.03 481.968 131.102 480.562 79.5719 482.713C76.5505 482.837 73.6118 482.899 70.7766 482.899C24.3786 482.899 2.75244 466.993 1.80048 466.29" fill="#801E68"/>
<path d="M0.972656 453.776C1.96601 453.651 25.5789 450.838 35.4711 453.838C43.1696 456.175 56.6833 456.092 73.798 455.989C77.4403 455.968 81.2482 455.947 85.2009 455.947C107.717 455.947 146.21 458.119 146.582 458.14C147.658 458.202 148.486 459.174 148.424 460.312C148.362 461.408 147.513 462.277 146.479 462.277C146.437 462.277 146.416 462.277 146.375 462.277C145.982 462.256 107.614 460.084 85.2009 460.084C81.2482 460.084 77.461 460.105 73.8187 460.126C56.3936 460.229 42.6315 460.312 34.4156 457.809C25.2478 455.037 1.67628 457.85 1.42794 457.871" fill="#801E68"/>
<path d="M0.662225 428.23C0.951954 428.272 29.0763 432.574 49.0262 431.85C66.5341 431.229 91.6991 430.381 108.027 430.381C123.093 430.381 147.741 429.657 147.989 429.657C147.989 429.657 148.031 429.657 148.051 429.657C149.169 429.657 150.079 430.547 150.121 431.664C150.162 432.801 149.252 433.753 148.113 433.794C147.865 433.794 123.176 434.518 108.048 434.518C91.7819 434.518 66.6583 435.346 49.1918 435.987C47.619 436.049 46.0048 436.07 44.3492 436.07C24.6269 436.07 0.310412 432.346 0.0620728 432.305" fill="#801E68"/>
<path d="M106.123 416.088C101.219 416.088 96.0658 415.882 90.9955 415.654C82.9659 415.323 74.6672 414.971 68.0035 415.53C50.8267 416.999 4.30453 414.889 2.33852 414.806C0.99335 414.744 -0.0413957 413.772 0.0413839 412.634C0.124164 411.496 1.26238 410.607 2.60755 410.69C3.08354 410.71 50.7232 412.862 67.5275 411.434C74.5637 410.835 83.0487 411.186 91.2438 411.538C103.33 412.055 115.829 412.572 123.611 410.09C137.497 405.663 147.037 404.877 147.451 404.857C148.817 404.753 149.976 405.581 150.1 406.718C150.224 407.856 149.231 408.87 147.906 408.973C147.824 408.973 138.573 409.738 125.349 413.958C120.134 415.613 113.408 416.088 106.144 416.088H106.123Z" fill="#801E68"/>
<path d="M32.1392 362.143C32.1392 362.143 41.0794 490.408 38.8857 499.157" stroke="#801E68" stroke-width="2" stroke-linecap="round" stroke-linejoin="round"/>
<path d="M118.333 365.06C118.333 365.06 116.181 491.214 117.651 494.876" stroke="#801E68" stroke-width="2" stroke-linecap="round" stroke-linejoin="round"/>
<path d="M58.9184 313.473C58.9184 313.473 58.4217 331.489 77.4196 330.993C88.3259 330.703 94.0997 325.284 97.0384 318.892C99.2114 314.155 99.8322 308.86 99.8322 304.723L79.8616 310.556L58.9184 313.473Z" fill="#E4C8E2" stroke="#801E68" stroke-width="2" stroke-linecap="round" stroke-linejoin="round"/>
<path d="M58.9184 313.473L79.8616 310.556L99.8322 304.723C99.8322 308.86 99.2114 314.155 97.0384 318.892C97.0384 318.892 65.7477 326.38 58.9184 313.473Z" fill="#4B1844" stroke="#801E68" stroke-width="0.75" stroke-linecap="round" stroke-linejoin="round"/>
<path d="M47.1844 295.891C55.4623 292.002 106.434 293.14 108.876 293.14L47.1844 295.891Z" fill="#B85C9F"/>
<path d="M47.1844 295.891C55.4623 292.002 106.434 293.14 108.876 293.14" stroke="#801E68" stroke-width="0.75" stroke-linecap="round" stroke-linejoin="round"/>
<path d="M44.3078 246.31C44.3078 246.31 43.8732 258.866 44.5768 272.807C44.8665 278.599 45.3632 284.618 46.1496 290.079C46.4393 292.106 46.7912 294.05 47.1637 295.891C47.8466 299.097 48.6537 301.952 49.6471 304.227C56.4557 319.802 80.3169 316.886 85.6769 315.417C89.0502 314.507 100.35 314.342 107.51 296.718C107.965 295.602 108.4 294.402 108.834 293.14C109.931 289.831 110.883 285.983 111.67 281.557C112.539 276.592 113.16 270.904 113.449 264.327C113.739 258.287 113.739 251.502 113.449 243.89L112.477 228.811L97.8662 209.347H68.645L48.6744 222.482C48.6744 222.482 44.7838 243.89 44.2871 246.331L44.3078 246.31Z" fill="#E4C8E2" stroke="#801E68" stroke-width="2" stroke-linecap="round" stroke-linejoin="round"/>
<path d="M51.6131 257.976C51.6131 257.976 56.9731 256.032 60.3877 254.564" stroke="#801E68" stroke-width="2" stroke-linecap="round" stroke-linejoin="round"/>
<path d="M100.06 253.364C100.06 253.364 105.896 255.929 106.993 257.749" stroke="#801E68" stroke-width="2" stroke-linecap="round" stroke-linejoin="round"/>
<path d="M108.855 293.14C107.965 295.395 123.673 294.981 129.529 289.148C129.529 289.148 145.113 196.192 77.9163 197.164C10.72 198.136 23.3853 294.981 23.3853 294.981C23.3853 294.981 38.9064 299.78 47.1844 295.891C46.7912 294.05 46.4601 292.106 46.1703 290.079C45.3839 284.618 44.8873 278.599 44.5975 272.807C43.8939 258.866 44.3285 246.31 44.3285 246.31C44.3285 246.31 48.2191 235.12 56.6213 235.472C65.0234 235.844 66.8446 258.101 87.6636 255.556C108.483 252.992 112.001 244.966 113.47 243.87C113.47 243.87 115.416 276.468 108.876 293.14H108.855Z" fill="#B85C9F" stroke="#801E68" stroke-width="2" stroke-linecap="round" stroke-linejoin="round"/>
<path d="M54.4069 228.17C54.4069 228.17 68.645 223.785 73.0323 234.003C77.4197 244.221 88.3673 253.343 102.254 248.606" stroke="#801E68" stroke-width="2" stroke-linecap="round" stroke-linejoin="round"/>
<path d="M67.1964 223.806C67.1964 223.806 80.3376 220.889 85.8218 230.383C91.3059 239.878 97.5144 246.435 109.186 243.518" stroke="#801E68" stroke-width="2" stroke-linecap="round" stroke-linejoin="round"/>
<path d="M81.0826 217.952C81.0826 217.952 93.8721 214.312 97.8869 224.881C101.902 235.472 110.304 242.029 120.9 238.016" stroke="#801E68" stroke-width="2" stroke-linecap="round" stroke-linejoin="round"/>
<path d="M32.1392 267.243C32.1392 267.243 31.7667 291.692 31.7667 293.161" stroke="#801E68" stroke-width="2" stroke-linecap="round" stroke-linejoin="round"/>
<path d="M123.073 267.243V289.5" stroke="#801E68" stroke-width="2" stroke-linecap="round" stroke-linejoin="round"/>
<path d="M60.9879 282.57C60.1808 275.517 50.061 277.13 44.9286 278.433C45.2184 282.405 45.6116 286.376 46.1496 290.079C46.2945 291.113 46.4601 292.147 46.6463 293.14C51.3855 292.747 61.8778 290.389 60.9879 282.57Z" fill="#FCE8F3" stroke="#801E68" stroke-width="2" stroke-linecap="round" stroke-linejoin="round"/>
<path d="M111.69 281.557C112.146 278.888 112.539 275.993 112.849 272.869C108.628 272.621 99.7081 273.035 99.7081 281.122C99.7081 287.555 105.358 289.52 109.786 290.099C110.511 287.535 111.152 284.701 111.69 281.577V281.557Z" fill="#FCE8F3" stroke="#801E68" stroke-width="2" stroke-linecap="round" stroke-linejoin="round"/>
<path d="M71.2112 296.077C71.2112 296.077 87.2704 300.09 94.2239 286.955" stroke="#801E68" stroke-width="2" stroke-linecap="round" stroke-linejoin="round"/>
<path d="M75.226 267.595C75.226 267.595 74.1292 286.935 75.9503 286.935C77.7715 286.935 83.98 285.838 83.98 285.838" stroke="#801E68" stroke-width="2" stroke-linecap="round" stroke-linejoin="round"/>
<path d="M62.0847 267.243C62.0847 268.65 60.9465 269.808 59.5186 269.808C58.0906 269.808 56.9524 268.67 56.9524 267.243C56.9524 265.816 58.0906 264.678 59.5186 264.678C60.9465 264.678 62.0847 265.816 62.0847 267.243Z" fill="#4B1844" stroke="#801E68" stroke-width="0.75" stroke-linecap="round" stroke-linejoin="round"/>
<path d="M97.8662 266.871C97.8662 268.277 96.728 269.436 95.3001 269.436C93.8721 269.436 92.7339 268.298 92.7339 266.871C92.7339 265.444 93.8721 264.306 95.3001 264.306C96.728 264.306 97.8662 265.444 97.8662 266.871Z" fill="#4B1844" stroke="#801E68" stroke-width="0.75" stroke-linecap="round" stroke-linejoin="round"/>
</g>
<defs>
<clipPath id="clip0_195_1055">
<rect width="598" height="521" fill="white"/>
</clipPath>
</defs>
</svg>
