<svg width="442" height="544" viewBox="0 0 442 544" fill="none" xmlns="http://www.w3.org/2000/svg">
<path d="M256.516 279.186C227.401 288.659 204.24 305.03 182.863 327.062C181.629 328.373 181.716 330.391 182.937 331.649C246.379 395.27 366.785 344.746 341.594 248.955C322.509 176.231 204.742 160.295 152.496 208.325C127.96 230.823 118.276 266.879 131.652 297.116C146.329 330.192 188.182 345.3 220.796 352.998C282.407 367.569 386.563 362.297 392.641 278.853C398.091 203.853 309.316 143.801 247.59 125.464C213.461 115.264 180.492 122.829 146.81 133.485C127.741 139.512 105.327 148.09 92.5463 164.772C71.798 191.913 105.26 218.264 125.392 230.771C165.383 255.634 214.584 269.273 261.419 275.091C290.746 278.725 339.03 282.895 359.317 254.244C385.744 216.963 326.329 155.844 298.232 143.794C222.516 111.315 121.649 195.085 165.948 273.699C204.23 341.592 331.748 345.952 387.744 296.829C412.726 274.858 454.64 216.022 412.317 192.081C375.174 171.083 316.929 189.155 280.717 205.496C242.77 222.57 198.369 255.938 204.362 302.456C212.047 362.399 283.936 401.385 339.374 392.071C400.965 381.777 472.231 328.104 484.519 263.953C489.708 237.002 477.008 211.381 454.714 196.946C426.625 178.666 394.719 180.993 363.678 192.955C292.262 220.457 227.098 293.536 202.758 365.374C186.288 413.969 207.853 477.949 258.142 494.764C301.734 509.359 351.074 480.857 383.71 452.758C413.385 427.248 449.47 382.713 441.861 341.02C431.859 286.316 356.797 287.582 314.26 290.975C276.468 293.997 236.691 299.237 200.762 312.834C187.358 317.957 170.614 325.959 166.104 340.857C157.29 369.88 209.109 386.737 227.763 392.151C261.94 401.966 309.801 407.029 340.821 383.646C382.631 352.14 347.453 290.505 327.725 259.126C303.739 221.047 257.787 168.519 206.074 192.097C141.297 221.549 95.602 370.833 176.824 402.798C226.777 422.415 303.438 378.234 335.489 340.87C365.019 306.404 330.582 280.533 298.233 272.331C271.367 265.529 231.466 263.123 208.474 283.203C177.675 310.129 231.813 352.188 249.006 365.261C252.213 367.744 256.778 363.008 253.462 360.53C237.43 348.335 196.229 319.536 208.37 293.646C216.656 275.85 246.722 274.588 262.776 274.54C304.328 274.414 370.642 299.545 321.703 346.065C284.971 380.955 189.706 432.892 153.274 374.81C128.108 334.652 144.638 272.883 168.543 234.948C181.109 215.051 200.207 197.328 223.954 193.555C252.984 188.95 278.319 209.154 296.545 228.685C324.496 258.666 388.634 348.543 330.706 382.832C294.629 404.141 239.949 392.764 204.968 377.137C192.757 371.66 173.27 361.911 171.93 346.559C170.249 327.013 205.697 317.481 218.685 313.579C260.472 300.982 306.908 295.56 350.11 296.127C377.691 296.504 412.496 301.209 429.107 325.566C456.624 365.895 408.071 422.781 379.108 448.424C342.447 480.907 281.117 510.809 237.918 476.577C167.891 421.06 219.492 326.386 266.52 273.119C296.602 238.957 334.932 208.368 378.502 194.546C417.072 182.254 464.35 195.158 477.14 236.459C488.317 272.585 458.853 311.202 434.227 334.906C404.172 363.93 363.395 385.007 321.994 387.75C263.302 391.632 182.165 321.026 221.087 259.479C249.147 215.131 314.658 193.899 363.533 190.775C382.353 189.568 408.582 190.715 420.321 207.579C435.36 229.272 409.188 262.061 396.124 278.154C361.057 321.388 302.84 327.654 252.017 318.404C194.622 307.911 141.072 261.672 169.752 198.224C195.319 141.525 280.426 126.594 322.537 167.869C339.293 184.295 359.026 212.559 358.336 237.51C357.271 279.746 282.11 271.453 257.267 268.169C209.767 261.833 159.944 246.855 120.466 219.893C107.932 211.316 92.2131 198.232 92.7053 181.379C93.3021 160.859 123.04 149.391 138.29 143.532C175.301 129.341 212.86 122.012 250.83 133.356C295.218 146.55 336.17 176.835 363.466 213.622C388.92 247.92 399.346 301.84 359.208 332.016C322.36 359.698 263.813 355.65 222.554 346.91C174.501 336.718 125.123 308.714 133.937 252.694C143.397 192.657 220.922 181.665 267.68 192.787C327.921 207.036 367.563 281.372 315.686 331.901C292.355 354.673 255.386 357.932 226.051 350.418C218.595 348.559 211.931 345.08 205.32 341.435C192.703 334.5 188.326 330.593 199.457 319.886C216.286 303.683 236.422 292.745 258.367 285.554C262.331 284.233 260.594 278.079 256.629 279.4L256.516 279.186Z" fill="#3E083F"/>
</svg>
