<svg width="732" height="910" viewBox="0 0 732 910" fill="none" xmlns="http://www.w3.org/2000/svg">
<path d="M23.0654 493.851L54.4026 505.199C54.4026 505.199 52.5878 491.13 54.4026 492.501C56.2174 493.872 105.703 530.615 105.703 530.615L63.9409 511.548L68.478 525.616L23.0865 493.851H23.0654Z" fill="#B85C9F"/>
<path d="M588.295 113.825L569.852 141.561C569.852 141.561 583.948 143.122 582.197 144.578C580.445 146.012 533.007 185.371 533.007 185.371L561.411 149.324L546.66 150.399L588.295 113.825Z" fill="#3E083F"/>
<path d="M68.3512 197.605L101.123 191.551C101.123 191.551 92.4502 180.33 94.6871 180.583C96.945 180.836 158.227 187.543 158.227 187.543L112.54 192.205L123.576 202.055L68.3301 197.605H68.3512Z" fill="#85296C"/>
<path d="M499.074 1L484.302 30.8461C484.302 30.8461 498.483 30.6141 496.942 32.2593C495.381 33.9045 453.345 78.9795 453.345 78.9795L476.937 39.5996L462.44 42.5525L499.074 1Z" fill="#85296C"/>
<path d="M12.5982 523.465L21.5034 532.218L33.7429 529.835L28.1718 540.993L34.2071 551.919L21.8833 550.063L13.3579 559.175L11.3109 546.878L0 541.605L11.0577 535.846L12.5982 523.465Z" fill="#F6A01A"/>
<path d="M492.342 165.396L499.981 172.905L510.49 170.859L505.699 180.435L510.891 189.8L500.297 188.218L492.996 196.044L491.223 185.497L481.537 180.962L491.033 176.027L492.342 165.396Z" fill="#F6A01A"/>
<path d="M114.544 144.409L118.511 152.044L127.037 153.12L121.001 159.237L122.605 167.674L114.924 163.835L107.39 167.969L108.678 159.469L102.41 153.584L110.893 152.192L114.544 144.409Z" fill="#F6A01A"/>
<path d="M532.099 85.012L536.214 90.2641L542.882 89.8633L539.168 95.3896L541.616 101.612L535.201 99.7769L530.031 104.016L529.798 97.3512L524.164 93.7655L530.432 91.4664L532.099 85.012Z" fill="#F6A01A"/>
<path d="M261.438 428.696L265.553 433.948L272.222 433.547L268.508 439.073L270.956 445.296L264.519 443.461L259.37 447.7L259.138 441.035L253.504 437.449L259.771 435.171L261.438 428.696Z" fill="#F6A01A"/>
<path d="M602.94 372.948C602.94 372.948 640.967 341.414 657.005 311.589C673.042 281.785 690.536 257.951 696.741 237.385C702.945 216.82 684.585 208.299 677.326 207.265C670.067 206.231 652.256 200.853 652.256 200.853C652.256 200.853 654.915 181.511 641.916 177.419C628.896 173.327 614.209 182.333 614.209 182.333C614.209 182.333 603.594 179.043 592.199 184.401C580.803 189.758 542.291 202.857 535.222 205.303C528.153 207.75 526.57 211.484 526.57 211.484C526.57 211.484 506.185 208.763 501.332 230.087C501.332 230.087 485.336 223.063 479.132 243.608C472.928 264.152 466.766 305.578 477.844 349.894C488.923 394.209 483.584 396.74 479.87 452.509C476.135 508.278 453.492 697.29 453.492 697.29C453.492 697.29 547.187 715.703 607.16 704.672C607.16 704.672 600.745 404.439 602.961 372.927L602.94 372.948Z" fill="#252B5A"/>
<path d="M623.451 215.175C623.451 215.175 631.09 249.092 671.713 252.825C671.713 252.825 641.789 259.427 629.529 241.794C629.529 241.794 624.021 228.569 623.451 215.175Z" fill="#202346"/>
<path d="M665.34 253.247C665.34 253.247 635.859 270.395 635.881 294.399C635.881 294.399 571.033 293.893 545.625 345.527C545.625 345.527 543.494 307.75 504.201 295.411C504.201 295.411 510.806 278.706 500.635 273.18C500.635 273.18 515.913 277.398 519.015 269.425C519.015 269.425 532.267 291.741 567.171 274.445L620.075 244.873C620.075 244.873 610.6 225.89 622.67 207.476C622.67 207.476 618.155 260.25 665.34 253.226V253.247Z" fill="#202346"/>
<path d="M481.918 376.555C481.918 376.555 498.378 388.219 526.444 384.359C526.444 384.359 504.919 389.927 503.062 428.105L498.462 396.234L467.167 575.184C467.167 575.184 486.602 416.926 481.918 376.555Z" fill="#B85C9F"/>
<path d="M479.131 243.629C485.336 223.085 501.331 230.108 501.331 230.108C506.185 208.784 526.57 211.505 526.57 211.505C526.57 211.505 528.131 207.75 535.222 205.325C542.291 202.878 580.824 189.8 592.199 184.422C603.573 179.043 614.208 182.355 614.208 182.355C614.208 182.355 628.896 173.327 641.916 177.44C654.936 181.532 652.256 200.874 652.256 200.874C652.256 200.874 670.088 206.253 677.326 207.286C684.585 208.32 702.944 216.862 696.74 237.406C695.221 242.469 693.005 247.721 690.304 253.205L689.924 252.867C689.924 252.867 698.787 227.134 675.511 220.195C652.214 213.255 622.523 213.066 622.523 213.066C622.523 213.066 621.953 209.733 622.312 206.063C622.565 206.928 622.67 207.476 622.67 207.476L622.354 205.641C622.945 200.726 625.308 195.411 633.011 196.634L644.891 199.102C644.891 199.102 641.789 180.435 619.252 188.071L622.354 205.662C622.354 205.81 622.333 205.936 622.312 206.084C620.771 200.663 614.187 181.722 598.424 190.349C580.128 200.368 557.253 207.624 557.253 207.624L581.246 207.687C581.246 207.687 595.026 214.331 595.723 234.453C595.723 234.453 586.353 214.479 562.697 215.512C539.02 216.546 518.044 214.458 515.364 232.492L546.448 236.162C546.448 236.162 562.001 237.638 565.525 262.865C565.525 262.865 555.48 244.937 536.973 244.409C518.466 243.882 495.296 242.047 495.296 242.047C495.296 242.047 496.372 257.36 509.287 268.518C509.287 268.518 490.928 257.466 486.749 245.991C486.749 245.991 488.037 272.209 501.015 281.912C501.015 281.912 481.685 275.901 477.506 264.426C477.506 264.426 473.265 316.968 475.797 340.486C467.694 299.777 473.413 262.697 479.174 243.587L479.131 243.629Z" fill="#B85C9F"/>
<path d="M651.454 203.743L634.509 198.744L634.952 198.828C634.34 198.765 633.306 198.807 632.504 198.933C631.66 199.081 630.816 199.292 630.077 199.629C628.558 200.283 627.334 201.338 626.448 202.751C625.519 204.143 625.076 205.957 624.823 207.813C624.591 209.712 624.696 211.631 624.844 213.719C625.562 222.156 626.469 230.572 630.099 237.87C631.892 241.477 634.425 244.704 637.632 247.088C640.819 249.556 644.68 251.074 648.669 252.003C656.751 253.817 665.34 253.078 673.654 251.707C674.161 251.623 674.646 251.96 674.73 252.467C674.815 252.952 674.477 253.437 673.992 253.521C665.572 255.188 656.814 256.305 648.078 254.66C643.752 253.817 639.426 252.298 635.733 249.64C631.998 247.067 628.98 243.481 626.849 239.516C622.544 231.543 621.362 222.599 620.328 214.141C619.864 209.817 619.526 204.797 622.143 200.178C623.409 197.9 625.498 195.98 627.862 194.884C629.043 194.293 630.288 193.934 631.533 193.681C632.821 193.449 633.939 193.323 635.459 193.428C635.564 193.428 635.649 193.428 635.733 193.47L635.881 193.513L652.995 197.921C654.599 198.343 655.548 199.967 655.147 201.57C654.746 203.173 653.1 204.122 651.496 203.721C651.475 203.721 651.433 203.721 651.391 203.7L651.454 203.743Z" fill="#010101"/>
<path d="M501.691 227.134L544.782 232.407H544.571C546.555 232.555 548.053 232.935 549.699 233.42C551.282 233.968 552.864 234.559 554.341 235.403C557.317 237.006 559.976 239.199 562.107 241.815C564.323 244.409 565.737 247.489 566.876 250.547C567.319 252.108 567.91 253.669 568.121 255.272C568.417 256.875 568.712 258.478 568.881 259.87L571.603 277.588C572.405 283.599 573.186 289.737 572.342 296.276C571.878 299.503 570.928 303.005 568.607 305.979C567.467 307.455 566.032 308.721 564.471 309.691C562.888 310.619 561.2 311.273 559.512 311.716C556.388 312.412 553.286 313.002 550.079 313.108C548.496 313.256 546.892 313.129 545.288 313.15C543.685 312.96 542.081 312.939 540.477 312.581C537.27 312.117 534.125 311.02 531.129 309.585C528.132 308.109 525.452 305.936 523.152 303.448C518.72 298.195 516.779 291.361 516.652 284.97L518.72 287.733C515.597 286.405 513.065 284.886 510.49 283.114C507.958 281.364 505.595 279.381 503.442 277.208C501.269 275.057 499.327 272.694 497.66 270.163C495.93 267.674 494.621 264.932 493.419 262.211C493.25 261.811 493.419 261.347 493.82 261.178C494.178 261.009 494.6 261.178 494.811 261.494V261.536C496.31 264.025 497.871 266.43 499.792 268.56C501.627 270.733 503.717 272.673 505.953 274.403C508.169 276.133 510.554 277.672 513.023 278.959C515.45 280.246 518.172 281.385 520.577 282.06L520.662 282.081C521.865 282.502 522.603 283.62 522.646 284.823C522.772 290.328 524.397 295.601 527.689 299.545C529.44 301.423 531.445 303.089 533.83 304.249C536.214 305.367 538.768 306.295 541.49 306.696C546.871 307.687 552.611 307.181 558.034 305.915C559.237 305.599 560.377 305.156 561.369 304.565C562.339 303.954 563.162 303.215 563.859 302.33C565.273 300.558 566.032 298.09 566.412 295.453C567.13 290.117 566.454 284.232 565.673 278.432L562.951 260.714C562.761 259.153 562.508 257.824 562.255 256.474C562.086 255.082 561.559 253.838 561.221 252.53C560.271 250.041 559.153 247.573 557.444 245.611C555.798 243.608 553.772 241.92 551.493 240.697C550.353 240.043 549.129 239.579 547.905 239.157C546.702 238.799 545.267 238.482 544.276 238.398H544.065L500.973 233.125C499.327 232.914 498.167 231.437 498.378 229.792C498.589 228.147 500.066 226.987 501.712 227.198L501.691 227.134Z" fill="#010101"/>
<path d="M520.809 264.173C520.725 267.864 520.999 271.45 521.738 274.804C522.519 278.157 523.701 281.279 525.431 284.169C527.246 286.995 529.377 289.653 531.973 292.057C533.218 293.302 534.695 294.335 536.045 295.58C537.502 296.677 539.021 297.731 540.477 298.997L540.54 299.06C540.878 299.356 540.899 299.841 540.625 300.178C540.435 300.41 540.118 300.495 539.844 300.431C537.945 300.009 536.067 299.419 534.188 298.765C532.437 297.879 530.559 297.141 528.913 295.96C528.09 295.369 527.246 294.821 526.444 294.188C525.621 293.597 524.946 292.796 524.186 292.1C522.645 290.729 521.485 288.957 520.303 287.269C518.108 283.705 516.842 279.55 516.695 275.436C516.505 271.323 517.328 267.231 519.374 263.709C519.586 263.35 520.05 263.224 520.409 263.435C520.662 263.582 520.788 263.836 520.788 264.089V264.194L520.809 264.173Z" fill="#010101"/>
<path d="M526.57 211.505C526.57 211.505 559.997 205.852 572.426 206.442C584.855 207.033 592.663 209.67 595.723 234.453C598.783 259.216 598.087 273.623 598.087 273.623C598.087 273.623 592.136 297.647 570.02 292.332" stroke="#010101" stroke-width="2.83" stroke-linecap="round" stroke-linejoin="round"/>
<path d="M614.209 182.355C614.209 182.355 623.325 184.548 623.346 201.802" stroke="#010101" stroke-width="2.83" stroke-linecap="round" stroke-linejoin="round"/>
<path d="M598.234 273.939C599.543 274.34 600.83 274.825 602.138 275.162L604.122 275.521L605.114 275.711H606.084C608.722 275.985 611.276 275.352 613.576 274.297C615.876 273.201 617.902 271.45 619.527 269.32C621.13 267.231 622.46 264.637 623.241 262.232L623.177 262.718L624.211 234.179C624.254 233.167 625.098 232.386 626.111 232.407C627.124 232.45 627.904 233.272 627.883 234.285L627.314 262.844V262.886C627.314 263.034 627.292 263.182 627.25 263.329C626.28 266.535 624.866 269.277 622.966 271.914C621.067 274.487 618.556 276.786 615.581 278.284C612.605 279.739 609.208 280.562 605.958 280.309H604.734L603.552 280.098L601.168 279.718C599.627 279.339 598.129 278.832 596.609 278.368C595.364 277.989 594.668 276.702 595.027 275.458C595.407 274.213 596.694 273.517 597.939 273.876L598.277 273.981L598.234 273.939Z" fill="#010101"/>
<path d="M512.664 283.093L512.6 290.454C512.6 290.454 499.031 295.749 486.687 287.797C486.687 287.797 543.537 312.897 545.647 345.548C545.647 345.548 560.06 293.302 624.887 281.996C624.887 281.996 628.305 257.824 659.368 253.943C659.368 253.943 647.952 255.947 638.603 250.104C638.603 250.104 637.569 254.027 625.857 256.01C625.857 256.01 629.318 278.263 601.611 277.482C601.611 277.482 598.952 273.96 596.441 278.938C593.929 283.916 588.358 293.829 575.106 292.627C575.106 292.627 569.556 290.37 568.627 297.984C567.699 305.578 552.969 317.326 528.659 304.544C528.659 304.544 522.919 305.958 520.767 286.046L512.706 283.114L512.664 283.093Z" fill="#010101"/>
<path d="M593.676 387.08C593.676 387.08 589.097 452.362 589.033 453.796C588.97 455.23 585.805 379.55 585.805 379.55C560.862 376.913 559.258 365.755 559.258 365.755C635.712 354.407 676.799 274.762 676.799 274.762L676.862 277.335C670.616 287.86 663.694 299.208 657.026 311.61C640.988 341.414 602.961 372.969 602.961 372.969C600.745 404.481 607.16 704.714 607.16 704.714C595.765 706.802 583.167 707.836 570.231 708.131C586.881 595.117 593.676 387.08 593.676 387.08Z" fill="#010101"/>
<path d="M474.046 335.508C474.046 335.508 483.943 382.882 526.929 374.909C526.929 374.909 504.581 385.287 481.115 366.979L474.046 335.508Z" fill="#010101"/>
<path d="M653.987 201.528C653.987 201.528 664.454 207.476 661.394 226.248C661.394 226.248 639.511 225.194 634.362 212.77C629.234 200.347 632.99 196.655 632.99 196.655L653.966 201.528H653.987Z" stroke="#010101" stroke-width="2.83" stroke-linecap="round" stroke-linejoin="round"/>
<path d="M602.94 372.948C602.94 372.948 640.967 341.414 657.005 311.589C673.042 281.785 690.536 257.951 696.741 237.385C702.945 216.82 684.585 208.299 677.326 207.265C670.067 206.231 652.256 200.853 652.256 200.853C652.256 200.853 654.915 181.511 641.916 177.419C628.896 173.327 614.209 182.333 614.209 182.333C614.209 182.333 603.594 179.043 592.199 184.401C580.803 189.758 542.291 202.857 535.222 205.303C528.153 207.75 526.57 211.484 526.57 211.484C526.57 211.484 506.185 208.763 501.332 230.087C501.332 230.087 485.336 223.063 479.132 243.608C472.928 264.152 466.766 305.578 477.844 349.894C488.923 394.209 483.584 396.74 479.87 452.509C476.135 508.278 453.492 697.29 453.492 697.29C453.492 697.29 547.187 715.703 607.16 704.672C607.16 704.672 600.745 404.439 602.961 372.927L602.94 372.948Z" stroke="#010101" stroke-width="2.83" stroke-linecap="round" stroke-linejoin="round"/>
<path d="M220.12 453.944C220.12 453.944 240.864 409.122 242.531 375.31C244.177 341.499 249.706 312.454 246.456 291.235C243.206 270.016 222.969 270.205 215.963 272.378C208.978 274.551 190.556 277.356 190.556 277.356C190.556 277.356 184.647 258.752 171.12 260.65C157.615 262.549 148.224 277.018 148.224 277.018C148.224 277.018 137.23 278.621 129.253 288.345C121.276 298.09 92.1338 326.46 86.7949 331.712C81.4559 336.964 81.6458 341.013 81.6458 341.013C81.6458 341.013 62.0838 347.32 66.8741 368.645C66.8741 368.645 49.4013 369.193 52.651 390.412C55.9008 411.632 68.1614 451.666 97.2406 486.911C126.32 522.157 122.585 526.734 143.223 578.685C163.861 630.637 224.763 811 224.763 811C224.763 811 317.255 787.334 366.677 751.582C366.677 751.582 231.663 483.305 220.099 453.901L220.12 453.944Z" fill="#F8F7F7"/>
<path d="M170.74 302.667C170.74 302.667 192.244 330.003 230.502 315.892C230.502 315.892 206.34 334.728 187.686 324.076C187.686 324.076 177.029 314.5 170.74 302.667Z" fill="#D1D3D4"/>
<path d="M224.931 319.035C224.931 319.035 205.707 347.194 216.047 368.856C216.047 368.856 157.298 396.276 156.58 453.838C156.58 453.838 138.39 420.659 97.6201 426.397C97.6201 426.397 96.3962 408.468 84.832 407.877C84.832 407.877 100.448 405.114 99.7937 396.572C99.7937 396.572 121.36 411.02 145.417 380.393L180.447 330.952C180.447 330.952 163.713 317.896 166.71 296.086C166.71 296.086 185.364 345.675 224.931 319.035Z" fill="#D1D3D4"/>
<path d="M112.413 509.206C112.413 509.206 132.292 512.644 155.969 497.12C155.969 497.12 138.939 511.421 153.711 546.667L135.837 519.879L184.605 694.864C184.605 694.864 134.022 543.651 112.434 509.206H112.413Z" fill="#B85C9F"/>
<path d="M52.693 390.433C49.4432 369.214 66.9161 368.666 66.9161 368.666C62.1258 347.341 81.6878 341.034 81.6878 341.034C81.6878 341.034 81.4979 336.985 86.8368 331.733C92.1758 326.481 121.318 298.111 129.295 288.366C137.272 278.621 148.266 277.039 148.266 277.039C148.266 277.039 157.636 262.57 171.162 260.671C184.689 258.773 190.598 277.377 190.598 277.377C190.598 277.377 208.999 274.572 216.005 272.399C223.011 270.226 243.248 270.016 246.498 291.256C247.3 296.487 247.553 302.182 247.49 308.299L247.005 308.151C247.005 308.151 243.945 281.11 219.93 284.865C195.916 288.619 169.031 301.212 169.031 301.212C169.031 301.212 167.09 298.448 165.823 294.968C166.414 295.643 166.752 296.086 166.752 296.086L165.676 294.567C164.093 289.885 163.924 284.063 171.416 281.849L183.212 278.959C183.212 278.959 172.365 263.435 155.314 280.013L165.697 294.567C165.739 294.694 165.781 294.842 165.845 294.968C162.13 290.729 148.013 276.47 137.504 291.024C125.307 307.94 107.771 324.329 107.771 324.329L129.443 314.078C129.443 314.078 144.742 314.162 154.027 332.007C154.027 332.007 136.976 318.001 116.064 329.117C95.1512 340.233 75.2938 347.362 80.6327 364.806L110.282 354.766C110.282 354.766 124.969 349.408 139.002 370.67C139.002 370.67 122.226 358.816 105.28 366.303C88.3351 373.791 66.6207 382.081 66.6207 382.081C66.6207 382.081 74.1754 395.432 90.6353 399.946C90.6353 399.946 69.3007 397.858 60.5854 389.316C60.5854 389.316 73.0358 412.433 88.926 415.618C88.926 415.618 68.8786 418.508 60.1844 409.944C60.1844 409.944 78.9656 459.196 91.3739 479.339C66.5363 446.076 55.7529 410.134 52.7352 390.412L52.693 390.433Z" fill="#B85C9F"/>
<path d="M191.084 280.33L173.632 283.093L174.054 282.988C165.824 286.236 167.301 294.504 171.353 300.769C175.636 308.067 180.068 315.302 186.483 320.322C200.411 331.775 218.96 323.401 231.79 314.078C232.719 313.34 233.879 314.88 232.888 315.576C205.475 336.5 184.943 333.083 167.512 303.11C161.308 294.42 160.823 282.481 172.534 277.82L172.682 277.799L190.028 274.424C193.975 273.749 195.009 279.613 191.062 280.309L191.084 280.33Z" fill="#252B5A"/>
<path d="M65.9671 365.818L107.138 352.066C112.561 349.978 120.876 350.083 126.827 353.1C132.82 355.863 137.293 361.094 140.712 366.472L150.799 381.3C157.531 391.172 166.964 407.498 154.576 417.285C138.412 430.868 114.756 432.703 104.374 411.547L107.433 413.15C95.0463 413.509 82.7646 409.269 73.6273 400.98C72.8887 400.347 73.8383 399.166 74.6191 399.778C83.7565 406.253 95.7216 408.911 106.674 407.223C107.961 407.055 109.185 407.73 109.734 408.826C113.384 416.209 119.989 421.503 128.219 421.566C137.441 421.503 147.127 417.031 153.226 410.029C157.932 401.718 150.293 391.973 145.861 384.591L135.774 369.763C130.477 360.377 120.074 353.775 109.29 357.656C109.122 357.677 68.1195 371.45 67.9085 371.492C64.1945 372.695 62.2741 367.126 66.0093 365.818H65.9671Z" fill="#252B5A"/>
<path d="M99.1605 391.045C105.428 405.958 116.76 411.358 131.933 414.015C132.397 414.1 132.713 414.564 132.566 415.028C132.481 415.323 132.249 415.534 131.975 415.597C130.076 416.019 128.134 416.314 126.151 416.504C115.958 417.116 105.048 412.349 100.3 402.963C98.3586 399.335 97.3457 395.285 97.6833 391.214C97.7466 390.413 98.9283 390.286 99.1605 391.045Z" fill="#252B5A"/>
<path d="M81.6885 341.035C81.6885 341.035 109.438 321.545 120.918 316.736C132.398 311.927 140.586 310.956 154.007 332.007C167.428 353.057 172.999 366.346 172.999 366.346C172.999 366.346 177.705 390.286 155.463 394.99" stroke="#252B5A" stroke-width="2.83" stroke-linecap="round" stroke-linejoin="round"/>
<path d="M148.245 277.018C148.245 277.018 157.425 275.078 164.874 290.644" stroke="#252B5A" stroke-width="2.83" stroke-linecap="round" stroke-linejoin="round"/>
<path d="M173.252 366.578C185.829 365.903 192.392 357.571 190.978 345.211L191.104 345.633L179.92 319.351C179.182 317.664 181.777 316.462 182.579 318.17L194.502 344.135C195.262 347.489 195.051 350.779 194.502 354.07C192.624 364.743 183.93 370.374 173.61 371.26C170.297 371.661 169.918 366.747 173.252 366.578Z" fill="#252B5A"/>
<path d="M99.9626 411.632L103.065 418.297C103.065 418.297 93.1043 428.907 78.5225 427.05C78.5225 427.05 140.648 425.258 156.602 453.838C156.602 453.838 147.127 400.495 200.769 362.401C200.769 362.401 193.468 339.094 219.825 322.241C219.825 322.241 210.371 328.949 199.419 327.725C199.419 327.725 200.157 331.712 190.45 338.525C190.45 338.525 203.154 357.107 177.81 368.35C177.81 368.35 173.885 366.304 173.779 371.872C173.652 377.44 172.893 388.788 160.421 393.408C160.421 393.408 154.428 393.766 156.876 401.022C159.324 408.278 151.073 425.215 123.64 424.14C123.64 424.14 119.081 427.894 108.551 410.83L100.005 411.653L99.9626 411.632Z" fill="#252B5A"/>
<path d="M217.842 470.67C217.842 470.67 241.814 531.565 242.363 532.893C242.911 534.222 207.48 467.253 207.48 467.253C183.824 475.606 177.578 466.198 177.578 466.198C241.709 423.064 244.515 333.526 244.515 333.526L245.676 335.825C244.557 348.016 243.207 361.241 242.51 375.289C240.864 409.101 220.1 453.922 220.1 453.922C231.664 483.326 366.677 751.603 366.677 751.603C357.308 758.395 346.377 764.744 334.813 770.565C301.196 661.39 217.799 470.649 217.799 470.649L217.842 470.67Z" fill="#252B5A"/>
<path d="M87.6393 475.564C87.6393 475.564 116.951 514.058 152.339 488.388C152.339 488.388 136.639 507.371 107.56 500.938L87.6182 475.564H87.6393Z" fill="#252B5A"/>
<path d="M192.413 277.229C192.413 277.229 204.421 278.094 209.738 296.36C209.738 296.36 189.522 304.818 179.541 295.812C169.559 286.805 171.353 281.849 171.353 281.849L192.392 277.229H192.413Z" stroke="#252B5A" stroke-width="2.83" stroke-miterlimit="10"/>
<path d="M220.12 453.944C220.12 453.944 240.864 409.122 242.531 375.31C244.177 341.499 249.706 312.454 246.456 291.235C243.206 270.016 222.969 270.205 215.963 272.378C208.978 274.551 190.556 277.356 190.556 277.356C190.556 277.356 184.647 258.752 171.12 260.65C157.615 262.549 148.224 277.018 148.224 277.018C148.224 277.018 137.23 278.621 129.253 288.345C121.276 298.09 92.1338 326.46 86.7949 331.712C81.4559 336.964 81.6458 341.013 81.6458 341.013C81.6458 341.013 62.0838 347.32 66.8741 368.645C66.8741 368.645 49.4013 369.193 52.651 390.412C55.9008 411.632 68.1614 451.666 97.2406 486.911C126.32 522.157 122.585 526.734 143.223 578.685C163.861 630.637 224.763 811 224.763 811C224.763 811 317.255 787.334 366.677 751.582C366.677 751.582 231.663 483.305 220.099 453.901L220.12 453.944Z" stroke="#252B5A" stroke-width="2.83" stroke-linecap="round" stroke-linejoin="round"/>
<path d="M276.907 281.722C276.907 281.722 219.593 240.022 193.911 198.785C168.23 157.549 141.029 125.024 130.266 96.1486C119.504 67.2728 145.038 53.3938 155.315 51.2424C165.613 49.0909 190.64 39.768 190.64 39.768C190.64 39.768 185.069 12.3264 203.323 5.28148C221.577 -1.76346 243.439 9.8164 243.439 9.8164C243.439 9.8164 258.337 4.14248 275.135 10.7867C291.932 17.4309 348.276 32.6808 358.637 35.5283C368.978 38.3759 371.573 43.6068 371.573 43.6068C371.573 43.6068 400.505 37.8696 409.389 67.9478C409.389 67.9478 431.673 56.4312 442.414 85.307C453.176 114.183 465.754 172.905 453.936 237.385C442.098 301.865 449.969 304.987 460.393 384.506C470.797 464.026 520.451 732.619 520.451 732.619C520.451 732.619 387.97 767.485 301.07 757.171C301.07 757.171 282.943 326.691 276.907 281.743V281.722Z" fill="#B85C9F"/>
<path d="M233.183 57.6759C233.183 57.6759 225.311 106.927 167.512 115.955C167.512 115.955 210.962 122.705 226.894 96.3387C226.894 96.3387 233.562 76.9124 233.183 57.6759Z" fill="#801E68"/>
<path d="M176.649 115.997C176.649 115.997 220.416 137.891 222.59 172.23C222.59 172.23 315.398 165.607 356.485 237.259C356.485 237.259 356.105 182.966 411.225 161.726C411.225 161.726 400.23 138.398 414.327 129.581C414.327 129.581 392.823 137.005 387.674 125.868C387.674 125.868 370.729 159.005 319.197 137.448L240.738 99.9034C240.738 99.9034 252.576 71.8502 233.605 46.6023C233.605 46.6023 244.853 121.755 176.671 115.997H176.649Z" fill="#801E68"/>
<path d="M450.518 275.879C450.518 275.879 428.022 294.061 387.484 291.108C387.484 291.108 418.822 297.141 424.92 351.623L428.613 305.578L489.705 558.964C489.705 558.964 447.479 334.137 450.496 275.879H450.518Z" fill="#F8F7F7"/>
<path d="M442.435 85.2862C431.673 56.4104 409.41 67.9269 409.41 67.9269C400.526 37.8488 371.594 43.586 371.594 43.586C371.594 43.586 368.999 38.355 358.658 35.5075C348.318 32.66 291.953 17.41 275.156 10.7659C258.358 4.12167 243.46 9.79559 243.46 9.79559C243.46 9.79559 221.598 -1.78428 203.344 5.26067C185.09 12.3056 190.661 39.7472 190.661 39.7472C190.661 39.7472 165.634 49.0701 155.336 51.2216C145.038 53.373 119.525 67.252 130.287 96.1278C132.925 103.236 136.576 110.555 140.944 118.17L141.45 117.642C141.45 117.642 126.404 81.595 159.134 69.5511C191.864 57.5072 234.344 54.5331 234.344 54.5331C234.344 54.5331 234.871 49.724 234.006 44.493C233.732 45.7586 233.605 46.539 233.605 46.539L233.9 43.8813C232.613 36.8997 228.751 29.4961 217.841 31.9429L201.044 36.5411C201.044 36.5411 203.787 9.52139 236.749 18.4014L233.9 43.8602C233.943 44.0501 233.964 44.261 234.006 44.4508C235.694 36.5411 243.439 8.82533 266.778 19.7302C293.874 32.4069 327.3 40.7174 327.3 40.7174L292.966 42.9954C292.966 42.9954 273.847 53.7738 274.649 82.6285C274.649 82.6285 286.235 53.1832 320.231 52.5082C354.227 51.8543 384.087 46.9397 389.552 72.5251L345.385 80.6036C345.385 80.6036 323.248 84.1261 320.505 120.574C320.505 120.574 333.251 93.9975 359.714 91.5718C386.176 89.1251 419.18 84.4003 419.18 84.4003C419.18 84.4003 419.033 106.421 401.56 123.569C401.56 123.569 426.862 106.062 431.778 89.2727C431.778 89.2727 432.327 126.923 414.622 142.004C414.622 142.004 441.76 131.627 446.698 114.837C446.698 114.837 457.545 189.674 456.067 223.591C463.96 164.573 452.396 111.968 442.393 85.1596L442.435 85.2862Z" fill="#F8F7F7"/>
<path d="M189.669 36.9629L213.726 28.9688C213.853 28.9477 214.022 28.8634 214.148 28.8634C231.368 27.3447 237.804 40.7807 236.538 55.9463C235.842 81.7005 230.165 108.847 201.297 115.934C189.079 119.098 176.48 118.381 164.304 116.82C163.798 116.756 163.439 116.292 163.502 115.786C163.566 115.28 164.03 114.921 164.536 114.985C211.51 120.131 232.402 103.806 232.022 55.7776C232.676 42.89 228.181 33.2295 215.457 34.0522L191.611 42.6369C187.855 43.9235 185.892 38.3129 189.648 36.984L189.669 36.9629Z" fill="#252B5A"/>
<path d="M409.958 70.8799C407.7 71.4916 342.789 82.966 343.063 83.8941C329.136 89.0196 322.932 103.173 322.636 117.263C322.066 133.863 314.849 164.911 325.401 177.904C332.174 185.645 349.837 184.569 359.122 182.523C375.92 179.022 386.197 165.396 385.142 148.163C385.078 146.898 385.838 145.78 386.935 145.295C398.099 140.886 408.439 132.934 415.55 123.148C418.083 119.857 420.024 116.166 421.839 112.411C422.219 111.547 423.654 112.137 423.274 113.023C421.754 116.988 420.066 120.975 417.766 124.603C410.929 135.824 401.074 144.852 389.214 150.779L391.093 147.889C391.494 156.875 389.362 166.472 383.728 174.107C375.118 185.265 360.684 189.864 347.073 189.885C331.14 190.18 318.141 186.215 314.955 168.855C311.895 151.201 315.588 134.137 316.643 116.778C317.149 107.834 319.028 98.4269 324.472 90.9812C330.022 83.2824 338.379 77.946 347.811 76.4273C346.672 76.5117 409.072 65.0373 408.798 64.9951C412.659 64.3623 413.778 70.0573 409.895 70.8799H409.958Z" fill="#252B5A"/>
<path d="M386.282 117.79C398.226 140.401 383.159 164.363 360.452 171.829C359.65 172.146 358.996 171.028 359.672 170.501C361.782 168.708 363.955 167.126 366.066 165.502C381.175 153.394 388.371 137.849 384.91 118.359C384.657 117.558 385.881 117.031 386.282 117.79Z" fill="#252B5A"/>
<path d="M371.573 43.6071C371.573 43.6071 323.185 38.5449 305.438 40.5276C287.691 42.5103 276.76 47.003 274.649 82.7551C272.518 118.507 274.839 139.072 274.839 139.072C274.839 139.072 286.699 172.04 317.888 162.422" stroke="#252B5A" stroke-width="2.83" stroke-linecap="round" stroke-linejoin="round"/>
<path d="M243.438 9.83777C243.438 9.83777 230.566 13.8032 232.127 38.5238" stroke="#252B5A" stroke-width="2.83" stroke-linecap="round" stroke-linejoin="round"/>
<path d="M277.034 144.725C274.059 145.949 270.703 147.299 267.517 147.91L265.871 148.311L264.162 148.459C259.835 148.986 256.29 148.543 252.133 147.341C247.216 145.527 242.764 142.447 239.451 138.524C236.391 134.812 233.753 130.91 232.318 126.206L228.287 85.4339C228.118 83.7886 229.321 82.3332 230.967 82.1645C232.634 81.9957 234.112 83.2191 234.238 84.8854L237.699 125.721L237.572 125.109C238.839 128.568 240.97 132.196 243.439 135.128C246.562 138.819 250.55 141.73 255.172 142.954C257.81 143.776 260.933 143.924 263.697 143.628C264.795 143.586 265.491 143.481 266.588 143.207C269.585 142.7 272.624 141.414 275.451 140.359C278.321 139.368 279.904 143.607 277.076 144.746L277.034 144.725Z" fill="#252B5A"/>
<path d="M397.993 144.873L398.774 155.398C398.774 155.398 418.674 161.747 435.661 149.239C435.661 149.239 356.548 190.328 356.506 237.28C356.506 237.28 331.12 163.793 237.277 153.479C237.277 153.479 230.165 119.161 185.344 116.44C185.344 116.44 201.888 118.254 214.74 109.079C214.74 109.079 216.575 114.584 233.521 116.356C233.521 116.356 230.587 148.522 270.197 144.915C270.197 144.915 273.679 139.621 277.73 146.518C281.761 153.415 290.645 167.105 309.511 164.194C309.511 164.194 317.255 160.46 319.281 171.26C321.307 182.059 343.465 197.541 377.102 177.039C377.102 177.039 385.437 178.558 386.725 149.851L398.015 144.915L397.993 144.873Z" fill="#252B5A"/>
<path d="M291.468 301.106C291.468 301.106 303.961 394.167 304.193 396.213C304.425 398.259 302.061 289.611 302.061 289.611C337.535 283.578 338.822 267.421 338.822 267.421C228.308 258.098 162.236 147.805 162.236 147.805L162.384 151.517C172.302 166.008 183.233 181.659 193.911 198.786C219.593 240.022 276.907 281.722 276.907 281.722C282.943 326.649 301.07 757.15 301.07 757.15C317.572 759.112 335.699 759.428 354.248 758.69C320.125 598.386 291.447 301.106 291.447 301.106H291.468Z" fill="#252B5A"/>
<path d="M458.072 216.398C458.072 216.398 448.217 285.118 385.923 277.63C385.923 277.63 418.864 290.454 450.792 262.106L458.072 216.377V216.398Z" fill="#252B5A"/>
<path d="M188.214 40.9283C188.214 40.9283 173.759 50.3989 179.857 76.9968C179.857 76.9968 211.11 73.4954 217.335 55.2291C223.561 36.9629 217.842 32.0272 217.842 32.0272L188.235 40.9283H188.214Z" stroke="#252B5A" stroke-width="2.83" stroke-miterlimit="10"/>
<path d="M276.907 281.722C276.907 281.722 219.593 240.022 193.911 198.785C168.23 157.549 141.029 125.024 130.266 96.1486C119.504 67.2728 145.038 53.3938 155.315 51.2424C165.613 49.0909 190.64 39.768 190.64 39.768C190.64 39.768 185.069 12.3264 203.323 5.28148C221.577 -1.76346 243.439 9.8164 243.439 9.8164C243.439 9.8164 258.337 4.14248 275.135 10.7867C291.932 17.4308 348.276 32.6808 358.637 35.5283C368.978 38.3759 371.573 43.6068 371.573 43.6068C371.573 43.6068 400.505 37.8696 409.389 67.9478C409.389 67.9478 431.673 56.4312 442.414 85.307C453.176 114.183 465.754 172.905 453.936 237.385C442.098 301.865 449.969 304.987 460.393 384.506C470.797 464.026 520.451 732.619 520.451 732.619C520.451 732.619 387.97 767.485 301.07 757.171C301.07 757.171 282.943 326.691 276.907 281.743V281.722Z" stroke="#252B5A" stroke-width="2.83" stroke-linecap="round" stroke-linejoin="round"/>
</svg>
