<svg width="158" height="40" viewBox="0 0 158 40" fill="none" xmlns="http://www.w3.org/2000/svg">
<path d="M11.079 17.2774C11.079 14.4601 11.0713 11.6413 11.0806 8.82409C11.0914 5.64072 12.3604 3.09341 15.0495 1.39003C17.8204 -0.364551 20.7624 -0.459183 23.6104 1.11699C26.3951 2.65903 27.9108 5.12412 27.9663 8.37885C28.0064 10.6795 27.9925 12.9802 27.9787 15.2808C27.9632 17.8173 26.19 19.8806 23.746 20.2405C21.2327 20.6112 18.8412 19.0878 18.1442 16.6708C17.4503 14.26 18.6376 11.6057 20.9444 10.6252C21.6305 10.3336 22.4292 10.2451 23.1848 10.2017C24.5987 10.1195 24.5941 10.1614 24.5972 8.70929C24.6018 7.09279 24.056 5.71984 22.8132 4.67578C21.1941 3.3168 19.3608 3.11202 17.475 3.94199C15.6571 4.74404 14.5746 6.24575 14.5407 8.23768C14.459 13.1477 14.5129 18.0608 14.5006 22.9724C14.5006 23.4905 14.6779 23.7093 15.2191 23.7093C20.178 23.6984 25.1384 23.7388 30.0973 23.6922C32.2544 23.6721 34.3314 21.6227 34.6275 19.4027C34.9467 17.0028 33.4957 14.5315 31.3031 13.9141C30.5506 13.7015 30.2977 13.3494 30.3656 12.6125C30.4118 12.1005 30.3872 11.5793 30.3656 11.0627C30.3378 10.4111 30.5969 10.1645 31.246 10.318C34.3546 11.0518 36.5904 12.8514 37.6019 15.9184C39.1978 20.7571 36.5457 25.5864 31.6454 26.9097C30.9345 27.1021 30.1728 27.1766 29.4327 27.1797C23.6767 27.2014 17.9206 27.1936 12.1646 27.189C11.076 27.189 11.0605 27.1595 11.0605 26.0425C11.0605 23.1213 11.0605 20.2001 11.0605 17.2789C11.0667 17.2789 11.0729 17.2789 11.0775 17.2789L11.079 17.2774ZM24.6003 14.7983C24.5992 14.0082 24.205 13.6085 23.4176 13.5991C23.1632 13.596 22.9026 13.5883 22.6559 13.6395C21.8464 13.8086 21.3129 14.5005 21.3437 15.3041C21.3745 16.1015 21.8942 16.7034 22.6883 16.8616C23.8309 17.0881 24.6034 16.2551 24.6003 14.7983Z" fill="#FCE8F3"/>
<path d="M41.7021 13.1082H44.6021V14.8072C44.9149 14.1378 45.3334 13.6293 45.8534 13.2819C46.3734 12.9345 46.9441 12.7608 47.5613 12.7608C48.0009 12.7608 48.4575 12.8752 48.9351 13.1082L47.8825 16.0231C47.4852 15.824 47.1597 15.7266 46.906 15.7266C46.3861 15.7266 45.9464 16.0486 45.5871 16.6968C45.2278 17.345 45.0502 18.6076 45.0502 20.493L45.0629 21.1497V26.6109H41.7064V13.104L41.7021 13.1082Z" fill="#FCE8F3"/>
<path d="M59.5625 13.1082H62.9444V26.6151H59.5625V25.1873C58.903 25.8144 58.2394 26.2677 57.5757 26.5473C56.912 26.827 56.1933 26.9626 55.4155 26.9626C53.6738 26.9626 52.1689 26.2847 50.9007 24.9331C49.6325 23.5816 48.9941 21.8996 48.9941 19.8871C48.9941 17.8746 49.6071 16.0952 50.8373 14.7606C52.0674 13.4302 53.5597 12.7608 55.314 12.7608C56.1215 12.7608 56.8824 12.9133 57.5883 13.2184C58.2985 13.5234 58.9538 13.9852 59.5541 14.5953V13.104L59.5625 13.1082ZM56.0073 15.8876C54.9632 15.8876 54.0923 16.2562 53.4033 16.9976C52.71 17.739 52.3676 18.6881 52.3676 19.8447C52.3676 21.0014 52.7184 21.9716 53.4244 22.7258C54.1304 23.4799 54.9928 23.857 56.0242 23.857C57.0557 23.857 57.9646 23.4884 58.6663 22.7469C59.3681 22.0055 59.7147 21.0353 59.7147 19.8363C59.7147 18.6372 59.3638 17.7094 58.6663 16.9807C57.9688 16.2519 57.0811 15.8876 56.0115 15.8876H56.0073Z" fill="#FCE8F3"/>
<path d="M63.9297 13.1082H67.375L70.778 21.0776L74.1768 13.1082H77.6052L71.8729 26.6151H69.6789L63.9339 13.1082H63.9297Z" fill="#FCE8F3"/>
<path d="M92.0881 20.8404H81.228C81.3844 21.8021 81.8029 22.5647 82.4835 23.1325C83.1641 23.7002 84.035 23.9841 85.0918 23.9841C86.3558 23.9841 87.4422 23.5434 88.3511 22.6579L91.2003 23.9968C90.4901 25.0051 89.6404 25.7551 88.647 26.238C87.6536 26.721 86.4784 26.9625 85.1172 26.9625C83.0035 26.9625 81.283 26.2931 79.9514 24.9585C78.6197 23.6239 77.9561 21.9504 77.9561 19.9379C77.9561 17.9254 78.6197 16.1672 79.9429 14.8071C81.2661 13.4471 82.9274 12.765 84.927 12.765C87.0491 12.765 88.7738 13.4471 90.1055 14.8071C91.4328 16.1672 92.1008 17.9678 92.1008 20.2006L92.0881 20.8446V20.8404ZM88.7062 18.1712C88.4822 17.417 88.0425 16.8069 87.383 16.3324C86.7236 15.8621 85.9627 15.6249 85.096 15.6249C84.1533 15.6249 83.3248 15.8918 82.6146 16.4214C82.1665 16.7518 81.7564 17.3365 81.376 18.1712H88.7062Z" fill="#FCE8F3"/>
<path d="M92.8275 8.35449H96.3911L100.974 21.3276L105.624 8.35449H109.183L102.618 26.6151H99.2742L92.8232 8.35449H92.8275Z" fill="#FCE8F3"/>
<path d="M111.927 7.5495C112.519 7.5495 113.026 7.76557 113.453 8.19349C113.876 8.62564 114.087 9.14677 114.087 9.75687C114.087 10.367 113.876 10.8754 113.457 11.3033C113.039 11.7312 112.536 11.9431 111.952 11.9431C111.369 11.9431 110.84 11.727 110.413 11.2906C109.986 10.8542 109.779 10.3288 109.779 9.70603C109.779 9.08322 109.991 8.60022 110.409 8.18078C110.828 7.7571 111.335 7.5495 111.927 7.5495ZM110.236 13.1082H113.618V26.6151H110.236V13.1082Z" fill="#FCE8F3"/>
<path d="M122.026 12.7608C123.298 12.7608 124.49 13.0786 125.61 13.7183C126.731 14.3538 127.601 15.2181 128.231 16.3112C128.857 17.4043 129.174 18.5822 129.174 19.849C129.174 21.1158 128.857 22.3148 128.227 23.4248C127.597 24.5349 126.735 25.3992 125.644 26.0262C124.554 26.6533 123.353 26.9626 122.038 26.9626C120.106 26.9626 118.458 26.272 117.092 24.895C115.727 23.518 115.042 21.8445 115.042 19.8744C115.042 17.7645 115.816 16.0062 117.359 14.5996C118.711 13.3751 120.267 12.7608 122.026 12.7608ZM122.081 15.9511C121.032 15.9511 120.157 16.3155 119.455 17.0484C118.754 17.7814 118.407 18.7177 118.407 19.8617C118.407 21.0056 118.754 21.9886 119.443 22.7173C120.132 23.446 121.007 23.8104 122.068 23.8104C123.129 23.8104 124.008 23.4418 124.71 22.7046C125.412 21.9674 125.763 21.0226 125.763 19.8617C125.763 18.7008 125.416 17.7602 124.727 17.0357C124.038 16.3112 123.154 15.9511 122.076 15.9511H122.081Z" fill="#FCE8F3"/>
<path d="M130.573 7.89691H133.955V26.6151H130.573V7.89691Z" fill="#FCE8F3"/>
<path d="M149.537 20.8404H138.677C138.834 21.8021 139.252 22.5647 139.933 23.1325C140.613 23.7002 141.484 23.9841 142.541 23.9841C143.805 23.9841 144.891 23.5434 145.8 22.6579L148.65 23.9968C147.939 25.0051 147.09 25.7551 146.096 26.238C145.103 26.721 143.928 26.9625 142.566 26.9625C140.453 26.9625 138.732 26.2931 137.401 24.9585C136.069 23.6239 135.405 21.9504 135.405 19.9379C135.405 17.9254 136.069 16.1672 137.392 14.8071C138.715 13.4471 140.377 12.765 142.376 12.765C144.498 12.765 146.223 13.4471 147.555 14.8071C148.882 16.1672 149.55 17.9678 149.55 20.2006L149.537 20.8446V20.8404ZM146.155 18.1712C145.931 17.417 145.492 16.8069 144.832 16.3324C144.173 15.8621 143.412 15.6249 142.545 15.6249C141.603 15.6249 140.774 15.8918 140.064 16.4214C139.616 16.7518 139.206 17.3365 138.825 18.1712H146.155Z" fill="#FCE8F3"/>
<path d="M151.693 8.12994H155.075V13.1082H157.083V16.0231H155.075V26.6109H151.693V16.0231H149.96V13.1082H151.693V8.12994Z" fill="#FCE8F3"/>
</svg>
