<svg width="445" height="443" viewBox="0 0 445 443" fill="none" xmlns="http://www.w3.org/2000/svg">
<g clip-path="url(#clip0_296_1160)" filter="url(#filter0_d_296_1160)">
<path d="M150.836 285.789C167.128 280.303 183.008 275.827 200.193 278.498C215.179 280.88 216.279 287.161 212.98 299.721C208.786 315.458 199.643 329.679 190.088 342.312C170.84 367.722 145.336 388.223 118.114 403.31C97.4911 414.788 66.6942 427.781 44.2839 414.427C15.2743 397.174 32.5289 342.673 40.6405 318.634C64.3569 248.613 125.882 194.4 198.337 195.194C223.772 195.483 250.101 204.362 267.493 224.502C287.566 247.747 283.854 280.664 272.855 307.229C263.368 330.112 166.303 464.164 145.336 396.596C137.775 372.125 144.511 342.384 150.767 318.418C159.36 285.428 173.59 253.955 191.6 225.513C209.68 196.999 233.602 171.517 263.437 156.935C286.81 145.529 334.861 130.659 357.615 150.655C376.313 167.113 359.471 203.207 351.084 220.46C335.686 252.15 313.894 280.519 291.072 306.507C268.18 332.639 242.608 356.821 213.942 375.734C209.405 378.694 183.764 395.875 180.189 390.316C169.809 374.146 166.647 354.656 167.884 335.526C170.496 293.73 196.481 254.965 221.572 224.358C249.276 190.646 283.029 162.205 319.394 139.466C335.411 129.432 352.322 120.986 369.92 114.561C382.431 109.941 407.66 98.5356 412.266 116.077C422.027 153.253 405.048 198.226 390.955 231.649C373.838 272.435 350.053 310.982 320.906 343.395C298.29 368.588 265.774 396.019 230.647 385.696C198.956 376.384 197.994 331.845 199.643 304.197C201.912 264.927 212.773 226.018 225.078 189.131C235.184 158.668 247.145 127.844 263.574 100.485C282.135 69.6607 303.102 27.4312 338.711 15.2315C380.781 0.794104 371.707 96.37 367.652 116.294C359.952 154.192 338.436 189.997 315.888 220.099C295.334 247.458 266.255 279.292 231.609 283.984C191.119 289.471 173.796 235.547 170.565 202.413C164.447 140.621 206.518 88.4294 255.188 60.2764C282.891 44.323 354.59 18.119 368.133 66.6288C376.107 95.0706 356.446 128.854 342.973 151.738C324.893 182.417 300.49 206.311 272.992 227.606C244.326 249.84 212.636 268.609 179.089 281.169C152.761 291.059 119.145 298.855 93.9852 281.963C67.3816 264.133 66.213 216.129 74.9434 188.12C85.736 153.398 110.621 121.78 132.963 94.7096C166.853 53.6351 262.75 -46.7051 305.989 35.3718C324.275 70.166 307.708 117.16 293.34 149.933C276.292 188.842 251.888 224.647 224.528 256.265C203.356 280.664 180.327 298.783 151.936 312.571C135.094 320.8 115.158 329.679 96.1162 327.946C4.34417 319.862 285.229 -71.3931 279.66 134.124C278.767 167.835 270.586 193.75 253.675 222.337C232.159 258.719 204.593 292.286 172.902 319.356C144.305 343.755 105.19 363.968 73.9122 333.144C47.3086 306.94 60.0261 261.534 72.6748 231.649C88.0733 195.194 112.34 162.349 139.562 134.774C161.697 112.396 187.82 91.9665 219.716 93.1215C272.992 95.0706 286.878 138.672 275.123 186.965C262.406 239.373 231.265 288.46 197.306 328.307C181.358 347.004 132 403.382 104.572 376.168C88.6232 360.286 91.5792 327.225 97.2161 307.806C108.696 268.32 136.537 233.453 163.416 204.434C206.93 157.44 317.263 71.1766 362.083 163.287C381.606 203.351 368.201 256.626 349.297 293.874C339.811 312.498 326.681 329.101 310.182 341.229C300.421 348.375 290.316 354.944 280.554 362.308C273.611 367.577 267.355 372.125 263.437 362.091C261.718 357.688 260.756 352.923 259.931 348.231C253.882 314.231 273.542 278.931 294.509 254.893C306.883 240.744 340.086 209.632 359.127 228.473C369.989 239.228 366.345 262.184 364.283 275.611C361.533 293.73 353.697 307.012 343.591 321.594C319.463 356.533 289.078 389.594 254.913 413.705C242.47 422.512 226.041 432.401 210.574 428.503C186.857 422.512 172.971 406.486 171.321 380.86C168.709 340.94 193.25 297.195 219.235 269.98C232.846 255.759 276.292 221.326 297.809 232.587C314.376 241.25 291.209 280.303 285.847 289.398C256.356 339.352 196.344 396.596 135.781 381.293C50.952 359.853 101.616 254.749 131.45 207.466C152.486 174.26 177.508 143.653 204.455 115.644C214.698 104.96 225.491 94.854 236.833 85.4697C241.783 81.355 246.939 77.5291 252.232 73.9919C258.762 69.5885 259.381 82.5822 261.168 89.079C291.415 200.247 162.66 309.178 65.1818 307.157C6.88767 305.785 3.31303 248.685 17.6803 201.619C32.1851 154.048 58.3075 106.693 88.9669 68.6501C109.521 43.168 136.056 21.0065 168.022 15.015C273.542 -4.8365 335.342 183.067 254.844 246.519C244.12 254.965 231.471 260.163 218.616 263.7C207.068 266.876 202.393 266.948 198.337 254.027C195.106 243.632 193.938 232.587 193.525 221.759C191.944 179.891 208.168 137.95 228.997 103.083C250.032 67.9282 280.966 36.1658 319.188 23.2443C359.059 9.74532 401.817 29.8134 423.471 66.4123C468.154 141.92 372.807 231.36 320.081 267.598C304.752 278.137 288.459 287.089 271.411 294.018C264.606 296.762 257.663 298.927 250.582 300.66C238.758 303.547 236.833 302.825 234.565 290.481C228.653 258.069 246.32 226.957 268.386 206.022C284.61 190.574 311.763 173.538 334.517 180.901C366.689 191.296 335.892 252.15 326.887 267.887C291.415 330.256 211.811 369.021 143.411 355.522C120.658 351.046 97.6286 335.959 104.984 308.528C114.677 272.218 158.604 243.56 187.682 226.596C207.411 215.118 239.996 203.929 250.582 233.165C259.175 256.842 249.551 286.728 240.202 308.456C213.323 370.898 143.893 422.079 78.4493 386.562C43.734 367.649 63.3258 322.749 79.3429 297.772C100.103 265.288 130.763 237.64 163.966 220.099C171.321 216.201 179.089 213.313 187.063 211.075C194.694 208.982 192.769 221.47 192.769 227.101C192.975 247.674 185.139 268.464 176.752 286.655C159.635 323.832 130.419 360.864 93.229 376.745C57.8951 391.832 18.7802 368.66 13.8307 328.813C9.77488 296.112 29.8479 263.555 47.5149 238.723C90.3418 178.447 152.967 127.266 216.417 92.9772C226.247 87.7075 236.421 82.8709 247.145 80.0556C249.276 79.4781 257.456 106.548 258.556 110.519C261.925 122.935 262.956 135.929 263.093 148.85C263.437 191.729 245.633 235.042 217.654 265.866C192.013 294.091 154.41 306.651 122.101 283.118C92.4041 261.534 73.9809 216.706 79.8929 179.313C89.3794 119.831 152.967 83.2319 204.593 74.2085C228.584 70.0216 256.906 71.7541 275.879 89.44C297.946 109.941 293.546 147.912 283.166 173.322C260.137 229.555 187.613 243.776 136.812 228.184C116.395 221.903 94.1914 207.033 95.5663 181.984C97.5598 145.674 142.999 118.459 168.571 102.578C206.174 79.3338 253.744 54.9345 298.771 63.8857C327.643 69.6607 343.454 95.1428 342.079 124.884C340.429 160.833 315.407 192.09 289.284 212.736C282.616 218.005 242.745 244.209 240.614 236.197C235.802 218.005 237.658 197.576 240.202 179.169C249.482 112.973 311.695 -22.6667 392.88 44.9727C425.121 71.8985 391.78 120.697 372.739 143.797C350.878 170.29 321.112 197.576 288.597 208.044C280.898 210.498 272.374 173.755 271.686 168.341C270.449 157.657 272.649 146.973 275.948 136.867C284.06 112.251 305.783 94.5653 328.743 87.13C379.338 70.5991 438.732 124.306 430.758 179.024C424.021 225.368 376.726 258.647 340.223 277.993C337.13 279.653 285.022 300.876 284.954 296.689C284.266 270.558 303.927 249.407 322.9 235.691C340.223 223.203 360.708 216.056 381.263 212.375C392.743 210.281 404.635 210.426 416.115 212.23C434.264 215.046 429.727 226.379 421.959 239.734C393.293 289.038 338.986 324.193 289.078 345.199C284.06 347.293 278.904 349.097 273.817 350.83C270.586 351.913 272.855 346.86 273.473 343.322C274.78 335.598 277.736 328.235 280.898 321.161C288.391 304.558 299.596 289.904 311.488 276.549C332.661 252.655 360.502 229.844 391.093 221.47C434.126 209.704 426.564 262.184 419.071 289.254C408.004 328.957 387.312 376.384 347.922 392.41C293.409 414.571 251.407 344.694 290.797 301.309C309.632 280.592 360.296 253.233 386.9 270.846C410.066 286.15 387.106 332.639 377.963 349.242C358.028 385.263 320.494 425.76 278.079 403.887C255.738 392.41 258.762 365.123 267.905 345.488C278.767 321.955 299.596 304.052 321.8 293.08C334.38 286.872 348.335 284.273 362.152 284.129C368.339 284.129 402.298 287.594 395.767 297.556C379.269 322.677 352.666 340.507 327.368 354.295C277.392 381.654 197.719 401.938 156.404 348.592C154.204 345.777 150.492 349.747 152.623 352.562C183.901 392.987 236.558 391.543 280.485 379.488C327.093 366.639 378.307 337.475 404.567 293.73C405.323 292.503 404.91 290.553 403.604 289.904C347.579 261.101 273.611 296.184 256.975 360.07C250.857 383.603 261.718 403.238 282.616 412.117C305.989 422.079 327.712 412.983 346.341 397.463C367.377 379.921 383.325 354.656 393.636 328.885C400.098 312.787 407.454 286.006 394.736 270.846C378.307 251.211 347.304 263.05 328.262 270.63C304.545 280.014 281.929 296.184 271.961 321.377C258.075 356.605 285.022 396.452 319.463 401.072C383.462 409.735 417.147 326.07 428.627 273.878C432.614 255.904 435.157 230.927 419.003 218.655C403.948 207.249 380.232 218.366 366.002 225.729C322.694 248.324 268.661 300.443 267.218 355.017C267.218 356.821 268.936 358.265 270.586 357.688C336.648 336.898 413.159 287.016 439.076 216.634C439.488 215.551 438.869 213.963 437.838 213.458C381.95 186.532 278.079 227.462 280.004 301.093C280.004 303.042 281.654 304.125 283.372 303.764C356.79 290.409 486.921 204.434 416.94 114.994C387.725 77.6735 335.617 65.3295 298.221 97.164C262.612 127.483 256.975 175.271 285.022 213.313C285.572 214.107 286.81 214.252 287.635 214.035C346.685 198.082 477.022 63.3804 369.508 26.204C273.748 -7.00211 214.423 170.506 237.315 243.487C237.727 244.859 239.171 246.014 240.614 245.437C292.722 225.513 351.909 177.941 347.441 112.756C343.042 48.2933 270.861 51.9026 228.103 66.7732C188.026 80.7053 147.399 104.888 116.395 135.134C102.372 148.778 86.6984 170.001 90.6855 191.585C98.7972 235.691 159.36 242.044 193.044 238.723C243.02 233.814 289.078 201.041 295.884 146.035C302.071 96.009 270.861 67.062 224.872 66.7732C176.889 66.4845 122.926 93.0493 94.1227 133.619C60.4386 181.118 71.1625 248.685 116.189 285.212C158.879 319.862 206.861 292.142 235.459 252.366C271.549 202.269 279.592 130.875 250.719 75.4357C250.101 74.2807 248.863 73.8475 247.695 74.1363C225.628 79.1894 205.005 92.4718 185.963 104.599C157.366 122.935 130.488 144.374 105.122 167.474C63.8757 204.867 8.74373 260.307 8.26253 322.388C8.0563 347.148 22.4236 368.732 42.5653 380.427C66.9004 394.575 95.2913 384.541 116.877 369.815C160.803 339.93 211.88 264.133 195.45 206.022C195.038 204.434 193.594 203.785 192.15 204.073C135.094 214.829 75.9745 273.734 57.2764 330.329C35.5535 396.091 115.021 411.684 159.635 397.102C209.061 381.004 244.876 327.874 256.081 276.694C264.331 238.867 251.476 198.948 208.305 211.148C176.202 220.171 145.061 246.808 122.101 271.135C108.146 285.934 93.7102 307.157 99.2097 329.029C110.965 375.662 188.369 364.473 219.098 355.955C282.204 338.486 340.567 284.706 352.391 215.19C361.052 164.298 310.938 170.001 282.341 187.903C243.776 212.014 217.998 259.441 232.915 306.218C233.259 307.373 234.29 308.384 235.459 308.312C327.849 301.526 521.774 127.844 404.017 35.2274C286.328 -57.3888 149.392 160.761 199.093 271.063C199.437 271.857 200.537 272.579 201.431 272.435C249.482 266.01 286.603 235.908 295.471 184.583C303.514 138.022 287.36 87.5631 259.45 51.3973C230.853 14.2931 186.445 -1.94901 143.549 16.7475C77.5556 45.5502 34.0412 133.474 12.5246 200.103C1.45696 234.392 -4.17997 282.108 30.5353 303.475C61.5384 322.605 105.534 310.188 135.987 296.617C219.716 259.369 300.352 166.68 259.312 66.3401C258.694 64.8963 256.838 64.6798 255.669 65.3295C203.218 95.6481 159.979 153.47 126.982 204.506C100.447 245.653 60.0948 318.273 98.2473 364.618C135.919 410.384 200.125 384.541 237.383 354.078C259.106 336.32 277.736 313.87 292.172 289.326C300.696 274.961 310.526 255.759 307.639 238.146C300.352 193.823 214.217 266.443 204.593 278.426C171.596 319.645 136.537 415.221 209.267 433.773C234.977 440.342 261.787 416.592 280.004 400.856C308.532 376.312 334.105 346.426 354.865 314.447C371.776 288.388 387.587 202.774 333.555 219.593C279.11 236.485 235.252 319.645 263.162 374.146C263.712 375.229 265.087 375.807 266.187 375.446C285.091 368.949 303.789 353.573 319.6 340.868C332.868 330.184 343.11 315.747 351.703 300.876C370.264 268.681 379.407 228.833 375.351 191.44C372.051 161.266 355.209 132.68 327.231 121.852C299.665 111.168 270.518 120.553 245.083 133.258C181.701 164.948 120.658 230.205 94.6039 298.927C84.9799 324.337 80.5803 383.964 117.977 388.078C152.211 391.832 187.545 348.664 207.068 325.059C238.896 286.511 266.187 240.383 279.66 191.007C289.009 156.646 289.353 113.695 254.707 95.5037C204.387 69.1554 157.229 106.476 123.682 143.436C86.6984 184.15 34.9349 259.441 58.72 319.212C86.286 388.439 161.01 339.496 194.625 306.651C222.122 279.798 245.839 247.674 264.812 213.674C278.629 188.914 283.51 165.237 284.954 136.795C286.053 114.633 285.71 70.9601 256.7 67.7838C229.34 64.752 202.187 91.5334 184.039 109.436C153.86 139.177 128.013 174.404 106.359 211.364C87.4546 243.632 38.1658 349.314 117.083 331.339C172.146 318.851 214.767 279.365 248.863 234.392C285.916 185.521 335.892 105.321 313.551 39.5586C291.209 -26.1317 224.391 2.38222 186.857 32.9174C157.023 57.1723 131.106 86.1916 108.146 117.521C91.3042 140.621 72.8123 167.691 67.1066 196.782C62.2259 221.326 64.2882 256.553 80.649 276.549C95.9787 295.173 118.664 298.638 140.937 296.328C201.912 289.976 262.406 247.602 306.814 205.734C330.393 183.5 348.403 156.43 362.29 126.616C371.157 107.487 378.719 84.2425 372.739 62.9473C362.152 25.049 312.451 31.7624 285.504 40.4249C239.239 55.2954 196.481 90.8837 175.927 137.228C155.991 182.201 160.735 264.638 210.642 286.655C234.427 297.123 261.581 280.52 279.867 265.866C306.883 244.282 328.33 214.54 345.722 184.15C362.771 154.336 374.045 123.151 376.038 88.4294C377.276 67.856 379.888 19.1297 354.659 9.8175C332.868 1.80473 311.007 24.7603 297.602 39.6308C275.673 64.1023 258.831 94.5653 244.67 124.523C216.004 185.449 191.257 258.936 194.006 327.73C194.9 350.397 201.293 374.724 220.885 386.996C242.402 400.495 269.28 391.182 288.803 378.694C349.985 339.496 392.812 256.914 412.266 186.748C419.69 159.895 424.708 128.06 413.091 101.712C412.678 100.846 411.647 100.34 410.753 100.34C341.46 101.712 273.336 158.667 227.759 208.477C184.932 255.254 137.018 332.711 177.783 396.163C178.47 397.174 179.57 397.824 180.808 397.463C236.627 381.148 284.472 325.853 319.325 280.159C339.811 253.305 390.818 187.109 364.421 149.788C352.666 133.258 327.024 134.918 310.114 137.661C279.042 142.786 251.751 153.109 227.347 174.116C181.701 213.53 152.486 277.415 140.937 337.331C136.4 360.647 129.869 427.276 170.29 419.769C196.962 414.788 219.373 389.522 237.04 370.032C259.45 345.344 279.935 315.386 286.191 281.241C295.059 232.876 259.931 199.02 217.517 191.007C161.903 180.468 105.259 209.704 69.7189 253.521C40.4343 289.687 -18.4098 436.372 75.3558 424.1C110.209 419.552 142.999 396.38 168.915 372.847C193.869 350.18 218.823 318.562 221.229 282.541C221.229 281.602 220.679 280.519 219.923 280.086C196.344 267.02 173.933 271.568 149.53 279.798C146.299 280.88 147.674 286.294 150.973 285.212L150.836 285.789Z" fill="#4E1945"/>
</g>
<defs>
<filter id="filter0_d_296_1160" x="0" y="0" width="445" height="443" filterUnits="userSpaceOnUse" color-interpolation-filters="sRGB">
<feFlood flood-opacity="0" result="BackgroundImageFix"/>
<feColorMatrix in="SourceAlpha" type="matrix" values="0 0 0 0 0 0 0 0 0 0 0 0 0 0 0 0 0 0 127 0" result="hardAlpha"/>
<feOffset dy="4"/>
<feGaussianBlur stdDeviation="2"/>
<feComposite in2="hardAlpha" operator="out"/>
<feColorMatrix type="matrix" values="0 0 0 0 0 0 0 0 0 0 0 0 0 0 0 0 0 0 0.25 0"/>
<feBlend mode="normal" in2="BackgroundImageFix" result="effect1_dropShadow_296_1160"/>
<feBlend mode="normal" in="SourceGraphic" in2="effect1_dropShadow_296_1160" result="shape"/>
</filter>
<clipPath id="clip0_296_1160">
<rect width="437" height="435" fill="white" transform="translate(4)"/>
</clipPath>
</defs>
</svg>
