<svg width="493" height="464" viewBox="0 0 493 464" fill="none" xmlns="http://www.w3.org/2000/svg">
<path d="M34.3799 239.416C24.0707 191.564 23.6468 143.255 7.30597 95.6861C6.649 93.7817 0.281255 94.2233 0.436047 96.0839C11.0887 216.296 14.4447 338.075 70.8379 456.094C71.5808 457.675 76.9398 457.793 77.6211 456.14C133.754 305.621 41.4167 153.24 75.2769 2.12431C73.0147 2.27055 70.6691 2.37582 68.4069 2.52206C117.422 134.072 88.6092 269.578 155.219 399.996C156.21 401.983 161.658 401.373 162.089 399.598C191.267 271.856 136.702 143.663 125.598 15.9694C125.361 13.8253 118.578 13.7386 118.563 15.9214C117.716 164.554 127.923 313.221 149.103 461.6C149.424 463.745 156.29 463.832 156.054 461.648C145.106 335.653 85.9053 211.754 74.7057 85.7977L67.755 85.7502C88.943 183.882 72.9409 282.973 105.018 380.735C105.675 382.679 111.792 382.155 111.888 380.337C117.585 257.406 69.5084 135.605 64.0654 12.841C63.9966 10.6576 57.1297 10.6107 57.1148 12.7935C56.4062 141.134 65.4023 270.916 121.74 397.059C122.483 398.681 127.675 398.716 128.439 397.104C158.251 336.025 155.421 272.217 148.561 209.756C141.155 141.551 125.54 73.4921 125.671 5.17673L118.637 5.12871C134.156 148.537 121.776 293.695 182.949 435.273C183.608 436.854 189.135 436.972 189.649 435.318C230.454 309.596 158.879 182.783 158.818 56.7008C156.556 56.847 154.211 56.9523 151.948 57.0986C183.754 170.139 167.312 284.628 199.956 397.593C200.528 399.618 206.395 398.93 206.826 397.195C235.296 274.986 186.807 152.332 186.973 29.8899L180.022 29.8424C201.143 162.334 195.879 295.575 233.334 427.532C233.906 429.517 240.024 428.952 240.204 427.134C251.664 306.386 214.465 185.952 214.703 65.1671L207.753 65.1196C218.027 191.635 228.551 318.395 266.804 443.93C267.377 445.915 273.411 445.309 273.674 443.532C290.633 339.152 258.853 234.723 259.063 130.269C256.801 130.415 254.455 130.521 252.193 130.667C279.258 226.697 274.24 323.841 300.551 419.866C301.124 421.81 307.324 421.286 307.421 419.468C312.996 326.531 281.385 234.109 281.349 141.215C281.364 139.032 274.329 138.984 274.314 141.167C273.826 224.962 278.529 308.873 294.96 392.38C295.364 394.525 301.644 394.608 301.91 392.427C313.533 296.985 292.327 201.44 281.505 106.128C281.268 103.943 274.82 103.899 274.47 106.08C262.837 190.809 283.779 275.964 306.319 360.078C306.89 362.264 312.752 362.305 313.269 360.125C336.121 275.917 309.4 190.844 309.391 106.318L302.44 106.271C328.928 213.17 329.029 321.022 356.187 427.926C356.759 430.032 362.871 430.195 363.221 427.974C380.1 298.693 315.483 170.755 315.528 41.5606L308.577 41.5132C313.425 153.318 305.952 266.535 351.175 377.039C351.999 379.025 357.698 378.417 358.045 376.641C374.775 281.314 348.628 185.817 348.776 90.4174C348.791 88.2347 341.757 88.1866 341.826 90.37C341.595 210.104 378.803 329.123 412.246 447.672C412.819 449.697 418.769 449.01 419.116 447.274C442.135 326.321 388.356 205.653 371.256 85.1541C370.936 83.0094 363.986 82.9216 364.222 85.1061C374.887 179.043 379.854 273.264 407.188 366.628C407.761 368.612 413.795 368.007 414.058 366.23C430.981 267.267 399.247 168.214 399.337 69.1358L392.387 69.0884C397.267 163.875 396.701 259.029 424.113 353.242C424.685 355.267 430.636 354.62 430.983 352.844C447.802 256.669 416.386 160.206 427.344 63.9507L420.393 63.9032C430.72 170.45 425.383 277.577 463.102 383.219C463.677 384.8 469.371 384.92 469.801 383.265C498.53 284.585 460.771 184.884 460.777 85.7652L453.827 85.7178C475.062 164.689 464.551 244.535 485.786 323.507C486.358 325.613 492.805 325.818 492.82 323.555C493.175 247.035 488.421 170.561 488.776 94.0411C488.791 91.8583 481.756 91.8103 481.742 93.9931C481.387 170.513 486.141 246.987 485.786 323.507L492.82 323.555C471.585 244.583 482.096 164.737 460.861 85.7658C460.289 83.6598 453.842 83.4541 453.91 85.7183C453.906 184.474 491.834 283.973 463.191 382.331L469.891 382.376C432.254 277.058 437.757 170.175 427.428 63.9512C427.191 61.7667 420.659 61.7222 420.477 63.9038C409.519 160.159 440.935 256.663 424.116 352.797C426.378 352.651 428.724 352.546 430.986 352.399C403.655 258.51 404.303 163.64 399.505 69.137C399.436 66.9536 392.485 66.9062 392.554 69.0895C392.464 168.168 424.198 267.18 407.275 366.184C409.537 366.037 411.883 365.932 414.145 365.786C386.893 272.746 382.091 178.769 371.424 85.1553L364.39 85.1072C381.489 205.606 435.268 326.234 412.249 447.227C414.511 447.081 416.857 446.975 419.119 446.829C385.758 328.564 348.715 209.869 348.944 90.4186L341.993 90.3711C341.844 185.811 367.991 281.309 351.261 376.594C353.524 376.448 355.869 376.343 358.131 376.197C313.074 266.017 320.629 153.084 315.779 41.5623C315.71 39.379 308.759 39.3315 308.828 41.5149C308.868 170.669 373.4 298.606 356.522 427.928L363.556 427.976C336.399 321.072 336.297 213.261 309.81 106.321C309.321 104.216 302.79 104.05 302.859 106.274C302.784 190.799 329.505 275.872 306.737 360.081L313.688 360.128C291.148 276.014 270.29 190.86 281.84 106.13L274.805 106.082C285.628 201.394 306.917 296.98 295.211 392.381L302.162 392.429C285.731 308.882 281.028 225.011 281.516 141.216L274.482 141.168C274.434 234.061 306.129 326.484 300.554 419.421C302.816 419.275 305.161 419.169 307.424 419.023C281.113 322.958 286.131 225.814 259.066 129.825C258.493 127.88 252.209 128.363 252.196 130.222C252.069 234.677 283.766 339.106 266.807 443.485C269.069 443.339 271.415 443.234 273.677 443.087C235.506 317.837 225.147 191.361 214.871 65.1682C214.718 62.9843 207.851 62.9374 207.92 65.1207C207.682 185.865 244.881 306.299 233.42 427.088C235.683 426.942 238.028 426.836 240.29 426.69C202.917 295.058 208.263 162.1 187.224 29.8916C186.904 27.747 180.204 27.6608 180.273 29.8442C180.107 152.287 228.681 274.941 200.126 397.149C202.388 397.003 204.734 396.898 206.996 396.751C174.353 283.746 190.795 169.297 158.989 56.2573C158.416 54.3131 152.132 54.7956 152.119 56.6551C152.182 182.414 223.926 309.026 183.206 434.385L189.906 434.431C128.814 293.137 141.276 148.262 125.839 5.17788C125.602 3.03382 118.819 2.94708 118.805 5.12986C118.694 70.3327 132.655 135.349 140.669 200.405C148.683 265.501 153 332.432 121.83 396.17L128.529 396.216C72.3568 270.397 63.4427 140.859 64.1492 12.8415L57.1985 12.7941C62.6415 135.558 110.718 257.36 105.021 380.29C107.284 380.144 109.629 380.038 111.891 379.892C79.8954 282.454 95.9793 183.647 74.8732 85.7988C74.3851 83.6935 67.6865 83.5265 67.9225 85.7514C78.7035 211.705 137.988 335.604 148.936 461.599L155.886 461.646C134.707 313.268 124.499 164.6 125.347 15.9677L118.312 15.9197C129.5 143.614 183.981 271.806 154.887 399.549C157.149 399.402 159.494 399.297 161.757 399.151C95.2307 268.775 124.044 133.228 74.9449 1.67739C74.205 -0.348854 68.5056 0.339856 68.075 2.07515C34.3842 152.909 126.723 305.048 70.6765 455.203L77.4597 455.25C21.1482 337.515 17.9575 216.06 7.30294 96.1307C5.04078 96.277 2.69517 96.3822 0.433012 96.5285C16.692 143.814 17.0344 191.799 27.2618 239.367C27.7496 241.513 34.7002 241.56 34.2961 239.415L34.3799 239.416Z" fill="#E4C8E2"/>
</svg>
