<svg width="531" height="452" viewBox="0 0 531 452" fill="none" xmlns="http://www.w3.org/2000/svg">
<path d="M452.034 319.241C466.716 355.341 487.749 389.25 507.95 423.62C508.858 425.174 512.487 425.23 513.393 423.618C548.219 362.216 553.481 292.362 554.132 226.311C554.856 153.003 546.13 79.6428 533.85 7.03242C533.471 4.55639 528.33 3.46449 527.65 6.40168C497.312 129.706 512.034 255.928 522.673 380.079C522.977 383.188 528.874 383.186 529.024 380.076C533.738 268.645 519.4 155.898 478.3 48.6914C477.468 46.4459 473.007 46.3327 472.177 48.6941C432.688 165.899 461.697 287.853 437.027 406.375C439.068 406.605 441.185 406.777 443.227 407.006C438.189 297.134 431.487 187.436 402.56 79.4754C401.803 76.7116 396.586 77.5201 396.361 80.1116C386.736 200.585 386.563 321.401 401.585 441.633C401.964 444.685 407.785 444.798 407.935 441.631C412.488 307.338 391.336 173.921 341.987 44.8928C341.079 42.5898 336.769 42.5917 335.939 44.8955C295.238 156.342 300.505 273.297 300.631 387.835C300.633 390.945 306.908 390.942 306.906 387.832C306.774 258.379 300.442 128.295 256.159 2.60484C255.402 0.416909 250.715 0.246204 250.111 2.60749C214.862 133.285 234.502 267.337 240.079 399.379C240.231 402.488 246.128 402.428 246.354 399.376C256.132 285.755 245.649 171.797 215.813 60.3236C215.207 58.0204 210.368 58.0226 209.764 60.3263C174.587 181.79 174.263 306.637 164.338 430.22L170.613 430.218C164.989 363.305 167.53 296.159 161.453 229.247C155.679 165.962 142.873 99.6867 99.3773 44.4809C97.8644 42.5812 94.5382 43.1586 93.6318 45.0593C41.9671 153.746 37.6349 274.103 53.259 388.001C53.714 391.11 59.0818 391.108 59.534 387.998C75.0618 281.976 70.8543 169.628 23.9361 68.1242C23.028 66.1091 18.3404 65.5929 17.8879 68.1268C-3.46218 172.079 -8.40415 281.091 18.0267 384.792C18.6325 387.21 23.3198 386.978 24.0749 384.789C64.5472 269.024 39.7721 147.989 59.3772 30.2747C57.3361 30.506 55.2193 30.6796 53.1781 30.9109C82.8617 138.814 84.1956 249.896 113.879 357.799C114.485 360.045 119.399 360.158 119.927 357.797C139.848 270.545 130.132 181.637 109.681 94.9792C109 92.1578 103.708 93.0815 103.482 95.6154C93.0965 203.766 81.3534 319.922 134.018 423.151C134.851 424.82 138.556 425.855 139.764 423.724C195.818 324.133 195.467 213.511 200.637 107.09C198.596 107.321 196.479 107.495 194.438 107.726C213.913 211.084 205.643 316.297 229.956 419.25C230.411 421.266 234.569 421.609 235.702 419.824C293.123 333.592 286.652 231.783 286.535 137.803C286.534 134.694 280.259 134.696 280.26 137.806C279.999 231.441 270.589 324.964 275.318 418.597C275.47 421.706 281.367 421.646 281.593 418.594C292.125 299.329 291.995 175.692 245.978 60.3104C244.994 57.8922 240.987 58.1819 239.93 60.313C180.858 174.186 204.201 303.226 204.631 422.486C204.632 425.596 210.983 425.593 210.982 422.483C210.945 338.753 210.605 254.505 190.535 171.879C190.004 169.69 186.149 169.75 184.788 171.305C157.887 201.55 152.838 239.443 151.644 275.032C150.302 316.667 157.427 358.241 164.249 399.469C164.628 401.888 169.769 403.037 170.449 400.1C195.65 285.493 190.987 168.884 200.689 53.3047C198.723 53.7087 196.758 54.1127 194.792 54.5166C267.576 176.221 244.805 315.301 290.6 442.373C291.433 444.619 295.969 444.732 296.648 442.371C332.886 325.513 337.142 203.199 321.818 84.0601C321.439 81.0082 315.239 80.9533 315.543 84.0628C325.344 193.702 288.199 311.481 346.383 416.032C347.367 417.759 350.693 417.412 351.827 416.03C391.043 367.467 398.199 307.402 400.594 251.658C403.213 190.558 395.853 129.636 392.5 68.5961C392.347 65.4865 386.375 65.4892 386.225 68.5988C381.128 169.837 376.334 271.133 376.227 372.426C376.229 375.536 382.201 375.476 382.502 372.424C392.515 276.424 402.377 180.308 402.562 83.9671C402.56 80.7999 396.588 80.9177 396.211 83.9699C385.745 180.373 361.518 275.689 355.966 372.435C355.816 375.545 362.015 375.485 362.241 372.432C372.171 259.733 372.121 146.691 362.092 34.0003C361.789 30.8908 356.194 30.9508 355.817 34.003C341.202 150.563 355.693 267.399 361.036 384.008C361.189 387.117 367.388 387.115 367.387 384.005C367.339 275.744 367.14 166.618 336.853 60.3281C336.02 57.5068 330.955 58.4303 330.654 60.9643C324.103 122.757 316.872 184.55 319.621 246.684C322.065 301.562 331.24 363.52 376.697 408.36C378.134 409.799 380.78 410.028 382.14 408.357C422.265 361.235 438.948 304.448 447.089 249.334C455.381 193.357 453.767 133.929 432.801 79.5774C431.968 77.3319 427.508 77.2187 426.753 79.58C391.869 181.522 401.215 287.591 406.553 391.762C406.705 394.411 411.846 395.1 412.752 392.393C438.499 315.735 442.849 235.688 432.986 157.145C432.607 154.036 427.164 154.096 426.636 157.148C411.937 256.318 432.091 356.739 477.342 450.065C478.402 452.253 482.409 452.424 483.466 450.063C506.35 396.095 512.146 338.506 511.29 282.13C510.434 225.696 501.26 167.999 478.254 114.224C477.118 111.518 472.431 112.211 472.054 114.86C457.355 213.454 473.048 312.437 507.64 407.784C508.473 410.03 512.934 410.085 513.689 407.781C545.324 311.945 533.787 208.468 498.439 114.215C497.607 112.085 492.844 111.742 492.391 114.218C476.774 188.453 474.316 273.681 518.045 342.995C519.331 345.01 523.036 344.203 523.791 342.417C561.177 257.577 544.88 161.127 518.609 75.7391C517.776 73.0329 512.559 73.7262 512.409 76.3752C508.142 172.833 532.377 267.609 558.123 361.578C558.88 364.227 564.474 363.648 564.322 360.942C559.447 278.423 563.342 195.21 538.887 114.14C538.054 111.376 532.838 112.185 532.688 114.776C527.734 196.09 532.76 278.435 558.121 357.72C558.878 359.965 563.566 360.078 564.169 357.717C589.986 267.929 585.106 172.8 558.984 83.3803C558.227 80.6741 552.935 81.3674 552.785 84.0165C548.291 181.051 563.303 277.443 583.304 373.084C583.91 376.021 589.126 374.867 589.503 372.448C599.303 309.214 594.89 244.202 569.083 183.345C567.872 180.409 561.749 181.678 563.035 184.614C588.615 245.068 592.877 309.563 583.228 372.451C585.269 372.22 587.386 372.046 589.427 371.815C569.502 276.576 554.641 180.645 559.135 84.0137C557.094 84.2449 554.977 84.4186 552.936 84.6498C578.755 173.148 583.711 267.587 558.121 356.453L564.169 356.45C538.959 277.569 534.008 195.684 538.963 114.773C536.922 115.005 534.805 115.178 532.764 115.41C557.067 196.019 553.097 278.829 558.047 360.887C560.088 360.656 562.205 360.482 564.246 360.251C538.651 266.685 514.568 172.312 518.76 76.3148C516.719 76.5461 514.602 76.7198 512.561 76.951C538.53 161.418 554.675 257.061 517.742 341.038C519.632 340.864 521.598 340.633 523.488 340.459C480.515 272.527 483.125 188.277 498.44 115.425L492.392 115.427C527.437 208.816 538.973 311.487 507.64 406.46L513.688 406.457C479.247 311.513 463.63 212.99 478.329 114.8C476.288 115.031 474.171 115.205 472.13 115.436C495.061 169.096 503.403 225.872 504.939 282.075C506.4 337.933 499.999 395.349 477.342 448.741L483.466 448.738C438.366 355.814 418.287 255.854 432.986 157.088L426.636 157.091C436.423 235.23 432.224 314.816 406.628 391.071C408.669 391.3 410.786 391.472 412.828 391.702C407.414 287.992 398.069 182.326 432.802 80.7866L426.753 80.7893C447.719 135.026 448.425 193.418 440.814 249.279C436.669 280.032 428.517 310.499 416.509 340.045C410.694 354.329 403.367 368.211 394.905 381.689C391.354 387.334 387.274 392.807 383.118 398.222C376.771 406.459 374.197 397.707 369.659 392.239C329.946 344.114 326.213 280.138 325.282 225.029C324.426 170.207 331.207 115.555 337.004 61.0191C334.963 61.2503 332.846 61.424 330.805 61.6553C361.017 167.542 361.065 276.265 361.112 384.065L367.462 384.063C362.119 267.453 347.703 150.618 362.244 34.0578L355.969 34.0606C365.998 146.752 366.047 259.793 356.117 372.493L362.392 372.49C367.944 275.743 392.171 180.428 402.638 84.0247L396.287 84.0274C396.027 180.369 386.24 276.484 376.227 372.484L382.502 372.481C382.609 271.13 387.403 169.892 392.5 68.6537L386.225 68.6565C391.788 169.775 412.702 278.661 369.349 376.691C364.213 388.268 357.414 399.27 349.405 409.811C350.538 408.371 342.14 394.382 341.232 392.251C337.902 384.767 335.404 377.051 332.981 369.336C322.912 337.38 320.705 304.211 320.01 271.503C318.773 209.023 327.364 146.538 321.818 84.0601L315.543 84.0628C330.716 202.798 326.687 324.652 290.599 441.106L296.648 441.104C250.701 313.629 273.321 174.318 200.235 52.0956C198.797 49.7352 194.564 51.1767 194.338 53.3075C184.636 168.484 189.45 284.632 164.324 398.836C166.366 399.065 168.483 399.237 170.524 399.467C164.611 363.478 159.001 327.547 157.926 291.268C156.775 251.765 160.158 207.48 190.157 173.779C188.267 173.607 186.301 173.378 184.411 173.206C204.407 255.43 204.594 339.217 204.631 422.544L210.982 422.541C210.551 303.626 187.209 175.047 246.054 61.6348L240.006 61.6374C285.872 176.616 285.85 299.793 275.393 418.654L281.668 418.652C276.94 325.019 286.349 231.496 286.611 137.861L280.336 137.863C280.452 230.98 287.301 332.04 230.409 417.407C232.299 417.579 234.265 417.809 236.155 417.981C211.917 315.028 220.112 209.815 200.712 106.456C200.182 103.693 194.663 104.501 194.513 107.093C189.343 212.535 190.071 322.581 134.471 421.308C136.361 421.479 138.327 421.709 140.217 421.881C87.7037 319.056 99.5226 203.36 109.909 95.6126C107.867 95.8438 105.751 96.0175 103.709 96.2487C123.857 181.985 133.649 270.145 113.954 356.475L120.002 356.472C90.3189 248.569 88.9849 137.487 59.3013 29.5838C58.5441 26.7048 53.5547 27.7435 53.1022 30.2199C33.5724 147.473 58.3474 268.105 18.0261 383.409L24.0743 383.407C-2.1293 280.685 2.813 172.306 23.9366 69.3335L17.8884 69.3361C64.5796 170.436 68.7112 282.209 53.2589 387.886L59.534 387.883C43.9857 274.33 48.1669 154.55 99.6805 46.2084C97.7905 46.382 95.8249 46.6132 93.9349 46.7868C138.263 103.144 149.784 170.572 155.709 235.008C161.635 299.962 158.942 365.208 164.338 430.163C164.566 433.272 170.388 433.27 170.613 430.16C180.463 306.979 180.711 182.594 215.813 61.5329L209.765 61.5356C239.526 172.663 249.857 286.16 240.078 399.321L246.353 399.318C240.777 267.737 221.062 134.089 256.16 3.81413L250.112 3.81678C294.243 129.104 300.499 258.727 300.631 387.777L306.906 387.775C306.781 273.639 301.437 157.146 341.987 46.1022L335.939 46.1048C385.137 174.73 406.138 307.687 401.66 441.576L408.011 441.573C392.989 321.34 393.163 200.525 402.787 80.0512C400.746 80.2824 398.629 80.4561 396.588 80.6873C425.364 188.245 431.989 297.54 437.027 406.951C437.179 409.543 442.623 410.346 443.227 407.582C467.973 289.002 438.888 167.048 478.452 49.9006L472.328 49.9033C513.276 156.707 527.614 268.993 522.824 380.021L529.175 380.018C518.612 256.328 503.739 130.395 533.926 7.60822C531.885 7.37877 529.768 7.20694 527.726 6.97748C541.598 89.2616 550.631 172.297 547.265 255.279C545.545 298.066 539.818 341.028 525.623 382.496C523.056 390.098 519.808 397.644 516.485 405.074C516.258 405.592 510.441 415.845 509.987 415.096C506.507 409.109 502.875 403.179 499.32 397.25C483.81 371.285 469.358 345.205 458.232 317.914C457.022 314.978 450.974 316.247 452.185 319.184L452.034 319.241Z" fill="#BA97C6"/>
</svg>
