<svg width="410" height="538" viewBox="0 0 410 538" fill="none" xmlns="http://www.w3.org/2000/svg">
<path d="M120.693 408.418C87.9629 421.453 57.172 440.243 25.9698 458.279C24.5587 459.089 24.4842 462.37 25.9362 463.2C81.2132 495.085 144.325 500.3 204.029 501.322C270.292 502.458 336.666 495.052 402.384 484.428C404.625 484.102 405.646 479.461 402.995 478.828C291.73 450.593 177.532 463.073 65.2334 471.875C62.4205 472.129 62.3841 477.459 65.1942 477.615C165.894 482.609 267.908 470.388 365.091 433.939C367.126 433.201 367.258 429.169 365.128 428.403C259.438 391.936 149.004 417.359 42.0243 394.28C41.8035 396.123 41.6343 398.036 41.4134 399.88C140.768 396.047 239.976 390.71 337.76 365.269C340.263 364.603 339.567 359.882 337.226 359.661C228.383 350.17 119.171 349.219 10.3847 362.009C7.62334 362.332 7.4833 367.594 10.3455 367.75C131.712 372.748 252.457 354.503 369.42 310.74C371.507 309.934 371.534 306.038 369.457 305.272C268.979 267.748 163.221 271.742 59.6802 271.103C56.8691 271.084 56.8304 276.757 59.6414 276.776C176.665 277.506 294.299 272.637 408.21 233.431C410.193 232.762 410.378 228.525 408.248 227.964C290.35 195.241 169.042 212.115 49.6426 216.289C46.8306 216.407 46.8463 221.738 49.6039 221.962C152.25 231.547 255.334 222.819 356.299 196.58C358.385 196.048 358.415 191.674 356.336 191.113C246.767 158.515 133.911 157.403 22.2599 147.619L22.2212 153.292C82.7452 148.647 143.427 151.385 203.954 146.331C261.199 141.527 321.195 130.386 371.385 91.4296C373.112 90.0745 372.612 87.0639 370.9 86.232C272.989 38.8147 164.218 34.1081 61.1546 47.4839C58.3408 47.8747 58.3077 52.7271 61.1159 53.1564C156.856 67.8893 258.443 64.8237 350.508 23.0774C352.335 22.2697 352.833 18.0357 350.545 17.6099C256.715 -2.37259 158.203 -7.55599 64.2872 15.6558C62.0971 16.1876 62.2764 20.4264 64.2499 21.1233C168.633 58.4695 278.208 36.8683 384.49 55.3639C384.294 53.5172 384.151 51.6025 383.955 49.7558C286.219 75.8804 185.794 76.3567 88.058 102.481C86.024 103.014 85.8896 107.456 88.0207 107.949C166.763 126.53 247.198 118.33 325.668 100.413C328.223 99.815 327.423 95.0253 325.134 94.8046C227.436 84.7059 122.512 73.3276 28.8499 120.257C27.3352 120.999 26.3753 124.341 28.2939 125.448C117.953 176.773 217.955 177.182 314.123 182.555C313.927 180.708 313.784 178.793 313.589 176.947C220.028 193.873 124.972 185.706 31.7457 207.009C29.9209 207.406 29.5829 211.163 31.1897 212.199C108.763 264.672 200.839 259.491 285.795 260.003C288.606 260.022 288.645 254.349 285.834 254.33C201.192 253.479 116.711 244.359 32.0384 248.018C29.2264 248.136 29.2421 253.467 31.9996 253.691C139.743 263.995 251.508 264.69 356.113 223.849C358.305 222.976 358.07 219.352 356.15 218.382C253.6 164.235 136.798 184.488 28.9868 184.094C26.1758 184.075 26.1366 189.815 28.9476 189.835C104.638 190.351 180.798 190.598 255.622 172.997C257.604 172.532 257.575 169.046 256.178 167.806C229.015 143.29 194.793 138.477 162.63 137.164C125.001 135.676 87.3728 141.844 50.0585 147.741C47.8698 148.067 46.7969 152.708 49.4476 153.341C152.884 176.875 258.326 173.425 362.743 182.955C362.391 181.175 362.039 179.396 361.686 177.617C251.191 242.612 125.615 221.114 10.4449 261.677C8.40953 262.415 8.27743 266.515 10.4075 267.145C115.806 300.67 226.347 305.321 334.146 292.251C336.907 291.928 336.997 286.324 334.184 286.578C235.009 294.718 128.783 260.366 33.8903 312.277C32.3225 313.155 32.6144 316.164 33.8567 317.197C77.4981 352.967 131.748 359.83 182.124 362.361C237.34 365.13 292.46 358.877 347.661 356.247C350.473 356.129 350.509 350.73 347.699 350.574C256.216 345.302 164.679 340.303 73.1127 339.541C70.3016 339.522 70.3168 344.922 73.0739 345.214C159.79 354.896 246.611 364.442 333.7 365.241C336.563 365.261 336.495 359.861 333.739 359.501C246.661 349.406 160.658 326.88 73.2377 321.225C70.4276 321.069 70.4414 326.674 73.199 326.898C175.012 336.615 277.198 337.312 379.134 328.986C381.947 328.732 381.929 323.674 379.173 323.314C273.901 309.336 168.19 321.669 62.7431 325.733C59.9311 325.85 59.8929 331.455 62.7039 331.474C160.57 332.142 259.218 332.679 355.5 305.997C358.056 305.263 357.254 300.678 354.966 300.389C299.15 294.062 243.338 287.12 187.153 289.197C137.528 291.045 81.459 298.932 40.6267 339.73C39.3164 341.019 39.0919 343.41 40.5931 344.65C82.9275 381.231 134.152 396.686 183.919 404.407C234.467 412.27 288.199 411.201 337.469 392.606C339.504 391.868 339.636 387.836 337.506 387.138C245.582 354.935 149.637 362.686 55.4346 366.828C53.0391 366.948 52.3827 371.591 54.8238 372.428C123.952 396.206 196.283 400.664 267.348 392.264C270.162 391.941 270.143 387.02 267.388 386.523C177.838 372.584 86.9272 390.144 2.2649 430.437C0.280227 431.38 0.0993316 435.001 2.22711 435.973C50.8625 457.014 102.883 462.631 153.851 462.227C204.872 461.824 257.088 453.911 305.851 433.466C308.305 432.458 307.709 428.216 305.317 427.858C216.287 413.923 126.706 427.459 40.2872 458.103C38.2518 458.841 38.1723 462.873 40.2498 463.571C126.676 492.798 220.292 483.048 305.726 451.714C307.658 450.975 307.999 446.672 305.764 446.246C238.76 431.641 161.732 428.86 98.7862 467.934C96.9563 469.084 97.6622 472.438 99.2713 473.132C175.719 507.485 263.014 493.387 340.375 470.199C342.827 469.464 342.235 464.744 339.841 464.591C252.673 460.1 166.839 481.385 81.7247 504.042C79.3254 504.709 79.8115 509.77 82.2591 509.65C156.886 505.785 232.083 509.852 305.529 488.278C308.033 487.543 307.336 482.822 304.994 482.67C231.522 477.657 157.05 481.66 85.2125 504.065C83.1776 504.735 83.0446 508.972 85.1751 509.533C166.171 533.46 252.198 529.673 333.203 506.647C335.654 505.98 335.062 501.192 332.668 501.039C244.981 496.339 157.747 509.276 71.1581 526.729C68.4995 527.257 69.5084 531.98 71.6924 532.337C128.79 541.612 187.588 538.049 242.771 515.119C245.433 514.044 244.326 508.501 241.663 509.644C186.846 532.371 128.517 535.8 71.7312 526.664C71.9268 528.511 72.0699 530.426 72.2655 532.272C158.489 514.886 245.307 502.083 332.629 506.78C332.434 504.933 332.29 503.018 332.095 501.171C251.925 523.93 166.522 527.79 86.3577 504.073L86.3204 509.541C157.793 487.269 231.847 483.332 304.956 488.342C304.76 486.495 304.617 484.581 304.421 482.734C231.393 504.175 156.56 500.042 82.3498 503.977C82.5455 505.824 82.6886 507.739 82.8842 509.586C167.633 487.063 253.102 465.912 339.854 470.332C339.658 468.485 339.515 466.571 339.32 464.724C262.793 487.644 176.228 501.611 100.558 467.673C100.702 469.383 100.899 471.161 101.043 472.871C162.735 434.471 238.877 437.383 304.633 451.706L304.67 446.239C220.019 477.305 127.132 487.06 41.4845 458.111L41.4471 463.579C127.5 433.069 216.665 419.598 305.33 433.531C305.134 431.684 304.991 429.77 304.795 427.923C256.138 448.3 204.759 455.467 153.942 456.487C103.439 457.441 51.5785 451.277 3.4622 430.445L3.42441 435.981C87.7214 395.822 178.215 378.328 267.4 392.264L267.44 386.523C196.739 394.857 124.823 390.539 56.0589 366.9C55.838 368.744 55.6688 370.657 55.448 372.5C149.235 368.288 244.815 360.534 336.376 392.598L336.413 387.131C287.247 405.727 234.458 405.982 184.01 398.735C156.238 394.786 128.75 387.217 102.12 376.168C89.2456 370.817 76.7453 364.102 64.6164 356.365C59.5368 353.118 54.6166 349.394 49.749 345.601C42.3441 339.81 50.2725 337.54 55.2459 333.473C99.0099 297.89 156.867 294.936 206.691 294.456C256.254 294.043 305.613 300.531 354.874 306.13C354.679 304.283 354.536 302.368 354.34 300.522C258.422 327.137 160.14 326.466 62.6906 325.801L62.6514 331.542C168.098 327.477 273.809 315.213 379.081 329.123L379.12 323.45C277.184 331.776 174.997 331.078 73.1847 321.362L73.146 327.034C160.566 332.689 246.57 355.215 333.647 365.309L333.686 359.569C246.598 358.701 159.776 349.223 73.0606 339.541L73.0219 345.213C164.64 345.976 256.125 350.974 347.609 356.246L347.647 350.574C256.202 354.939 157.635 373.13 69.3029 333.296C58.8713 328.577 48.9706 322.358 39.4937 315.049C40.7881 316.083 53.4896 308.583 55.4213 307.776C62.2091 304.815 69.2001 302.608 76.1906 300.468C105.144 291.576 135.142 289.799 164.714 289.385C221.203 288.677 277.631 296.854 334.146 292.251L334.184 286.578C226.751 299.514 116.625 295.071 11.5901 261.685L11.5528 267.152C127.089 226.455 252.873 247.817 363.839 182.552C365.982 181.268 364.707 177.432 362.782 177.214C258.73 167.687 153.703 171.276 50.6306 147.813C50.4098 149.657 50.2406 151.569 50.0198 153.413C82.5914 148.304 115.109 143.469 147.911 142.736C183.629 141.955 223.639 145.303 253.907 172.643C254.075 170.936 254.295 169.16 254.463 167.453C180.003 184.988 104.26 184.608 28.9348 184.093L28.8956 189.834C136.394 190.226 252.78 169.97 354.915 223.909L354.953 218.442C250.713 259.148 139.365 258.32 31.9858 248.086L31.9471 253.759C116.62 250.1 201.101 259.22 285.743 260.071L285.781 254.398C201.606 253.892 110.205 259.419 33.4087 207.43C33.2408 209.138 33.0205 210.913 32.8527 212.621C126.079 191.386 221.135 199.485 314.695 182.627C317.197 182.165 316.503 177.171 314.161 177.019C218.878 171.652 119.394 171.588 30.5129 120.679C30.3451 122.386 30.1248 124.162 29.9569 125.869C123.253 79.0738 227.761 90.5176 325.094 100.614C324.899 98.7671 324.756 96.8524 324.56 95.0057C246.924 112.656 167.165 120.928 89.2548 102.558L89.2175 108.025C186.954 81.9008 287.378 81.4244 385.115 55.2998C387.722 54.6341 386.816 50.1171 384.581 49.6917C278.715 31.2673 169.504 52.871 65.5365 15.6643L65.4992 21.1318C158.529 -1.88096 256.468 3.29846 349.414 23.0699L349.452 17.6025C257.753 59.1462 156.686 62.147 61.2587 47.4846L61.22 53.1571C163.971 39.8475 272.222 44.4138 369.822 91.6923C369.677 89.9827 369.481 88.2044 369.336 86.4947C318.1 126.196 257.071 136.168 198.784 141.101C140.028 146.031 81.0647 143.168 22.312 147.62C19.4995 147.805 19.4636 153.068 22.2733 153.292C133.561 163.005 246 164.046 355.206 196.573L355.243 191.105C254.591 217.278 151.925 225.873 49.6946 216.29L49.6559 221.962C168.639 217.785 289.583 200.841 407.117 233.424L407.155 227.957C293.608 267.027 176.391 271.832 59.7322 271.104L59.6935 276.776C162.87 277.412 268.212 273.347 368.326 310.732L368.364 305.265C251.767 348.894 131.439 367.005 10.4362 362.078L10.3971 367.819C119.183 355.029 228.396 355.979 337.238 365.471C337.042 363.624 336.899 361.709 336.704 359.863C239.285 385.169 140.442 390.441 41.5038 394.276C39.1603 394.397 38.3979 399.312 40.8929 399.876C147.924 423.025 258.358 397.533 363.996 434.068L364.034 428.532C267.217 464.847 165.619 477.071 65.2845 472.012L65.2454 477.752C177.127 469.016 291.066 456.398 401.863 484.493C402.084 482.649 402.253 480.736 402.474 478.893C328 490.892 252.88 498.512 177.887 494.924C139.22 493.089 100.422 487.629 63.0289 474.525C56.1733 472.154 49.374 469.169 42.6792 466.116C42.2121 465.908 32.982 460.582 33.6615 460.177C39.0969 457.07 44.4811 453.826 49.8648 450.651C73.4378 436.8 97.1085 423.908 121.852 414.03C124.514 412.955 123.406 407.479 120.744 408.555L120.693 408.418Z" fill="#E4C8E2"/>
</svg>
