<svg width="121" height="121" viewBox="0 0 121 121" fill="none" xmlns="http://www.w3.org/2000/svg">
<path d="M38.6535 98.4935C32.3571 92.3372 26.0402 86.1948 19.7641 80.0177C12.6732 73.037 9.77242 64.6146 11.8828 54.8403C14.0585 44.7702 20.3208 37.9422 30.1103 34.9771C39.6845 32.0796 48.5291 34.0552 55.9255 41.0426C61.1556 45.9798 66.2669 51.0385 71.3782 56.0971C77.0132 61.6746 77.7227 70.1741 73.1492 76.4608C68.4473 82.9275 59.78 84.9807 52.8445 81.2676C45.9296 77.561 42.6098 69.0886 45.4944 61.7547C46.3524 59.5731 47.9124 57.5823 49.4778 55.787C52.4054 52.4251 52.4889 52.5271 49.2504 49.347C45.6477 45.8042 41.3781 44.0325 36.3099 44.5479C29.71 45.222 25.2181 48.9005 22.9235 54.9583C20.7157 60.8023 21.6901 66.5199 26.0673 70.9491C36.8612 81.8625 47.9606 92.4774 58.9107 103.238C60.0687 104.37 60.9478 104.449 62.1387 103.231C73.0262 92.0473 84.0316 80.9718 94.8394 69.7099C99.5411 64.8111 99.5312 55.6584 95.2211 50.141C90.5597 44.1783 81.8436 42.0434 75.6389 45.6288C73.5081 46.8578 72.1646 46.6574 70.667 44.8944C69.6246 43.6716 68.4053 42.588 67.2032 41.5077C65.6859 40.1464 65.7047 39.0244 67.4764 37.899C75.9566 32.5066 84.8984 31.4073 93.9788 35.8329C108.305 42.8149 113.262 59.3368 105.437 73.2568C104.303 75.2769 102.793 77.1539 101.171 78.8264C88.5538 91.8281 75.8705 104.765 63.1942 117.71C60.7987 120.159 60.6989 120.13 58.2025 117.689C51.6738 111.305 45.145 104.922 38.6163 98.5385C38.6299 98.5247 38.6434 98.5108 38.6536 98.5004L38.6535 98.4935ZM62.8659 62.6461C61.0977 60.9217 59.3368 60.9354 57.5834 62.6872C57.0166 63.253 56.4258 63.8225 55.9974 64.4896C54.594 66.681 54.9664 69.3936 56.8303 71.0803C58.6803 72.7533 61.169 72.8992 63.27 71.4579C66.2904 69.3814 66.1284 65.8224 62.8659 62.6461Z" fill="#4E1945"/>
</svg>
