<svg width="28" height="28" viewBox="0 0 28 28" fill="none" xmlns="http://www.w3.org/2000/svg">
<g id="&#240;&#159;&#166;&#134; icon &#34;Lock Password&#34;">
<g id="Group">
<path id="Vector" d="M10.0929 19.2093C10.0929 19.9286 9.50987 20.5116 8.79061 20.5116C8.07136 20.5116 7.48828 19.9286 7.48828 19.2093C7.48828 18.49 8.07136 17.907 8.79061 17.907C9.50987 17.907 10.0929 18.49 10.0929 19.2093Z" fill="#4B1844"/>
<path id="Vector_2" d="M15.3024 19.2093C15.3024 19.9286 14.7194 20.5116 14.0001 20.5116C13.2808 20.5116 12.6978 19.9286 12.6978 19.2093C12.6978 18.49 13.2808 17.907 14.0001 17.907C14.7194 17.907 15.3024 18.49 15.3024 19.2093Z" fill="#4B1844"/>
<path id="Vector_3" d="M19.2093 20.5116C19.9286 20.5116 20.5116 19.9286 20.5116 19.2093C20.5116 18.49 19.9286 17.907 19.2093 17.907C18.49 17.907 17.907 18.49 17.907 19.2093C17.907 19.9286 18.49 20.5116 19.2093 20.5116Z" fill="#4B1844"/>
<path id="Vector_4" fill-rule="evenodd" clip-rule="evenodd" d="M5.2093 8.7907V10.4873C4.9139 10.5081 4.63547 10.5351 4.37354 10.5704C3.2013 10.728 2.21431 11.0651 1.43041 11.8489C0.646514 12.6329 0.309355 13.6199 0.151748 14.7921C-5.13487e-05 15.9212 -2.53642e-05 17.3567 6.82278e-07 19.1378V19.2808C-2.53642e-05 21.0619 -5.13487e-05 22.4974 0.151748 23.6265C0.309355 24.7988 0.646514 25.7857 1.43041 26.5695C2.21431 27.3535 3.2013 27.6907 4.37354 27.8483C5.50261 28 6.93819 28 8.71924 28H19.2808C21.0619 28 22.4974 28 23.6265 27.8483C24.7988 27.6907 25.7857 27.3535 26.5697 26.5695C27.3535 25.7857 27.6907 24.7988 27.8483 23.6265C28 22.4974 28 21.0619 28 19.2808V19.1378C28 17.3567 28 15.9212 27.8483 14.7921C27.6907 13.6199 27.3535 12.6329 26.5697 11.8489C25.7857 11.0651 24.7988 10.728 23.6265 10.5704C23.3645 10.5351 23.0861 10.5081 22.7907 10.4873V8.7907C22.7907 3.93573 18.8549 0 14 0C9.14504 0 5.2093 3.93573 5.2093 8.7907ZM14 1.95349C10.2239 1.95349 7.16279 5.01462 7.16279 8.7907V10.4231C7.6492 10.4186 8.16756 10.4186 8.71906 10.4186H19.2808C19.8322 10.4186 20.3508 10.4186 20.8372 10.4231V8.7907C20.8372 5.01462 17.7761 1.95349 14 1.95349ZM4.63383 12.5064C3.67822 12.6349 3.17217 12.8698 2.81173 13.2303C2.4513 13.5908 2.2163 14.0968 2.08782 15.0524C1.95556 16.0362 1.95349 17.3399 1.95349 19.2093C1.95349 21.0787 1.95556 22.3824 2.08782 23.3662C2.2163 24.3218 2.4513 24.8278 2.81173 25.1883C3.17217 25.5488 3.67822 25.7837 4.63383 25.9122C5.61754 26.0444 6.92133 26.0465 8.7907 26.0465H19.2093C21.0787 26.0465 22.3824 26.0444 23.3662 25.9122C24.3218 25.7837 24.8278 25.5488 25.1883 25.1883C25.5488 24.8278 25.7837 24.3218 25.9122 23.3662C26.0444 22.3824 26.0465 21.0787 26.0465 19.2093C26.0465 17.3399 26.0444 16.0362 25.9122 15.0524C25.7837 14.0968 25.5488 13.5908 25.1883 13.2303C24.8278 12.8698 24.3218 12.6349 23.3662 12.5064C22.3824 12.3742 21.0787 12.3721 19.2093 12.3721H8.7907C6.92133 12.3721 5.61754 12.3742 4.63383 12.5064Z" fill="#4B1844"/>
</g>
</g>
</svg>
