<svg width="31" height="23" viewBox="0 0 31 23" fill="none" xmlns="http://www.w3.org/2000/svg">
<path d="M2.65625 2.875L2.65625 2.625L2.90625 2.625L28.0938 2.625L28.3438 2.625L28.3437 2.875L28.3437 5.31905L28.3437 5.43868L28.2506 5.51373C26.8908 6.6092 24.7242 8.31142 20.0982 11.8948C19.9371 12.0202 19.7433 12.1802 19.5267 12.3589C19.0875 12.7213 18.5547 13.1609 18.0118 13.5458C17.6014 13.8369 17.1716 14.1072 16.7497 14.304C16.3319 14.4989 15.9038 14.6303 15.5 14.6248C15.0961 14.6303 14.6681 14.4989 14.2503 14.3039C13.8284 14.1071 13.3987 13.8368 12.9883 13.5459C12.4455 13.1611 11.9129 12.7215 11.4736 12.3591C11.257 12.1804 11.0631 12.0204 10.9019 11.8949C6.27508 8.31091 4.10906 6.60903 2.74942 5.51373L2.65625 5.43868L2.65625 5.31905L2.65625 2.875ZM28.3437 20.125L28.3437 20.375L28.0937 20.375L2.90625 20.375L2.65625 20.375L2.65625 20.125L2.65625 9.00827L2.65625 8.493L3.06098 8.81191C4.44759 9.90448 6.41496 11.4384 9.41356 13.7612L9.41407 13.7616C9.61884 13.9211 9.83922 14.1024 10.0748 14.2963C10.6478 14.7679 11.3108 15.3135 12.0583 15.7985C13.1075 16.4792 14.2767 17.0065 15.4987 16.9999L15.5013 16.9999C16.7293 17.0065 17.9089 16.4713 18.9621 15.7862C19.7112 15.299 20.3722 14.7537 20.9365 14.2881C21.1699 14.0955 21.3868 13.9166 21.5865 13.7611L21.587 13.7607C24.5856 11.4379 26.5525 9.90436 27.939 8.81185L28.3437 8.49295L28.3437 9.00821L28.3437 20.125ZM28.0938 0.25L2.90625 0.249998C1.43667 0.249997 0.250002 1.42777 0.250002 2.875L0.25 20.125C0.25 21.5722 1.43667 22.75 2.90625 22.75L28.0937 22.75C29.5633 22.75 30.75 21.5722 30.75 20.125L30.75 2.875C30.75 1.42777 29.5633 0.25 28.0938 0.25Z" fill="#4E1945" stroke="#FCE8F3" stroke-width="0.5"/>
</svg>
