<svg width="28" height="24" viewBox="0 0 28 24" fill="none" xmlns="http://www.w3.org/2000/svg">
<g id="Modo_de_aislamiento" clip-path="url(#clip0_177_1106)">
<path id="Vector" d="M16.6419 3.93815C18.003 3.71659 17.682 3.3235 16.8923 4.48133C15.8136 6.06799 15.2294 7.86192 14.4846 9.65584C12.7639 13.8083 10.7992 17.8464 9.45086 22.1847C9.34171 22.5349 9.77189 22.6636 9.93882 22.4134C14.4846 15.8167 18.8313 8.69098 20.2631 0.386039C20.308 0.114449 20.0062 -0.142847 19.8136 0.0930077C15.5375 5.4319 12.5006 11.6642 10.3112 18.361C10.2085 18.6826 10.6643 18.8899 10.7992 18.5897C12.9051 14.0156 15.7237 9.8917 17.6627 5.22463C17.7912 4.92445 17.4765 4.62428 17.239 4.86013C12.8152 9.36996 9.16836 14.8232 7.3064 21.2199C7.22293 21.5129 7.56964 21.7202 7.75584 21.5129C11.255 17.5891 14.5552 13.4581 17.6178 9.09837C17.4765 8.97687 17.3353 8.85536 17.194 8.74101C14.3754 13.4581 11.6788 18.2896 9.87462 23.607C9.78473 23.8786 10.1571 24.1287 10.3241 23.9C13.7141 19.1329 16.6804 14.0299 19.8008 9.04119C19.9934 8.74101 19.6017 8.49086 19.377 8.67669C15.9998 11.5856 13.4444 15.2878 12.0191 19.7904C11.9228 20.0906 12.2823 20.2622 12.4685 20.0835C15.9934 16.5957 19.1651 12.6576 21.5151 8.09062C21.6435 7.84762 21.3738 7.49741 21.1491 7.68324C16.6676 11.3068 13.6948 16.5099 10.7607 21.6344C10.5937 21.9203 10.9725 22.2348 11.1844 21.9989C15.1716 17.4962 18.5552 12.3932 22.3305 7.67609C22.1892 7.55459 22.048 7.43309 21.9067 7.31159C19.8714 10.5349 18.0865 13.9227 16.3337 17.339C16.1603 17.682 16.5905 17.9393 16.796 17.6392C19.4156 13.7869 22.2727 10.1561 25.3289 6.71838C25.2005 6.57544 25.0785 6.43964 24.9501 6.2967C21.1042 10.6207 17.7077 15.3521 15.0432 20.6767C14.8698 21.0197 15.3064 21.2842 15.5054 20.9769C18.6643 16.0168 22.3305 11.4998 26.1828 7.19724C26.0544 7.05429 25.9324 6.9185 25.804 6.77556C22.3883 11.5284 18.9918 16.3027 16.3273 21.6344C16.186 21.9203 16.552 22.2633 16.751 21.9989C20.7061 16.5957 24.4557 11.0209 27.942 5.23178C28.1282 4.92445 27.743 4.67431 27.5183 4.86728C22.1571 9.57008 18.3305 15.9382 13.3674 21.0984C13.5151 21.1913 13.6692 21.2913 13.8168 21.3914C15.3449 17.0317 17.5793 13.0078 19.7944 9.04834C19.9549 8.75531 19.5825 8.44798 19.3706 8.68384C15.9549 12.529 12.9244 16.7672 9.50865 20.6195C9.6499 20.741 9.79115 20.8625 9.9324 20.984C12.9436 15.3164 16.6804 10.0632 18.5359 3.73089C18.613 3.47359 18.3369 3.26632 18.1443 3.39497C12.9565 6.69694 9.2133 12.3217 6.04155 17.825C6.20207 17.9036 6.369 17.9751 6.52951 18.0537C7.73016 14.7589 8.23738 11.1567 9.9324 8.09777C10.1058 7.7833 9.73337 7.5403 9.50865 7.73327C5.73979 11.0066 2.99179 15.4879 0.089707 19.6689C0.230959 19.7904 0.372211 19.9119 0.513463 20.0334C4.35937 14.3729 8.63545 9.1341 13.3353 4.34554C13.194 4.22404 13.0528 4.10254 12.9115 3.98104C10.735 9.12696 7.42197 13.4724 4.76386 18.3038C4.57767 18.6398 5.02711 18.9042 5.22614 18.604C8.60977 13.4724 12.4043 8.68384 15.5183 3.33065C15.6916 3.03762 15.3128 2.74459 15.0945 2.96615C10.613 7.59033 7.73658 13.6368 5.18762 19.7333C5.05921 20.0406 5.37382 20.3265 5.61138 20.0978C8.87301 16.8744 11.7494 13.2508 14.6194 9.59867C14.491 9.45572 14.369 9.31993 14.2406 9.17699C11.3578 12.9292 9.15552 17.1532 7.3385 21.6487C7.21651 21.9489 7.5247 22.2491 7.76226 22.0132C12.1603 17.4748 15.056 11.5713 18.5231 6.20379C18.7029 5.9322 18.292 5.58199 18.0993 5.84643C16.1347 8.56233 14.6194 11.5856 12.9115 14.5016C12.7253 14.8232 13.1876 15.1234 13.3738 14.8018C15.056 11.9358 16.5391 8.94828 18.4782 6.26811C18.3369 6.14661 18.1956 6.02511 18.0544 5.90361C14.613 11.2354 11.743 17.096 7.37703 21.5915C7.51828 21.713 7.65953 21.8345 7.80078 21.956C9.60495 17.5105 11.7623 13.3223 14.6194 9.60581C14.8441 9.31278 14.4717 8.8911 14.2406 9.18413C11.3706 12.8363 8.50062 16.4599 5.23256 19.6832C5.37382 19.8047 5.51507 19.9262 5.65632 20.0477C8.17959 13.9941 11.0303 7.99057 15.4798 3.40212C15.3385 3.28062 15.1973 3.15912 15.056 3.03762C11.942 8.3908 8.14749 13.1794 4.76386 18.311C4.91796 18.4111 5.07205 18.5111 5.22614 18.6112C7.87783 13.7797 11.1973 9.44143 13.3738 4.28836C13.5022 3.98818 13.1876 3.688 12.9501 3.92386C8.21812 8.74101 3.91635 14.0227 0.0447631 19.7261C-0.141433 19.9977 0.282323 20.3551 0.468519 20.0906C3.37703 15.9096 6.12502 11.4355 9.9003 8.15495C9.75905 8.03345 9.6178 7.91195 9.47654 7.79045C7.75584 10.8923 7.23577 14.5373 6.02229 17.8893C5.90672 18.2181 6.35616 18.3896 6.51025 18.118C9.63706 12.7005 13.3096 7.15435 18.4204 3.90242C18.292 3.78806 18.1571 3.68086 18.0287 3.5665C16.1924 9.84881 12.4685 15.0591 9.47654 20.6767C9.32245 20.9697 9.682 21.277 9.9003 21.0412C13.316 17.196 16.3465 12.9578 19.7623 9.10551C19.621 8.98401 19.4798 8.86251 19.3385 8.74816C17.0977 12.7505 14.857 16.8172 13.3096 21.227C13.2069 21.52 13.5793 21.7059 13.759 21.52C18.7221 16.3598 22.5488 9.99176 27.9099 5.28896C27.7687 5.16746 27.6274 5.04596 27.4862 4.92445C24.0255 10.6707 20.308 16.2097 16.3786 21.5701C16.5199 21.6916 16.6611 21.8131 16.8024 21.9346C19.4477 16.6457 22.8056 11.9072 26.1956 7.19724C26.4075 6.9042 26.0672 6.49682 25.8168 6.77556C21.9324 11.121 18.2406 15.6737 15.056 20.6767C15.2101 20.7767 15.3642 20.8768 15.5183 20.9769C18.1571 15.6952 21.5279 10.9995 25.3417 6.71838C25.5857 6.44679 25.2069 6.02511 24.9629 6.2967C21.8746 9.7702 18.9982 13.4438 16.3465 17.339C16.5006 17.439 16.6547 17.5391 16.8088 17.6392C18.5616 14.2228 20.3465 10.8351 22.3818 7.61177C22.5552 7.33303 22.1635 6.99712 21.9581 7.24727C18.1828 11.9644 14.7992 17.0602 10.812 21.5701C10.9533 21.6916 11.0945 21.8131 11.2358 21.9346C14.1122 16.903 17.0335 11.7571 21.4316 8.19783C21.3096 8.06204 21.1876 7.92624 21.0656 7.79045C18.735 12.3146 15.5953 16.2097 12.1025 19.6618C12.2502 19.7619 12.4043 19.8548 12.552 19.9548C13.9452 15.5522 16.4749 11.9501 19.7751 9.10551C19.6338 8.98401 19.4926 8.86251 19.3513 8.74816C16.2566 13.694 13.3225 18.7541 9.95809 23.4855C10.1058 23.5784 10.2599 23.6785 10.4075 23.7785C12.1924 18.504 14.8826 13.7297 17.6692 9.04834C17.8361 8.7696 17.438 8.41939 17.2454 8.68384C14.1828 13.0364 10.8826 17.1746 7.38345 21.0984C7.53112 21.1913 7.68521 21.2913 7.83288 21.3914C9.66916 15.0876 13.2711 9.73446 17.6242 5.2961C17.483 5.1746 17.3417 5.0531 17.2005 4.9316C15.2679 9.59867 12.4428 13.7225 10.3369 18.2967C10.4974 18.3753 10.6643 18.4468 10.8249 18.5254C12.9822 11.9143 15.9677 5.78211 20.1924 0.514687C20.0448 0.421775 19.8907 0.321715 19.743 0.221656C18.3241 8.47657 13.9902 15.5522 9.47654 22.1061C9.63706 22.1847 9.80399 22.2562 9.96451 22.3348C11.3706 17.8107 13.438 13.5868 15.2358 9.24846C15.9677 7.47597 16.5648 5.78211 17.7205 4.28836C17.9196 4.03107 18.2599 3.75948 18.1956 3.38783C18.1764 3.28777 18.0929 3.20915 18.0094 3.18056C17.5729 3.03047 16.918 3.28062 16.4942 3.35209C16.1539 3.40927 16.3016 3.98104 16.6355 3.92386L16.6419 3.93815Z" fill="#3E083F"/>
</g>
<defs>
<clipPath id="clip0_177_1106">
<rect width="28" height="24" fill="white"/>
</clipPath>
</defs>
</svg>
