<svg width="15" height="12" viewBox="0 0 15 12" fill="none" xmlns="http://www.w3.org/2000/svg">
<g id="&#240;&#159;&#166;&#134; icon &#34;mail&#34;">
<g id="Group">
<path id="Vector" d="M14.5021 0H0.497922C0.223247 0 0 0.211825 0 0.47222V1.4222C0 1.46597 0.0500649 1.5162 0.090974 1.53651L7.45188 5.5224C7.47097 5.53293 7.4924 5.53773 7.51383 5.53773C7.53565 5.53773 7.55766 5.53237 7.57695 5.52148L14.7154 1.54039C14.7555 1.51915 14.8619 1.46301 14.9018 1.43716C14.9501 1.40595 15 1.37769 15 1.32173V0.472035C15 0.211825 14.7768 0 14.5021 0Z" fill="#B895C5"/>
<path id="Vector_2" d="M14.938 2.85456C14.8991 2.83314 14.8515 2.83406 14.8124 2.8553L10.7727 5.10855C10.7404 5.12628 10.718 5.15767 10.7125 5.19313C10.7076 5.2284 10.7193 5.26441 10.7445 5.29045L14.7847 9.41928C14.8087 9.44384 14.8414 9.45696 14.8757 9.45696C14.8911 9.45696 14.9067 9.45419 14.9213 9.44901C14.969 9.4311 15.0002 9.3877 15.0002 9.33895V2.95706C15.0002 2.91458 14.9766 2.87562 14.938 2.85456Z" fill="#B895C5"/>
<path id="Vector_3" d="M9.60854 5.86516C9.5688 5.82435 9.5049 5.8153 9.45445 5.84337L7.83523 6.74663C7.6451 6.85263 7.40159 6.85356 7.21029 6.75051L5.78529 5.97874C5.73815 5.95344 5.67873 5.95953 5.63899 5.99462L0.227692 10.753C0.198861 10.7785 0.184446 10.8153 0.188731 10.8524C0.193017 10.8895 0.215809 10.9227 0.2499 10.9414C0.334056 10.9883 0.41529 11.0106 0.497887 11.0106H14.3589C14.4085 11.0106 14.4533 10.9828 14.4728 10.9395C14.4927 10.8967 14.4837 10.8466 14.4498 10.8123L9.60854 5.86516Z" fill="#B895C5"/>
<path id="Vector_4" d="M4.44818 5.43176C4.4774 5.40646 4.49201 5.36915 4.48773 5.33203C4.48344 5.29473 4.46007 5.26167 4.42578 5.24283L0.185649 2.94693C0.147857 2.92624 0.10013 2.92661 0.0615584 2.94766C0.0233766 2.96872 0 3.00768 0 3.04961V9.07378C0 9.1205 0.0292208 9.16297 0.0744156 9.18163C0.0903896 9.18846 0.107338 9.19178 0.124481 9.19178C0.155065 9.19178 0.185649 9.18089 0.209026 9.1602L4.44818 5.43176Z" fill="#B895C5"/>
</g>
</g>
</svg>
