<svg width="30" height="33" viewBox="0 0 30 33" fill="none" xmlns="http://www.w3.org/2000/svg">
<g id="&#240;&#159;&#166;&#134; icon &#34;Alternate Phone icon&#34;">
<path id="Vector" d="M29.1445 23.0696L22.5818 20.0089C22.3015 19.8788 21.9899 19.8514 21.694 19.9308C21.3981 20.0101 21.1339 20.1919 20.9412 20.4488L18.0349 24.313C13.4737 21.9727 9.80303 17.9781 7.65248 13.0145L11.2033 9.85174C11.4399 9.64239 11.6073 9.35487 11.6802 9.03271C11.7532 8.71056 11.7277 8.37131 11.6076 8.06632L8.79508 0.924651C8.66331 0.595884 8.43025 0.327458 8.13609 0.165656C7.84194 0.00385469 7.50512 -0.0411797 7.18372 0.0383184L1.08986 1.56868C0.779996 1.64655 0.503531 1.83641 0.305592 2.10729C0.107653 2.37817 -7.13808e-05 2.71406 3.54862e-08 3.06014C3.54862e-08 19.4158 12.1819 32.6471 27.188 32.6471C27.5061 32.6473 27.8149 32.5301 28.0639 32.3147C28.313 32.0993 28.4875 31.7983 28.5591 31.461L29.9654 24.8295C30.038 24.478 29.9957 24.11 29.8459 23.7888C29.696 23.4676 29.448 23.2133 29.1445 23.0696Z" fill="#85296C"/>
</g>
</svg>
