<svg width="14" height="14" viewBox="0 0 14 14" fill="none" xmlns="http://www.w3.org/2000/svg">
<g id="&#240;&#159;&#166;&#134; icon &#34;Alternate Phone&#34;">
<path id="Vector" d="M13.6007 9.8929L10.5382 8.58037C10.4074 8.52462 10.262 8.51287 10.1239 8.5469C9.98579 8.58092 9.8625 8.65889 9.77255 8.76905L8.41628 10.4261C6.28773 9.42252 4.57474 7.70953 3.57116 5.58098L5.22822 4.22471C5.3386 4.13493 5.41673 4.01164 5.45077 3.87349C5.48481 3.73534 5.47292 3.58986 5.41689 3.45907L4.10437 0.396517C4.04287 0.255532 3.93411 0.140423 3.79684 0.0710381C3.65957 0.001653 3.50239 -0.017659 3.3524 0.016432L0.508603 0.672694C0.363998 0.706086 0.234981 0.787506 0.14261 0.903666C0.0502382 1.01983 -3.3311e-05 1.16387 1.65602e-08 1.31228C1.65602e-08 8.32607 5.68486 14 12.6877 14C12.8362 14.0001 12.9803 13.9499 13.0965 13.8575C13.2127 13.7651 13.2942 13.636 13.3276 13.4914L13.9838 10.6476C14.0177 10.4969 13.998 10.3391 13.9281 10.2013C13.8581 10.0636 13.7424 9.95451 13.6007 9.8929Z" fill="#B895C5"/>
</g>
</svg>
