<svg width="18" height="26" viewBox="0 0 18 26" fill="none" xmlns="http://www.w3.org/2000/svg">
<g id="&#240;&#159;&#166;&#134; icon &#34;placemark&#34;">
<path id="Vector" d="M9 0C13.9706 0 18 3.70588 18 10.0588C18 12.5808 16.5817 15.6867 14.8712 18.5155L14.5836 18.9843C14.487 19.1396 14.3896 19.2939 14.2918 19.447L13.9968 19.9028C13.9475 19.9782 13.898 20.0532 13.8486 20.1279L13.5511 20.5717L13.2535 21.0064L12.9569 21.4311L12.6623 21.845L12.3711 22.247L12.0842 22.6364L11.803 23.0122L11.5285 23.3736L11.132 23.8867L10.7572 24.3623L10.408 24.7975C10.3707 24.8435 10.334 24.8887 10.2979 24.9331C9.5811 25.7822 8.37787 25.7489 7.70256 24.9337L7.36278 24.5127L6.99607 24.0502L6.73857 23.7203L6.472 23.3743L6.05766 22.8267L5.77348 22.444L5.48427 22.0482L5.19122 21.6401L4.89546 21.2207L4.59816 20.7909L4.30048 20.3515C4.20131 20.2036 4.10228 20.0542 4.00357 19.9035L3.7086 19.4476L3.41673 18.9848L3.12911 18.516C1.41845 15.6871 0 12.5809 0 10.0588C0 3.70588 4.02944 0 9 0ZM9 2.11765C4.96501 2.11765 2.11765 5.12569 2.11765 10.0588C2.11765 11.8297 3.04202 14.1945 4.55865 16.8071L4.82438 17.2573L5.10135 17.712L5.38917 18.1708C5.43803 18.2476 5.48732 18.3245 5.53704 18.4016L5.84046 18.8658L6.15381 19.3331L6.47671 19.8031L6.8088 20.2754L7.14971 20.7498C7.20724 20.8289 7.26513 20.9082 7.32335 20.9875L7.67679 21.464L7.99727 21.8874L8.16251 22.1018C8.52049 22.5642 9.18553 22.6488 9.64793 22.2908C9.71873 22.236 9.78229 22.1725 9.83709 22.1017L10.1376 21.7096L10.4957 21.2317L10.8457 20.755L11.1872 20.28L11.5199 19.8069L11.8433 19.3363C11.9495 19.1798 12.0541 19.0239 12.1571 18.8684L12.4609 18.4037C12.7098 18.0179 12.9479 17.6358 13.1743 17.2584L13.4403 16.8079C14.9583 14.1935 15.8824 11.8293 15.8824 10.0588C15.8824 5.12569 13.035 2.11765 9 2.11765ZM9 4.76471C11.3391 4.76471 13.2353 6.66091 13.2353 9C13.2353 11.3391 11.3391 13.2353 9 13.2353C6.66091 13.2353 4.76471 11.3391 4.76471 9C4.76471 6.66091 6.66091 4.76471 9 4.76471ZM9 6.88235C7.83046 6.88235 6.88235 7.83046 6.88235 9C6.88235 10.1695 7.83046 11.1176 9 11.1176C10.1695 11.1176 11.1176 10.1695 11.1176 9C11.1176 7.83046 10.1695 6.88235 9 6.88235Z" fill="white"/>
</g>
</svg>
