<svg width="25" height="25" viewBox="0 0 25 25" fill="none" xmlns="http://www.w3.org/2000/svg">
<g id="&#240;&#159;&#166;&#134; icon &#34;instagram with circle icon&#34;">
<path id="Vector" d="M17.5755 8.66015C17.4671 8.37923 17.3009 8.12414 17.0879 7.91131C16.8748 7.69849 16.6196 7.53265 16.3385 7.42448C15.9516 7.28115 15.5428 7.2054 15.1302 7.20052C14.444 7.16927 14.2383 7.16146 12.5 7.16146C10.7617 7.16146 10.556 7.16927 9.86979 7.20052C9.45672 7.20525 9.04754 7.281 8.66016 7.42448C8.37923 7.53294 8.12414 7.69905 7.91132 7.9121C7.69849 8.12515 7.53265 8.38042 7.42448 8.66146C7.28116 9.04843 7.2054 9.45716 7.20052 9.86979C7.16927 10.556 7.16146 10.7617 7.16146 12.5C7.16146 14.2383 7.16927 14.444 7.20052 15.1302C7.20525 15.5433 7.28101 15.9525 7.42448 16.3398C7.53295 16.6208 7.69906 16.8759 7.91211 17.0887C8.12516 17.3015 8.38042 17.4673 8.66146 17.5755C9.04843 17.7188 9.45716 17.7946 9.86979 17.7995C10.556 17.8307 10.7617 17.8372 12.5 17.8372C14.2383 17.8372 14.444 17.8307 15.1302 17.7982C15.5432 17.7939 15.9524 17.7185 16.3398 17.5755C16.6208 17.4671 16.8759 17.3009 17.0887 17.0879C17.3015 16.8748 17.4674 16.6196 17.5755 16.3385C17.7188 15.9516 17.7946 15.5428 17.7995 15.1302C17.8307 14.444 17.8372 14.2383 17.8372 12.5C17.8372 10.7617 17.8307 10.556 17.7982 9.86979C17.7939 9.45679 17.7186 9.04762 17.5755 8.66015ZM12.5 15.8437C11.8387 15.8437 11.1922 15.6476 10.6423 15.2802C10.0924 14.9128 9.66386 14.3906 9.41078 13.7796C9.1577 13.1686 9.09148 12.4963 9.2205 11.8477C9.34952 11.199 9.66798 10.6032 10.1356 10.1356C10.6032 9.66798 11.199 9.34952 11.8477 9.2205C12.4963 9.09148 13.1686 9.1577 13.7796 9.41078C14.3906 9.66386 14.9128 10.0924 15.2802 10.6423C15.6476 11.1922 15.8438 11.8387 15.8438 12.5C15.8438 13.3868 15.4915 14.2373 14.8644 14.8644C14.2373 15.4915 13.3868 15.8437 12.5 15.8437ZM15.9753 9.80599C15.8207 9.80599 15.6697 9.76017 15.5412 9.67432C15.4127 9.58848 15.3126 9.46646 15.2535 9.32371C15.1944 9.18095 15.1789 9.02387 15.209 8.87232C15.2392 8.72078 15.3136 8.58157 15.4228 8.47231C15.5321 8.36305 15.6713 8.28864 15.8228 8.2585C15.9744 8.22835 16.1315 8.24383 16.2742 8.30296C16.417 8.36209 16.539 8.46222 16.6248 8.5907C16.7107 8.71917 16.7565 8.87022 16.7565 9.02474C16.7565 9.23194 16.6742 9.43065 16.5277 9.57716C16.3812 9.72368 16.1825 9.80599 15.9753 9.80599ZM14.6706 12.5C14.6706 12.9293 14.5433 13.349 14.3048 13.7059C14.0663 14.0629 13.7273 14.3411 13.3306 14.5053C12.934 14.6696 12.4976 14.7126 12.0765 14.6289C11.6555 14.5451 11.2687 14.3384 10.9652 14.0348C10.6616 13.7313 10.4549 13.3445 10.3711 12.9235C10.2874 12.5024 10.3304 12.066 10.4947 11.6694C10.6589 11.2727 10.9371 10.9337 11.2941 10.6952C11.651 10.4567 12.0707 10.3294 12.5 10.3294C13.0757 10.3294 13.6278 10.5581 14.0348 10.9652C14.4419 11.3722 14.6706 11.9243 14.6706 12.5ZM12.5 0C10.0277 0 7.61099 0.733112 5.55538 2.10663C3.49976 3.48015 1.89761 5.43238 0.951511 7.71645C0.00541603 10.0005 -0.242126 12.5139 0.24019 14.9386C0.722505 17.3634 1.91301 19.5907 3.66117 21.3388C5.40933 23.087 7.63661 24.2775 10.0614 24.7598C12.4861 25.2421 14.9995 24.9946 17.2835 24.0485C19.5676 23.1024 21.5199 21.5002 22.8934 19.4446C24.2669 17.389 25 14.9723 25 12.5C25 9.18479 23.683 6.00537 21.3388 3.66116C18.9946 1.31696 15.8152 0 12.5 0ZM18.9714 15.1836C18.9603 15.7239 18.8577 16.2584 18.668 16.7643C18.5008 17.1967 18.245 17.5894 17.9172 17.9172C17.5894 18.245 17.1967 18.5007 16.7643 18.668C16.2588 18.8576 15.7247 18.9602 15.1849 18.9713C14.4896 19.0026 14.2682 19.0104 12.5 19.0104C10.7318 19.0104 10.5104 19.0026 9.81511 18.9713C9.27527 18.9602 8.74123 18.8576 8.23568 18.668C7.80329 18.5007 7.4106 18.245 7.08278 17.9172C6.75497 17.5894 6.49925 17.1967 6.33204 16.7643C6.1424 16.2588 6.03982 15.7247 6.02865 15.1849C5.9974 14.4896 5.98959 14.2682 5.98959 12.5C5.98959 10.7318 5.9974 10.5104 6.02865 9.8151C6.0394 9.27534 6.14154 8.74131 6.33073 8.23567C6.49794 7.80291 6.75379 7.40989 7.08184 7.08184C7.4099 6.75378 7.80292 6.49794 8.23568 6.33073C8.74131 6.14154 9.27535 6.0394 9.81511 6.02864C10.5104 5.99739 10.7318 5.98958 12.5 5.98958C14.2682 5.98958 14.4896 5.99739 15.1849 6.02864C15.7247 6.0394 16.2587 6.14154 16.7643 6.33073C17.1968 6.49809 17.5896 6.754 17.9174 7.08205C18.2453 7.4101 18.5009 7.80304 18.668 8.23567C18.8576 8.74123 18.9602 9.27527 18.9714 9.8151C19.0026 10.5104 19.0104 10.7318 19.0104 12.5C19.0104 14.2682 19.0026 14.4883 18.9714 15.1836Z" fill="#4B1844"/>
</g>
</svg>
