<svg width="25" height="25" viewBox="0 0 25 25" fill="none" xmlns="http://www.w3.org/2000/svg">
<g id="&#240;&#159;&#166;&#134; icon &#34;facebook icon&#34;">
<path id="Vector" d="M25 12.5774C25 5.62919 19.4008 0 12.5 0C5.59453 0 0 5.62919 0 12.5774C0 18.8536 4.56953 24.0575 10.5469 25V16.2139H7.37266V12.5782H10.5469V9.80568C10.5469 6.65425 12.4102 4.91384 15.2664 4.91384C16.6344 4.91384 18.0664 5.1591 18.0664 5.1591V8.25394H16.4875C14.9375 8.25394 14.4531 9.22476 14.4531 10.2192V12.5774H17.9195L17.3625 16.2131H14.4531V24.9992C20.4258 24.0567 25 18.8528 25 12.5766V12.5774Z" fill="#4B1844"/>
</g>
</svg>
