<svg width="158" height="40" viewBox="0 0 158 40" fill="none" xmlns="http://www.w3.org/2000/svg">
<path d="M11.0788 17.2774C11.0788 14.4601 11.0711 11.6413 11.0803 8.82409C11.0911 5.64072 12.3602 3.09341 15.0493 1.39003C17.8201 -0.364551 20.7622 -0.459183 23.6101 1.11699C26.3948 2.65903 27.9106 5.12412 27.9661 8.37885C28.0062 10.6795 27.9923 12.9802 27.9784 15.2808C27.963 17.8173 26.1898 19.8806 23.7458 20.2405C21.2324 20.6112 18.8409 19.0878 18.144 16.6708C17.4501 14.26 18.6374 11.6057 20.9441 10.6252C21.6303 10.3336 22.429 10.2451 23.1845 10.2017C24.5985 10.1195 24.5939 10.1614 24.597 8.70929C24.6016 7.09279 24.0557 5.71984 22.8129 4.67578C21.1939 3.3168 19.3605 3.11202 17.4748 3.94199C15.6568 4.74404 14.5744 6.24575 14.5405 8.23768C14.4587 13.1477 14.5127 18.0608 14.5004 22.9724C14.5004 23.4905 14.6777 23.7093 15.2189 23.7093C20.1778 23.6984 25.1382 23.7388 30.097 23.6922C32.2542 23.6721 34.3312 21.6227 34.6272 19.4027C34.9464 17.0028 33.4955 14.5315 31.3028 13.9141C30.5504 13.7015 30.2975 13.3494 30.3653 12.6125C30.4116 12.1005 30.3869 11.5793 30.3653 11.0627C30.3376 10.4111 30.5966 10.1645 31.2458 10.318C34.3543 11.0518 36.5901 12.8514 37.6016 15.9184C39.1975 20.7571 36.5454 25.5864 31.6451 26.9097C30.9343 27.1021 30.1726 27.1766 29.4325 27.1797C23.6764 27.2014 17.9204 27.1936 12.1643 27.189C11.0757 27.189 11.0603 27.1595 11.0603 26.0425C11.0603 23.1213 11.0603 20.2001 11.0603 17.2789C11.0665 17.2789 11.0726 17.2789 11.0773 17.2789L11.0788 17.2774ZM24.6 14.7983C24.599 14.0082 24.2048 13.6085 23.4174 13.5991C23.1629 13.596 22.9024 13.5883 22.6557 13.6395C21.8461 13.8086 21.3126 14.5005 21.3435 15.3041C21.3743 16.1015 21.8939 16.7034 22.688 16.8616C23.8306 17.0881 24.6031 16.2551 24.6 14.7983Z" fill="#FCE8F3"/>
<path d="M41.702 13.1082H44.602V14.8072C44.9148 14.1378 45.3333 13.6293 45.8533 13.2819C46.3732 12.9345 46.9439 12.7608 47.5611 12.7608C48.0008 12.7608 48.4573 12.8752 48.935 13.1082L47.8824 16.0231C47.485 15.824 47.1595 15.7266 46.9059 15.7266C46.3859 15.7266 45.9463 16.0486 45.587 16.6968C45.2276 17.345 45.0501 18.6076 45.0501 20.493L45.0628 21.1497V26.6109H41.7063V13.104L41.702 13.1082Z" fill="#FCE8F3"/>
<path d="M59.5625 13.1082H62.9444V26.6151H59.5625V25.1873C58.903 25.8144 58.2394 26.2677 57.5757 26.5473C56.912 26.827 56.1933 26.9626 55.4155 26.9626C53.6738 26.9626 52.1689 26.2847 50.9007 24.9331C49.6325 23.5816 48.9941 21.8996 48.9941 19.8871C48.9941 17.8746 49.6071 16.0952 50.8373 14.7606C52.0674 13.4302 53.5597 12.7608 55.314 12.7608C56.1215 12.7608 56.8824 12.9133 57.5883 13.2184C58.2985 13.5234 58.9538 13.9852 59.5541 14.5953V13.104L59.5625 13.1082ZM56.0073 15.8876C54.9632 15.8876 54.0923 16.2562 53.4033 16.9976C52.71 17.739 52.3676 18.6881 52.3676 19.8447C52.3676 21.0014 52.7184 21.9716 53.4244 22.7258C54.1304 23.4799 54.9928 23.857 56.0242 23.857C57.0557 23.857 57.9646 23.4884 58.6663 22.7469C59.3681 22.0055 59.7147 21.0353 59.7147 19.8363C59.7147 18.6372 59.3638 17.7094 58.6663 16.9807C57.9688 16.2519 57.0811 15.8876 56.0115 15.8876H56.0073Z" fill="#FCE8F3"/>
<path d="M63.9294 13.1082H67.3747L70.7777 21.0776L74.1765 13.1082H77.6049L71.8726 26.6151H69.6786L63.9337 13.1082H63.9294Z" fill="#FCE8F3"/>
<path d="M92.0878 20.8404H81.2278C81.3842 21.8021 81.8027 22.5647 82.4833 23.1325C83.1639 23.7002 84.0347 23.9841 85.0916 23.9841C86.3556 23.9841 87.442 23.5434 88.3509 22.6579L91.2001 23.9968C90.4899 25.0051 89.6402 25.7551 88.6468 26.238C87.6533 26.721 86.4781 26.9625 85.1169 26.9625C83.0033 26.9625 81.2827 26.2931 79.9511 24.9585C78.6195 23.6239 77.9558 21.9504 77.9558 19.9379C77.9558 17.9254 78.6195 16.1672 79.9427 14.8071C81.2658 13.4471 82.9272 12.765 84.9267 12.765C87.0488 12.765 88.7736 13.4471 90.1052 14.8071C91.4326 16.1672 92.1005 17.9678 92.1005 20.2006L92.0878 20.8446V20.8404ZM88.706 18.1712C88.4819 17.417 88.0423 16.8069 87.3828 16.3324C86.7233 15.8621 85.9624 15.6249 85.0958 15.6249C84.1531 15.6249 83.3245 15.8918 82.6143 16.4214C82.1662 16.7518 81.7562 17.3365 81.3757 18.1712H88.706Z" fill="#FCE8F3"/>
<path d="M92.8276 8.35449H96.3912L100.974 21.3276L105.624 8.35449H109.183L102.618 26.6151H99.2743L92.8234 8.35449H92.8276Z" fill="#FCE8F3"/>
<path d="M111.927 7.5495C112.519 7.5495 113.026 7.76557 113.453 8.19349C113.876 8.62564 114.087 9.14677 114.087 9.75687C114.087 10.367 113.876 10.8754 113.457 11.3033C113.039 11.7312 112.535 11.9431 111.952 11.9431C111.369 11.9431 110.84 11.727 110.413 11.2906C109.986 10.8542 109.779 10.3288 109.779 9.70603C109.779 9.08322 109.991 8.60022 110.409 8.18078C110.828 7.7571 111.335 7.5495 111.927 7.5495ZM110.236 13.1082H113.618V26.6151H110.236V13.1082Z" fill="#FCE8F3"/>
<path d="M122.026 12.7608C123.298 12.7608 124.49 13.0786 125.611 13.7183C126.731 14.3538 127.602 15.2181 128.232 16.3112C128.857 17.4043 129.174 18.5822 129.174 19.849C129.174 21.1158 128.857 22.3148 128.227 23.4248C127.598 24.5349 126.735 25.3992 125.645 26.0262C124.554 26.6533 123.353 26.9626 122.039 26.9626C120.107 26.9626 118.458 26.272 117.093 24.895C115.727 23.518 115.042 21.8445 115.042 19.8744C115.042 17.7645 115.816 16.0062 117.359 14.5996C118.712 13.3751 120.267 12.7608 122.026 12.7608ZM122.081 15.9511C121.033 15.9511 120.157 16.3155 119.456 17.0484C118.754 17.7814 118.407 18.7177 118.407 19.8617C118.407 21.0056 118.754 21.9886 119.443 22.7173C120.132 23.446 121.007 23.8104 122.068 23.8104C123.129 23.8104 124.009 23.4418 124.71 22.7046C125.412 21.9674 125.763 21.0226 125.763 19.8617C125.763 18.7008 125.416 17.7602 124.727 17.0357C124.038 16.3112 123.155 15.9511 122.077 15.9511H122.081Z" fill="#FCE8F3"/>
<path d="M130.574 7.89691H133.955V26.6151H130.574V7.89691Z" fill="#FCE8F3"/>
<path d="M149.538 20.8404H138.677C138.834 21.8021 139.252 22.5647 139.933 23.1325C140.614 23.7002 141.484 23.9841 142.541 23.9841C143.805 23.9841 144.892 23.5434 145.801 22.6579L148.65 23.9968C147.94 25.0051 147.09 25.7551 146.096 26.238C145.103 26.721 143.928 26.9625 142.567 26.9625C140.453 26.9625 138.732 26.2931 137.401 24.9585C136.069 23.6239 135.406 21.9504 135.406 19.9379C135.406 17.9254 136.069 16.1672 137.392 14.8071C138.716 13.4471 140.377 12.765 142.376 12.765C144.499 12.765 146.223 13.4471 147.555 14.8071C148.882 16.1672 149.55 17.9678 149.55 20.2006L149.538 20.8446V20.8404ZM146.156 18.1712C145.932 17.417 145.492 16.8069 144.833 16.3324C144.173 15.8621 143.412 15.6249 142.546 15.6249C141.603 15.6249 140.774 15.8918 140.064 16.4214C139.616 16.7518 139.206 17.3365 138.825 18.1712H146.156Z" fill="#FCE8F3"/>
<path d="M151.693 8.12994H155.075V13.1082H157.083V16.0231H155.075V26.6109H151.693V16.0231H149.96V13.1082H151.693V8.12994Z" fill="#FCE8F3"/>
</svg>
