<svg width="170" height="160" viewBox="0 0 170 160" fill="none" xmlns="http://www.w3.org/2000/svg">
<g clip-path="url(#clip0_801_8040)">
<path d="M62.8578 105.062C57.7623 100.282 52.65 95.5115 47.5713 90.715C41.8333 85.2945 39.5375 78.8032 41.3549 71.317C43.2284 63.6044 48.416 58.416 56.4543 56.2237C64.3156 54.0815 71.535 55.6743 77.5228 61.1025C81.7569 64.9381 85.8928 68.8659 90.0286 72.7937C94.5882 77.1243 95.0901 83.6559 91.2895 88.4433C87.3821 93.3677 80.2706 94.8696 74.6296 91.9591C69.0054 89.0539 66.3671 82.5206 68.7954 76.9147C69.5178 75.2472 70.8127 73.7321 72.1103 72.3672C74.5371 69.8113 74.6044 69.8903 71.9837 67.4209C69.0684 64.6699 65.591 63.2729 61.4389 63.6251C56.0319 64.0858 52.3222 66.8715 50.3884 71.5026C48.5277 75.9704 49.2722 80.3686 52.8132 83.8067C61.5449 92.2784 70.5294 100.524 79.3904 108.879C80.3275 109.759 81.0461 109.827 82.032 108.902C91.0447 100.409 100.153 92.0002 109.101 83.4468C112.994 79.7261 113.07 72.699 109.594 68.4259C105.835 63.8078 98.7225 62.0938 93.612 64.7932C91.857 65.7184 90.7594 65.553 89.5502 64.1866C88.7085 63.2388 87.7208 62.3964 86.7471 61.5566C85.5181 60.4984 85.5438 59.6371 87.004 58.7884C93.9933 54.7212 101.321 53.9541 108.71 57.4301C120.369 62.9137 124.273 75.6412 117.74 86.2611C116.793 87.8023 115.541 89.2304 114.198 90.5005C103.753 100.374 93.2546 110.198 82.7617 120.027C80.7789 121.887 80.6975 121.863 78.6773 119.968C73.3938 115.011 68.1103 110.054 62.8269 105.097C62.8381 105.086 62.8493 105.076 62.8577 105.068L62.8578 105.062ZM83.0024 77.7485C81.5714 76.4094 80.1304 76.4048 78.6793 77.7346C78.2102 78.1641 77.7216 78.5963 77.3648 79.1048C76.1961 80.7752 76.4758 82.861 77.9854 84.172C79.4838 85.4724 81.519 85.6058 83.2516 84.5173C85.7424 82.949 85.6427 80.2152 83.0024 77.7485Z" fill="#4E1945"/>
</g>
<g clip-path="url(#clip1_801_8040)">
<path d="M21 151.678V134.746H23.6883C25.2465 134.746 26.3884 134.845 27.1061 135.045C28.129 135.312 28.9458 135.811 29.5485 136.542C30.1551 137.272 30.4565 138.129 30.4565 139.119C30.4565 139.763 30.3177 140.348 30.0441 140.875C29.7705 141.401 29.3225 141.892 28.7039 142.352C29.7428 142.835 30.5001 143.44 30.9798 144.163C31.4596 144.89 31.7015 145.746 31.7015 146.736C31.7015 147.726 31.4517 148.555 30.9561 149.337C30.4604 150.118 29.8221 150.704 29.037 151.093C28.2519 151.481 27.1735 151.674 25.7937 151.674H21V151.678ZM24.2513 137.822V141.389H24.961C25.754 141.389 26.3408 141.224 26.7294 140.894C27.114 140.564 27.3083 140.117 27.3083 139.547C27.3083 139.017 27.1259 138.596 26.7611 138.286C26.3963 137.976 25.8412 137.818 25.0919 137.818H24.2513V137.822ZM24.2513 144.269V148.606H25.0681C26.4201 148.606 27.3281 148.437 27.7999 148.099C28.2678 147.761 28.5057 147.27 28.5057 146.626C28.5057 145.895 28.2282 145.322 27.677 144.901C27.1259 144.481 26.21 144.269 24.9293 144.269H24.2552H24.2513Z" fill="#4E1945"/>
<path d="M32.7799 139.154H35.4999V140.729C35.7933 140.109 36.1858 139.637 36.6735 139.315C37.1612 138.993 37.6965 138.832 38.2754 138.832C38.6877 138.832 39.1159 138.938 39.564 139.154L38.5767 141.857C38.204 141.672 37.8987 141.582 37.6608 141.582C37.1731 141.582 36.7607 141.88 36.4237 142.481C36.0867 143.083 35.9202 144.253 35.9202 146.001L35.9321 146.61V151.674H32.7839V139.154H32.7799Z" fill="#4E1945"/>
<path d="M49.5319 139.154H52.7039V151.678H49.5319V150.354C48.9134 150.935 48.2909 151.356 47.6684 151.615C47.0459 151.874 46.3719 152 45.6423 152C44.0087 152 42.5972 151.371 41.4077 150.118C40.2182 148.865 39.6195 147.306 39.6195 145.44C39.6195 143.574 40.1944 141.924 41.3482 140.686C42.502 139.453 43.9017 138.832 45.5471 138.832C46.3045 138.832 47.0182 138.973 47.6803 139.256C48.3464 139.539 48.961 139.967 49.524 140.533V139.15L49.5319 139.154ZM46.1974 141.731C45.2181 141.731 44.4013 142.073 43.755 142.76C43.1047 143.448 42.7836 144.328 42.7836 145.4C42.7836 146.473 43.1127 147.372 43.7748 148.072C44.437 148.771 45.2458 149.12 46.2133 149.12C47.1807 149.12 48.0332 148.779 48.6914 148.091C49.3496 147.404 49.6747 146.504 49.6747 145.392C49.6747 144.281 49.3456 143.42 48.6914 142.745C48.0372 142.069 47.2045 141.731 46.2014 141.731H46.1974Z" fill="#4E1945"/>
<path d="M53.6278 139.154H56.8593L60.0511 146.543L63.2389 139.154H66.4545L61.078 151.678H59.0202L53.6318 139.154H53.6278Z" fill="#4E1945"/>
<path d="M80.0385 146.327H69.8525C69.9992 147.219 70.3917 147.926 71.0301 148.453C71.6684 148.979 72.4852 149.242 73.4765 149.242C74.662 149.242 75.681 148.834 76.5334 148.013L79.2058 149.254C78.5397 150.189 77.7428 150.884 76.811 151.332C75.8792 151.78 74.777 152.004 73.5002 152.004C71.5178 152.004 69.904 151.383 68.655 150.146C67.4061 148.908 66.7836 147.357 66.7836 145.491C66.7836 143.625 67.4061 141.994 68.6471 140.733C69.8881 139.472 71.4464 138.84 73.3218 138.84C75.3122 138.84 76.9299 139.472 78.1789 140.733C79.4239 141.994 80.0504 143.664 80.0504 145.734L80.0385 146.331V146.327ZM76.8665 143.852C76.6564 143.153 76.244 142.587 75.6255 142.148C75.0069 141.711 74.2932 141.491 73.4804 141.491C72.5962 141.491 71.8191 141.739 71.153 142.23C70.7327 142.536 70.3481 143.079 69.9912 143.852H76.8665Z" fill="#4E1945"/>
<path d="M80.7324 134.746H84.0749L88.3729 146.775L92.7344 134.746H96.0729L89.9153 151.678H86.779L80.7324 134.746Z" fill="#4E1945"/>
<path d="M98.6462 134C99.2013 134 99.6771 134.2 100.078 134.597C100.474 134.998 100.672 135.481 100.672 136.047C100.672 136.612 100.474 137.084 100.081 137.481C99.689 137.877 99.2171 138.074 98.67 138.074C98.1228 138.074 97.6272 137.873 97.2267 137.469C96.8262 137.064 96.632 136.577 96.632 136C96.632 135.422 96.8302 134.974 97.2227 134.585C97.6153 134.192 98.0911 134 98.6462 134ZM97.0602 139.154H100.232V151.678H97.0602V139.154Z" fill="#4E1945"/>
<path d="M108.119 138.832C109.312 138.832 110.43 139.127 111.481 139.72C112.532 140.309 113.348 141.11 113.939 142.124C114.526 143.138 114.823 144.23 114.823 145.404C114.823 146.579 114.526 147.691 113.935 148.72C113.344 149.749 112.535 150.55 111.513 151.132C110.49 151.713 109.364 152 108.13 152C106.318 152 104.772 151.36 103.491 150.083C102.211 148.806 101.568 147.254 101.568 145.428C101.568 143.471 102.294 141.841 103.741 140.537C105.01 139.402 106.469 138.832 108.119 138.832ZM108.17 141.79C107.187 141.79 106.366 142.128 105.708 142.808C105.05 143.487 104.724 144.355 104.724 145.416C104.724 146.477 105.05 147.388 105.696 148.064C106.342 148.739 107.163 149.077 108.158 149.077C109.153 149.077 109.978 148.736 110.636 148.052C111.294 147.368 111.624 146.492 111.624 145.416C111.624 144.34 111.298 143.468 110.652 142.796C110.006 142.124 109.177 141.79 108.166 141.79H108.17Z" fill="#4E1945"/>
<path d="M116.136 134.322H119.308V151.678H116.136V134.322Z" fill="#4E1945"/>
<path d="M133.923 146.327H123.736C123.883 147.219 124.276 147.926 124.914 148.453C125.552 148.979 126.369 149.242 127.36 149.242C128.546 149.242 129.565 148.834 130.417 148.013L133.09 149.254C132.424 150.189 131.627 150.884 130.695 151.332C129.763 151.78 128.661 152.004 127.384 152.004C125.402 152.004 123.788 151.383 122.539 150.146C121.29 148.908 120.668 147.357 120.668 145.491C120.668 143.625 121.29 141.994 122.531 140.733C123.772 139.472 125.33 138.84 127.206 138.84C129.196 138.84 130.814 139.472 132.063 140.733C133.308 141.994 133.934 143.664 133.934 145.734L133.923 146.331V146.327ZM130.751 143.852C130.54 143.153 130.128 142.587 129.51 142.148C128.891 141.711 128.177 141.491 127.364 141.491C126.48 141.491 125.703 141.739 125.037 142.23C124.617 142.536 124.232 143.079 123.875 143.852H130.751Z" fill="#4E1945"/>
<path d="M135.945 134.542H139.117V139.158H141V141.861H139.117V151.678H135.945V141.861H134.319V139.158H135.945V134.542Z" fill="#4E1945"/>
</g>
<defs>
<clipPath id="clip0_801_8040">
<rect width="116.557" height="116.557" fill="white" transform="matrix(0.729272 -0.684224 0.729272 0.684224 0 79.7511)"/>
</clipPath>
<clipPath id="clip1_801_8040">
<rect width="120" height="18" fill="white" transform="translate(21 134)"/>
</clipPath>
</defs>
</svg>
