<svg width="382" height="391" viewBox="0 0 382 391" fill="none" xmlns="http://www.w3.org/2000/svg">
<g clip-path="url(#clip0_831_8139)">
<path d="M41.6864 154.03C39.1589 179.724 39.9177 206.63 49.3206 231.145C60.105 259.25 81.4214 282.019 104.838 299.988C131.509 320.428 162.129 335.88 194.255 340.26C226.381 344.64 259.996 337.205 284.283 316.223C320.21 285.175 321.966 241.459 330.973 196.629C335.397 174.595 334.336 158.233 323.113 136.836C312.165 115.953 295.52 98.284 276.934 84.828C238.626 57.0964 190.856 43.976 146.543 51.9001C120.4 56.5622 95.8058 68.7882 76.1076 86.7976C55.4515 105.662 44.5298 125.168 41.6864 154.03Z" fill="#B895C5"/>
<path d="M41.6864 154.03C39.1589 179.724 39.9177 206.63 49.3206 231.145C60.105 259.25 81.4214 282.019 104.838 299.988C131.509 320.428 162.129 335.88 194.255 340.26C226.381 344.64 259.996 337.205 284.283 316.223C320.21 285.175 321.966 241.459 330.973 196.629C335.397 174.595 334.336 158.233 323.113 136.836C312.165 115.953 295.52 98.284 276.934 84.828C238.626 57.0964 190.856 43.976 146.543 51.9001C120.4 56.5622 95.8058 68.7882 76.1076 86.7976C55.4515 105.662 44.5298 125.168 41.6864 154.03Z" fill="#B895C5"/>
</g>
<g clip-path="url(#clip1_831_8139)">
<path d="M130.991 251.792C153.027 251.792 170.891 235.837 170.891 216.155C170.891 196.474 153.027 180.519 130.991 180.519C108.955 180.519 91.0918 196.474 91.0918 216.155C91.0918 235.837 108.955 251.792 130.991 251.792Z" fill="white"/>
<path d="M253.524 251.792C275.56 251.792 293.423 235.837 293.423 216.155C293.423 196.474 275.56 180.519 253.524 180.519C231.488 180.519 213.624 196.474 213.624 216.155C213.624 235.837 231.488 251.792 253.524 251.792Z" fill="white"/>
<path d="M205.235 176.536C206.396 169.816 207.405 163.067 208.608 156.347C209.299 152.447 211.372 149.64 214.08 147.206C215.767 145.699 216.43 144.274 216.195 141.951C215.67 136.793 217.162 135.078 222.359 133.986C226.699 133.073 231.052 132.077 235.516 132.174C239.51 132.257 242.993 133.391 244.14 137.858C244.347 138.646 244.817 138.978 245.467 139.241C246.42 139.614 247.388 139.946 248.328 140.375C251.644 141.896 254.892 143.458 257.076 146.625C258.03 148.008 259.37 149.156 260.614 150.331C270.8 159.997 279.893 170.645 288.531 181.694C288.808 182.054 289.139 182.372 289.457 182.704C305.558 199.561 306.912 225.268 291.931 244.587C276.438 264.569 247.802 270.847 225.855 258.734C209.893 249.925 201.532 236.165 201.241 217.856C201.186 214.703 199.845 212.767 197.924 210.804C196.072 208.895 193.764 207.969 191.152 208.121C187.918 208.314 184.85 208.978 182.957 212.131C182.335 213.168 182.072 214.136 182.058 215.312C181.685 239.415 163.263 260.103 138.455 264.099C122.354 266.699 107.843 262.841 95.7221 251.764C77.6588 235.225 75.7377 208.135 91.0784 188.291C94.0084 184.502 96.6481 180.519 99.1357 176.467C103.13 169.968 107.483 163.703 111.685 157.328C114.007 153.816 116.37 150.138 119.977 147.897C123.004 146.031 125.201 144.136 125.588 140.333C125.809 138.217 127.855 137.208 129.886 137C135.221 136.433 140.569 136.364 145.904 137.056C146.568 137.139 147.217 137.415 147.867 137.637C150.465 138.522 152.206 140.126 152.179 143.085C152.165 144.827 152.745 145.961 154.473 146.75C158.633 148.686 161.411 151.811 163.18 156.222C166.649 164.893 169.883 173.632 172.536 182.593C172.882 183.769 173.255 184.917 173.683 186.313C175.245 185.401 176.586 184.598 177.926 183.824C178.631 183.423 178.755 182.815 178.659 182.082C178.534 181.058 178.41 180.049 178.368 179.026C178.272 176.44 179.129 175.029 181.672 174.656C187.877 173.757 194.138 173.356 200.398 174.089C202.015 174.268 203.535 174.766 204.268 176.481C204.489 178.555 203.577 180.671 204.503 183.312C205.125 180.713 205.429 178.652 205.249 176.523L205.235 176.536ZM104.249 175.472C104.166 175.665 104.07 175.859 103.987 176.039C104.54 176.204 104.913 175.914 105.258 175.541C127.122 163.427 147.908 165.183 168.072 181.031C165.156 171.378 162.033 162.625 157.956 154.231C157.375 153.042 156.311 152.378 155.302 151.645C148.074 146.335 140.044 145.892 131.531 147.386C125.091 148.52 120.115 151.507 116.536 156.983C112.5 163.178 108.354 169.304 104.263 175.458L104.249 175.472ZM255.708 260.918C265.341 260.766 278.055 255.055 287.909 243.439C306.484 221.535 300.914 186.977 270.855 174.739C252.612 167.299 230.14 172.595 217.024 187.364C206.217 199.533 202.153 213.625 206.59 229.528C211.883 248.459 229.601 261.057 255.708 260.918ZM135.166 260.918C145.089 260.766 157.914 255 167.768 243.218C186.578 220.733 180.041 185.636 149.594 174.504C130.591 167.562 113.011 171.6 98.4862 185.663C86.1031 197.653 81.6529 212.588 86.2827 229.458C91.4792 248.417 109.238 261.029 135.179 260.918H135.166ZM275.692 172.07C275.208 171.447 274.711 170.825 274.227 170.203C267.662 161.837 259.425 155.047 252.418 147.095C251.769 146.349 250.788 145.865 249.903 145.353C240.201 139.738 230.665 141.121 221.35 146.279C215.863 149.322 212.574 153.968 211.551 160.288C209.796 171.088 208.538 181.943 207.419 192.826C207.391 193.158 207.502 193.269 208.013 193.062C214.993 181.902 224.902 174.116 237.7 170.134C250.525 166.137 263.06 167.105 275.692 172.084V172.07ZM202.927 197.21C203.301 194.458 203.577 192.024 203.992 189.604C204.282 187.903 203.522 187.157 202.029 186.604C197.137 184.806 192.078 184.114 186.965 184.903C183.275 185.47 179.64 186.562 176.668 189.065C175.991 189.632 175.217 190.199 175.784 191.333C177.055 193.822 178.272 196.339 179.529 198.883C186.979 193.227 194.677 193.02 202.927 197.21ZM181.768 207.194C188.748 203.281 195.464 202.797 201.559 208.937C203.48 204.359 202.775 201.345 199.085 199.644C193.93 197.252 188.72 197.487 183.814 200.46C181.077 202.119 180.704 203.723 181.754 207.181L181.768 207.194ZM200.44 179.468C200.799 177.892 199.61 177.698 198.45 177.56C193.46 176.979 188.513 177.878 183.551 178.044C181.837 178.099 182.155 179.468 182.238 180.588C182.335 181.916 183.095 181.93 184.132 181.625C188.83 180.242 193.529 180.726 198.242 181.57C200.357 181.943 200.495 181.805 200.44 179.482V179.468ZM240.422 138.079C238.322 135.853 236.331 135.797 234.341 135.894C230.375 136.088 226.464 136.848 222.594 137.692C219.94 138.273 219.636 138.936 220.189 142.394C226.339 139.241 232.849 137.761 240.422 138.093V138.079ZM148.558 143.707C148.06 141.273 146.512 141.025 145.103 140.762C140.487 139.932 135.815 140.209 131.172 140.554C129.154 140.707 129.002 141.177 129.043 144.012C135.414 142.656 141.799 142.477 148.544 143.707H148.558Z" fill="#0D1117"/>
<path d="M130.825 117.875C130.742 118.899 130.217 119.438 129.554 119.95C127.066 121.858 125.187 124.209 124.247 127.265C123.901 128.399 123.252 129.409 121.966 129.519C120.805 129.616 120.184 128.717 119.603 127.846C117.682 124.928 116.134 121.748 112.886 119.867C111.629 119.148 111.67 117.834 112.803 116.7C115.747 113.727 117.931 110.367 118.263 106.038C118.345 105.029 118.926 104.31 119.949 104.171C120.999 104.033 121.649 104.697 122.022 105.596C122.409 106.536 122.699 107.532 123.114 108.458C124.482 111.528 126.347 114.197 129.277 115.981C130.12 116.493 130.715 117.032 130.825 117.875ZM125.698 118.18C123.625 116.327 122.16 114.363 120.612 112.413C119.589 113.976 118.691 115.4 117.751 116.811C117.378 117.364 116.839 117.903 117.544 118.539C119.092 119.936 120.045 121.858 121.635 123.642C122.782 121.416 124.122 119.908 125.698 118.18Z" fill="#0D1117"/>
<path d="M306 159.845C305.931 160.813 305.364 161.491 304.715 162.141C301.508 165.321 298.703 168.82 296.091 172.512C293.741 175.831 291.406 175.693 289.775 172.084C288.669 169.608 287.398 167.866 284.537 167.105C281.911 166.4 281.524 162.058 283.984 159.652C286.61 157.08 288.669 154.259 290.245 150.953C291.585 148.146 293.672 148.146 295.123 150.843C295.98 152.419 296.547 154.148 297.984 155.351C299.56 156.665 300.817 158.379 303.416 157.55C304.95 157.066 305.931 158.172 305.986 159.845H306ZM293.451 167.506C294.736 165.93 295.607 164.699 296.643 163.634C297.943 162.321 297.542 161.532 296.298 160.398C292.912 157.315 292.967 157.232 289.871 160.786C289.332 161.408 288.406 161.781 288.337 162.971C290.383 163.856 291.82 165.584 293.451 167.506Z" fill="#0D1117"/>
<path d="M97.3525 156.305C94.6851 159.264 93.6486 163.745 91.3129 167.534C90.4008 169.014 88.0513 168.834 87.1253 167.091C84.9555 162.984 81.4037 160.703 77.5754 158.545C75.7373 157.508 75.4609 155.973 76.9397 154.494C79.8143 151.59 82.4126 148.603 84.1401 144.827C84.8588 143.251 87.0977 143.265 88.3415 144.827C90.8569 147.994 93.1234 151.354 96.62 153.609C97.2695 154.023 97.4354 154.839 97.3386 156.305H97.3525ZM88.8944 160.357C90.7831 157.241 89.9447 154.272 86.379 151.451C85.301 152.806 84.223 154.176 83.0621 155.641C85.0661 157.259 86.8766 158.725 88.8944 160.357Z" fill="#0D1117"/>
<path d="M287.674 138.439C286.596 138.369 285.766 137.968 285.379 137.07C284.453 134.829 283.002 132.976 281.358 131.22C280.017 129.782 280.197 128.233 282.021 127.32C284.453 126.104 285.766 124.237 286.637 121.761C287.287 119.922 288.807 119.701 290.009 121.194C291.778 123.393 292.898 126.062 295.081 127.97C295.634 128.454 295.565 129.298 295.081 129.851C292.815 132.396 290.7 135.037 288.765 137.844C288.544 138.176 287.991 138.273 287.66 138.439H287.674ZM288.835 126.477C287.701 127.708 286.609 128.897 285.504 130.086C286.305 131.013 286.665 132.022 287.632 132.465C289.816 130.335 290.212 128.339 288.821 126.477H288.835Z" fill="#0D1117"/>
<path d="M205.235 176.536C205.429 178.652 205.111 180.713 204.489 183.326C203.549 180.685 204.475 178.569 204.254 176.495C204.586 176.509 204.904 176.523 205.235 176.536Z" fill="#EBE0D4"/>
<path d="M255.694 260.905C229.587 261.043 211.869 248.445 206.576 229.514C202.126 213.611 206.203 199.519 217.01 187.35C230.126 172.581 252.598 167.285 270.841 174.725C300.914 186.977 306.47 221.535 287.896 243.425C278.042 255.041 265.327 260.752 255.694 260.905ZM291.447 215.602C291.24 189.591 268.45 174.31 247.609 177.739C228.772 180.837 213.804 196.851 212.92 215.879C211.69 242.056 233.802 259.259 256.205 256.023C276.038 253.161 291.489 235.654 291.461 215.588L291.447 215.602Z" fill="#874CC4"/>
<path d="M135.165 260.918C109.224 261.029 91.465 248.417 86.2685 229.458C81.6525 212.587 86.0888 197.653 98.472 185.663C112.997 171.613 130.577 167.562 149.58 174.504C180.026 185.636 186.577 220.719 167.754 243.218C157.9 255 145.075 260.766 135.151 260.918H135.165ZM91.6999 216.459C91.7138 224.66 94.0494 232.501 98.9833 238.806C109.736 252.538 123.929 257.489 140.818 253.741C163.732 248.666 177.138 224.895 169.675 203.226C162.917 183.589 141.08 172.734 120.599 178.804C103.392 183.907 91.6585 199.188 91.6999 216.459Z" fill="#874CC4"/>
<path d="M275.678 172.056C263.046 167.078 250.511 166.11 237.686 170.106C224.888 174.089 214.979 181.874 208 193.034C207.488 193.241 207.378 193.131 207.405 192.799C208.511 181.916 209.782 171.06 211.538 160.26C212.56 153.94 215.863 149.294 221.336 146.252C230.651 141.094 240.187 139.711 249.889 145.325C250.774 145.837 251.741 146.335 252.405 147.068C259.412 155.019 267.649 161.809 274.213 170.175C274.697 170.797 275.195 171.42 275.678 172.042V172.056Z" fill="#EBE0D4"/>
<path d="M104.249 175.458C108.34 169.304 112.486 163.178 116.522 156.983C120.101 151.507 125.077 148.52 131.517 147.386C140.03 145.892 148.06 146.335 155.288 151.645C156.297 152.378 157.361 153.042 157.942 154.231C162.019 162.625 165.142 171.378 168.058 181.031C147.894 165.183 127.108 163.427 105.258 175.527C104.926 175.499 104.581 175.485 104.235 175.458H104.249Z" fill="#EBE0D4"/>
<path d="M202.913 197.196C194.662 193.006 186.964 193.2 179.515 198.87C178.257 196.325 177.041 193.808 175.769 191.319C175.189 190.185 175.977 189.618 176.654 189.051C179.625 186.548 183.246 185.442 186.95 184.889C192.078 184.101 197.122 184.792 202.014 186.59C203.521 187.143 204.281 187.89 203.977 189.591C203.562 192.011 203.286 194.458 202.913 197.196Z" fill="#874CC4"/>
<path d="M181.754 207.194C180.704 203.737 181.077 202.133 183.813 200.474C188.706 197.487 193.916 197.265 199.085 199.658C202.775 201.373 203.48 204.387 201.559 208.951C195.45 202.797 188.733 203.281 181.768 207.208L181.754 207.194Z" fill="#874CC4"/>
<path d="M200.426 179.468C200.467 181.791 200.329 181.943 198.228 181.556C193.515 180.713 188.803 180.229 184.117 181.611C183.081 181.916 182.321 181.902 182.224 180.574C182.141 179.454 181.823 178.099 183.537 178.03C188.498 177.864 193.446 176.951 198.435 177.546C199.596 177.684 200.799 177.878 200.426 179.454V179.468Z" fill="#874CC4"/>
<path d="M240.408 138.079C232.834 137.747 226.338 139.241 220.175 142.38C219.622 138.923 219.926 138.259 222.579 137.678C226.449 136.834 230.346 136.074 234.327 135.88C236.303 135.784 238.307 135.839 240.408 138.065V138.079Z" fill="#874CC4"/>
<path d="M148.529 143.707C141.785 142.477 135.4 142.656 129.029 144.012C128.987 141.177 129.139 140.706 131.157 140.554C135.801 140.209 140.458 139.932 145.088 140.762C146.484 141.011 148.046 141.273 148.543 143.707H148.529Z" fill="#874CC4"/>
<path d="M104.249 175.458C104.594 175.472 104.926 175.499 105.271 175.527C104.926 175.9 104.553 176.191 104 176.025C104.083 175.831 104.18 175.638 104.263 175.458H104.249Z" fill="#874CC4"/>
<path d="M125.699 118.18C124.123 119.908 122.783 121.416 121.635 123.642C120.046 121.858 119.093 119.922 117.545 118.539C116.84 117.903 117.379 117.364 117.752 116.811C118.692 115.4 119.59 113.976 120.613 112.413C122.161 114.363 123.626 116.327 125.699 118.18Z" fill="#F49E21"/>
<path d="M266.266 123.407C266.183 124.43 265.658 124.97 264.994 125.481C262.507 127.39 260.627 129.74 259.687 132.797C259.342 133.93 258.692 134.94 257.407 135.051C256.246 135.147 255.624 134.249 255.044 133.377C253.123 130.46 251.575 127.279 248.327 125.398C247.069 124.679 247.111 123.365 248.244 122.232C251.188 119.258 253.371 115.898 253.703 111.57C253.786 110.56 254.366 109.841 255.389 109.703C256.439 109.565 257.089 110.228 257.462 111.127C257.849 112.067 258.139 113.063 258.554 113.99C259.922 117.06 261.788 119.729 264.718 121.512C265.561 122.024 266.155 122.563 266.266 123.407ZM261.138 123.711C259.065 121.858 257.6 119.894 256.052 117.945C255.03 119.507 254.131 120.932 253.192 122.342C252.818 122.895 252.279 123.435 252.984 124.071C254.532 125.467 255.486 127.39 257.075 129.173C258.222 126.947 259.563 125.44 261.138 123.711Z" fill="#0D1117"/>
<path d="M261.139 123.711C259.564 125.44 258.223 126.947 257.076 129.173C255.487 127.39 254.533 125.454 252.985 124.071C252.28 123.435 252.819 122.895 253.192 122.342C254.132 120.932 255.03 119.507 256.053 117.945C257.601 119.894 259.066 121.858 261.139 123.711Z" fill="#F49E21"/>
<path d="M293.659 169.276C291.42 166.621 289.443 164.257 286.624 163.026C286.721 161.394 287.978 160.882 288.725 160.025C292.981 155.13 292.912 155.24 297.57 159.486C299.297 161.048 299.836 162.141 298.054 163.952C296.616 165.404 295.428 167.105 293.659 169.276Z" fill="#F49E21"/>
<path d="M89.4336 161.574C86.863 159.5 84.5412 157.633 81.9844 155.572C83.4632 153.705 84.8452 151.963 86.2134 150.234C90.7558 153.83 91.8291 157.614 89.4336 161.588V161.574Z" fill="#F49E21"/>
<path d="M288.835 126.491C290.227 128.353 289.831 130.349 287.647 132.478C286.679 132.036 286.306 131.04 285.519 130.1C286.61 128.911 287.716 127.708 288.849 126.491H288.835Z" fill="#F49E21"/>
<path d="M291.447 215.602C291.475 235.667 276.023 253.174 256.191 256.037C233.788 259.259 211.689 242.07 212.905 215.893C213.804 196.864 228.757 180.851 247.595 177.753C268.45 174.324 291.24 189.604 291.433 215.616L291.447 215.602ZM280.791 211.758C281.676 215.45 281.4 219.101 280.294 222.696C279.755 223.014 279.631 223.637 279.921 224.01C280.266 224.452 280.57 223.955 280.75 223.609C281.123 223.194 281.552 222.821 281.869 222.364C286.43 215.893 286.264 217.787 281.731 211.813C281.648 211.343 281.248 211.066 280.888 211.08C280.557 211.08 280.57 211.481 280.778 211.758H280.791ZM217.604 212.103C218.903 212.034 219.429 210.887 220.23 210.167C225.537 205.438 231.328 201.442 237.907 198.676C245.867 195.329 254.104 194.057 262.631 195.896C271.656 197.832 278.926 202.686 284.827 209.711C285.546 210.569 286.057 211.702 287.494 212.366C287.398 211.218 287.398 210.416 287.246 209.642C284.73 196.934 277.723 187.751 265.465 183.285C244.333 175.596 222.538 189.134 217.632 209.877C217.466 210.596 216.955 211.384 217.632 212.131C217.383 211.896 217.217 211.938 217.176 212.269C217.176 212.366 217.259 212.56 217.3 212.56C217.591 212.56 217.687 212.38 217.604 212.09V212.103ZM217.052 222.669C218.738 240.369 234.327 253.396 252.446 252.607C269.251 251.888 286.361 236.94 286.513 222.862C270.288 244.532 237.16 244.103 217.052 222.669ZM254.878 199.243C252.598 198.897 250.386 199.049 248.175 199.492C236.677 201.76 227.5 208.01 219.373 216.141C218.171 217.345 218.378 218.119 219.373 219.253C228.992 230.177 241.044 235.501 255.583 235.197C256.094 235.197 256.744 235.349 257.034 234.658C239.551 227.19 241.279 206.461 254.878 199.257V199.243Z" fill="#090D11"/>
<path d="M91.6866 216.459C91.6589 199.188 103.379 183.907 120.585 178.804C141.067 172.733 162.903 183.589 169.662 203.226C177.125 224.895 163.719 248.666 140.804 253.741C123.916 257.489 109.722 252.538 98.97 238.806C94.0361 232.501 91.7004 224.66 91.6866 216.459ZM95.6254 213.901C96.0262 213.846 96.1644 213.86 96.2197 213.804C97.0074 212.989 97.7952 212.159 98.5692 211.329C104.36 205.203 110.98 200.294 118.982 197.418C127.412 194.389 135.953 194.209 144.439 196.947C152.593 199.575 159.559 204.277 165.709 210.209C166.22 210.693 166.538 211.606 167.547 211.357C166.676 198.164 154.349 181.127 132.415 180.962C109.999 180.782 96.1229 198.704 95.6254 213.901ZM96.1506 222.558C97.7123 235.889 111.395 251.944 132.733 251.211C149.014 250.644 165.391 237.479 166.732 223.291C156.684 232.514 144.895 236.898 131.489 236.774C118.015 236.649 106.226 232.003 96.1506 222.572V222.558ZM131.642 199.049C129.085 198.939 127.081 199.174 125.063 199.602C113.951 201.967 105.659 208.605 98.4724 216.971C97.2148 218.437 98.196 219.17 99.1082 220.055C105.452 226.278 113.053 230.122 121.705 231.961C125.422 232.75 129.181 233.123 133.535 233.012C120.198 224.48 120.046 208.812 131.655 199.035L131.642 199.049ZM158.37 208.881C160.015 215.505 159.061 221.078 155.537 226.361C158.785 225.282 164.907 220.345 166.511 217.856C167.146 216.861 166.538 216.404 166.027 215.851C163.857 213.555 161.632 211.315 158.356 208.881H158.37Z" fill="#090D11"/>
<path d="M217.632 212.131C216.955 211.384 217.452 210.596 217.632 209.877C222.538 189.134 244.333 175.582 265.465 183.285C277.71 187.751 284.73 196.934 287.246 209.642C287.398 210.416 287.398 211.205 287.495 212.366C286.057 211.702 285.546 210.569 284.827 209.711C278.926 202.686 271.656 197.832 262.632 195.896C254.104 194.057 245.867 195.343 237.907 198.676C231.328 201.442 225.551 205.438 220.23 210.167C219.429 210.887 218.89 212.034 217.604 212.104L217.632 212.145V212.131Z" fill="#F49E21"/>
<path d="M217.052 222.655C237.147 244.089 270.288 244.532 286.513 222.848C286.361 236.926 269.252 251.875 252.446 252.594C234.327 253.368 218.738 240.341 217.052 222.655Z" fill="#F49E21"/>
<path d="M280.294 222.696C281.4 219.087 281.676 215.45 280.791 211.758C281.109 211.772 281.427 211.785 281.745 211.813C286.292 217.787 286.444 215.893 281.883 222.364C281.565 222.821 281.137 223.194 280.764 223.609C280.612 223.305 280.446 223 280.294 222.696Z" fill="#EBE0D4"/>
<path d="M280.294 222.696C280.446 223 280.612 223.305 280.764 223.609C280.57 223.968 280.266 224.452 279.921 224.01C279.631 223.637 279.755 223.028 280.294 222.696Z" fill="#874CC4"/>
<path d="M281.745 211.813C281.427 211.799 281.109 211.785 280.791 211.758C280.584 211.481 280.57 211.08 280.902 211.08C281.261 211.08 281.662 211.343 281.745 211.813Z" fill="#874CC4"/>
<path d="M217.605 212.103C217.701 212.394 217.605 212.56 217.301 212.574C217.259 212.574 217.162 212.38 217.176 212.283C217.218 211.938 217.383 211.896 217.632 212.145L217.605 212.103Z" fill="#F49E21"/>
<path d="M95.6387 213.901C96.1362 198.704 110.012 180.796 132.429 180.962C154.362 181.127 166.703 198.164 167.56 211.357C166.551 211.606 166.234 210.693 165.722 210.209C159.572 204.276 152.607 199.575 144.453 196.947C135.967 194.209 127.426 194.389 118.995 197.418C110.993 200.294 104.373 205.203 98.5824 211.329C97.7947 212.159 97.0207 212.989 96.233 213.804C96.1777 213.86 96.0256 213.846 95.6387 213.901Z" fill="#F49E21"/>
<path d="M96.1641 222.558C106.239 232.003 118.028 236.635 131.503 236.76C144.909 236.884 156.698 232.501 166.745 223.277C165.405 237.465 149.013 250.644 132.747 251.197C111.408 251.93 97.7258 235.875 96.1641 222.544V222.558Z" fill="#F49E21"/>
</g>
<defs>
<clipPath id="clip0_831_8139">
<rect width="289.909" height="304.718" fill="white" transform="translate(0 107.144) rotate(-21.6895)"/>
</clipPath>
<clipPath id="clip1_831_8139">
<rect width="230" height="160.743" fill="white" transform="translate(76 104.144)"/>
</clipPath>
</defs>
</svg>
