<svg width="278" height="306" viewBox="0 0 278 306" fill="none" xmlns="http://www.w3.org/2000/svg">
<g clip-path="url(#clip0_831_8138)">
<path d="M69.932 37.2443C44.1167 54.7589 33.8974 76.0938 18.4921 101.101C10.5798 113.965 3.35382 127.586 0.932447 142.369C-2.61381 163.999 4.45964 185.943 13.6303 205.967C23.3349 227.192 36.0137 247.881 55.0606 261.962C72.2771 274.66 93.8215 281.175 115.404 282.651C136.987 284.128 158.684 280.787 179.58 275.306C197.54 270.6 215.367 264.122 230.009 252.993C245.09 241.532 256.072 225.604 263.851 208.625C286.12 159.902 281.85 100.64 252.812 55.4048C244.862 43.021 237.54 28.4224 223.66 21.7414C199.542 10.1142 171.229 5.22344 144.499 5.00197C117.768 4.7805 90.485 23.3101 69.932 37.2443Z" fill="#B895C5"/>
</g>
<g clip-path="url(#clip1_831_8138)">
<path d="M238.464 257.087C239.921 257.875 241.228 258.461 242.417 259.232C248.515 263.185 249.503 269.299 244.98 274.911C243.238 277.089 241.161 278.932 238.883 280.54C233.505 284.326 227.056 285.967 221.411 289.234C220.121 289.988 218.178 290.306 216.754 289.971C214.124 289.351 212.047 290.038 209.735 291.177C202.95 294.544 196.752 293.271 191.191 288.245C189.918 287.09 188.544 286.034 187.087 284.828C186.534 285.699 185.797 286.889 185.009 288.044C179.883 295.516 173.334 300.993 164.204 302.87C157.922 304.16 152.009 303.322 146.564 299.921C145.191 299.067 144.303 298.682 142.896 300.005C141.304 301.496 139.11 302.166 136.983 302.685C130.734 304.227 124.536 303.774 118.438 301.865C114.686 300.692 111.889 298.179 109.292 295.298C107.131 296.956 105.138 298.682 102.96 300.139C95.9745 304.83 88.319 306.454 80.0269 304.763C74.5492 303.64 69.909 300.993 66.5921 296.437C65.5535 295.013 64.5987 294.712 62.957 295.047C48.0313 297.945 29.8223 283.119 37.0087 263.57C39.0357 258.042 42.7881 254.106 48.9359 253.251C50.7786 253 51.2811 252.347 51.1806 250.504C50.8791 244.423 52.4202 238.878 57.0269 234.623C58.6184 233.149 58.0488 231.943 57.4792 230.369C54.5477 222.294 51.5324 214.237 49.7065 205.811C47.311 194.822 45.7698 183.698 45.3176 172.458C45.15 168.237 45.6358 164.032 46.5572 159.861C47.5288 155.472 50.2425 153.06 54.4807 152.138C60.8128 150.765 67.1952 150.43 73.5943 151.686C77.5645 152.473 81.5346 153.328 85.622 154.165C86.2753 152.038 86.091 150.145 86.1581 148.286C87.0961 122.94 91.1165 98.0976 99.1908 74.0255C104.551 58.0444 111.688 42.9177 122.526 29.8012C125.792 25.8478 129.411 22.2629 133.649 19.3482C135.207 18.276 136.815 17.2207 138.507 16.4334C143.75 13.9876 148.759 13.8034 153.684 17.606C157.939 20.8726 161.306 24.7589 164.053 29.2986C168.157 36.083 171.039 43.4035 173.535 50.8747C179.314 68.1457 184.808 85.5171 187.974 103.525C190.219 116.323 191.626 129.222 192.966 142.121C193.117 143.545 192.883 145.052 193.72 146.393C194.993 146.929 195.513 145.739 196.25 145.186C200.689 141.853 205.178 138.62 210.338 136.442C212.767 135.42 215.246 134.633 217.859 134.231C224.007 133.293 227.944 135.588 229.904 141.618C231.998 148.034 233.204 154.651 233.07 161.402C232.701 179.812 231.11 198.088 226.587 216.012C226.436 216.582 226.403 217.185 226.185 217.704C225.314 219.798 225.9 220.77 228.212 221.272C241.429 224.12 248.113 241.307 240.96 252.849C240.139 254.189 239.385 255.563 238.514 257.104L238.464 257.087ZM100.246 213.098C100.146 214.991 100.062 216.431 99.9781 217.889C99.4924 225.594 97.5492 232.814 93.1602 239.28C91.0495 242.379 89.3241 242.513 86.8281 239.565C81.4341 233.166 73.4938 231.206 65.9556 234.406C56.7924 238.309 53.4924 247.237 58.032 255.865C58.6184 256.97 59.0706 257.975 58.0656 259.047C57.1107 260.052 55.9548 260.002 54.866 259.382C51.9847 257.757 49.1202 257.322 46.1886 259.181C44.279 260.387 42.9556 262.079 41.984 264.106C38.9017 270.489 40.091 278.781 44.882 284.158C49.74 289.619 58.2163 291.931 64.7997 289.602C67.9323 288.497 68.2841 288.513 69.3394 291.428C70.3613 294.226 72.3379 296.052 74.6999 297.559C78.7873 300.156 83.2935 300.993 88.1012 300.558C95.472 299.905 101.251 296.253 106.377 291.194C109.259 288.346 110.766 288.43 112.944 291.78C115.172 295.197 118.254 297.157 122.09 297.978C126.245 298.866 130.466 299.117 134.688 298.33C136.43 298.012 138.021 297.308 139.613 296.571C140.802 296.001 141.656 295.398 140.651 293.941C140.35 293.489 140.249 292.852 140.165 292.283C139.981 290.859 140.333 289.602 141.874 289.167C143.231 288.782 144.068 289.602 144.605 290.775C147.017 296.035 151.59 297.911 156.9 298.497C163.165 299.184 168.727 297.275 173.652 293.472C177.873 290.205 181.09 286.101 183.351 281.26C183.837 280.205 184.256 279.082 184.909 278.127C186.4 275.933 188.226 275.916 189.784 278.127C190.621 279.317 191.157 280.707 191.978 281.897C196.417 288.463 202.565 289.937 209.417 286.068C212.13 284.543 214.459 282.617 215.782 279.685C216.469 278.161 217.357 276.72 219.401 277.441C220.891 277.96 221.059 279.535 220.037 281.997C219.652 282.952 218.747 283.756 219.099 286.286C223.924 280.891 230.457 280.573 235.482 277.139C237.409 275.816 239.218 274.325 240.759 272.566C244.176 268.646 243.422 265.078 238.698 262.733C238.179 262.481 237.61 262.297 237.057 262.146C232.701 260.924 232.366 257.657 234.444 254.307C235.599 252.447 236.772 250.588 237.66 248.594C241.881 239.163 236.152 227.856 226.084 225.745C220.238 224.522 214.509 225.025 208.931 227.152C204.542 228.827 200.438 230.838 197.305 234.59C195.211 237.103 194.055 236.801 192.698 233.803C192.129 232.563 191.224 231.658 190.42 230.637C185.361 224.17 181.743 217.152 182.078 208.642C182.095 208.039 181.977 207.486 181.073 207.05C176.667 209.194 171.792 210.535 166.817 211.724C158.291 213.751 149.596 214.639 140.936 215.711C127.468 217.369 113.932 218.257 100.246 213.198V213.098ZM123.715 166.511C132.527 167.064 139.596 165.942 146.698 165.087C160.586 163.396 173.015 157.867 184.775 150.547C187.74 148.704 188.812 146.493 188.326 142.959C187.003 133.578 186.082 124.13 184.875 114.732C182.664 97.461 178.141 80.7262 172.848 64.1755C172.261 62.3496 171.29 61.3278 169.548 60.4902C162.964 57.3241 155.962 56.252 148.809 55.6992C135.76 54.6941 123.698 58.0444 112.09 63.74C108.773 65.3649 106.176 67.2578 105.272 71.0772C104.769 73.1879 103.731 75.1646 103.077 77.2418C95.1704 102.168 91.4181 127.765 90.6475 153.847C90.5972 155.673 91.2673 156.963 92.7582 157.851C94.1318 158.672 95.5557 159.409 96.9964 160.112C105.958 164.417 115.423 166.495 123.715 166.495V166.511ZM194.273 175.926C193.653 181.119 194.206 186.463 192.849 191.555C191.878 195.14 191.811 198.256 194.558 201.17C195.613 202.293 196.233 203.901 196.786 205.392C198.645 210.434 200.672 215.443 202.063 220.653C203.001 224.12 203.017 224.137 206.2 222.881C209.601 221.524 213.085 220.468 216.754 220.318C221.143 220.15 220.506 220.184 221.511 216.197C226.168 197.602 228.095 178.656 228.061 159.509C228.061 154.216 227.039 149.09 225.565 144.047C224.175 139.273 222.315 138.101 217.558 139.072C215.866 139.424 214.208 140.027 212.583 140.697C206.435 143.193 201.225 147.13 196.267 151.485C194.491 153.043 193.737 154.718 193.821 157.164C194.039 163.412 194.692 169.661 194.256 175.942L194.273 175.926ZM85.5215 173.564C85.4377 171.671 85.421 169.778 85.2535 167.885C85.0022 165.004 86.5098 161.436 84.6336 159.442C82.8245 157.499 79.1894 157.867 76.3751 157.114C69.9257 155.405 63.4596 155.187 56.8929 156.444C53.4756 157.097 51.5324 158.705 50.8791 162.273C50.075 166.779 49.9243 171.252 50.2593 175.775C50.9126 184.938 52.1857 194.034 54.0284 203.03C55.7538 211.489 58.7189 219.564 61.6169 227.655C62.1027 229.012 62.5215 230.653 64.5987 229.765C68.6023 228.023 72.7735 227.772 77.0452 228.308C78.5863 228.509 79.1726 227.873 79.1559 226.398C79.1224 223.484 79.0721 220.569 79.1559 217.654C79.3234 210.049 80.429 202.762 86.8449 197.552C87.9505 196.664 88.0175 195.559 87.6824 194.403C85.6723 187.585 85.8565 180.566 85.555 173.581L85.5215 173.564ZM110.883 58.5972C129.863 49.3001 149.211 48.2782 168.827 54.5936C169.464 54.024 169.347 53.555 169.213 53.1697C166.499 45.1624 163.517 37.2557 158.927 30.086C157.185 27.3554 155.225 24.8092 152.629 22.866C147.251 18.8121 144.688 18.1588 138.339 21.9112C136.095 23.2345 133.967 24.8594 132.074 26.6519C122.626 35.5972 116.026 46.5026 110.867 58.5972H110.883ZM105.992 168.79C106.193 174.368 106.327 179.41 107.014 184.469C108.103 192.393 109.091 200.333 110.582 208.206C110.984 210.35 111.855 211.607 114.301 211.523C116.763 211.456 119.243 211.741 121.722 211.791C124.67 211.841 124.871 211.674 124.419 208.91C122.526 197.267 121.437 185.524 120.248 173.798C120.047 171.805 119.259 170.917 117.35 170.783C113.714 170.515 110.18 169.711 105.975 168.806L105.992 168.79ZM157.369 168.17C153.902 168.706 150.585 169.208 147.302 169.728C143.968 170.247 143.918 170.264 144.001 173.932C144.219 182.961 144.454 191.991 144.705 201.02C144.755 203.063 144.973 205.09 145.007 207.134C145.057 209.429 146.179 210.166 148.357 209.764C151.221 209.245 154.086 208.725 156.984 208.407C159.178 208.173 159.513 206.916 159.296 205.09C158.358 197.251 158.927 189.361 158.659 181.504C158.508 177.149 158.76 172.776 157.336 168.17H157.369ZM163.768 207.067C167.638 206.414 170.452 205.76 173.25 204.956C175.83 204.219 176.6 202.846 176.55 200.249C176.315 190.047 176.265 179.846 176.148 169.661C176.114 167.483 176.098 165.288 176.047 163.111C176.031 161.687 175.294 161.335 174.054 161.838C170.687 163.228 167.353 164.685 163.969 166.009C162.562 166.562 162.344 167.533 162.512 168.79C163.819 178.338 163.584 187.97 163.752 197.569C163.802 200.618 163.752 203.65 163.752 207.084L163.768 207.067ZM124.854 171.135C125.926 182.928 127.032 193.917 128.657 204.856C129.779 212.361 129.846 212.243 137.368 211.171C139.747 210.836 140.567 209.982 140.35 207.586C139.797 201.505 139.495 195.391 139.546 189.277C139.579 184.184 139.445 179.092 139.277 173.983C139.194 171.168 138.993 171.101 136.212 171.135C132.594 171.168 128.958 171.135 124.854 171.135ZM105.858 209.697C105.037 204.504 104.183 199.663 103.513 194.805C102.34 186.312 101.369 177.785 101.033 169.208C100.983 167.985 100.899 166.897 99.5761 166.344C96.6613 165.121 93.7633 163.865 90.748 162.591C90.5302 163.194 90.2789 163.58 90.2957 163.965C90.5135 174.854 90.1952 185.742 92.9425 196.48C94.7349 203.499 99.0065 207.369 105.875 209.714L105.858 209.697ZM181.391 199.629C182.765 200.065 183.267 199.445 183.82 199.026C187.405 196.296 188.058 192.275 188.561 188.171C189.884 177.299 189.348 166.394 189.164 155.489C189.164 154.886 189.047 154.35 188.209 154.098C186.45 155.17 184.641 156.393 182.714 157.382C181.073 158.219 180.57 159.291 180.637 161.168C180.989 170.615 181.173 180.063 181.374 189.511C181.441 192.945 181.374 196.363 181.374 199.629H181.391ZM89.8267 201.69C86.0575 204.722 84.7844 208.307 84.3824 212.31C83.9803 216.364 84.4996 220.519 83.9971 224.505C83.394 229.414 85.421 232.446 89.2403 234.824C89.4581 234.958 89.7596 234.908 90.0277 234.958C94.6176 228.794 95.472 218.006 95.2374 211.959C95.1704 210.317 94.6009 208.96 93.2272 207.821C91.5353 206.397 90.48 204.454 89.8099 201.707L89.8267 201.69ZM188.477 201.455C188.008 202.058 187.639 202.36 187.505 202.728C184.993 209.898 188.996 223.735 194.893 228.425C195.982 229.296 197.875 228.543 198.159 226.985C198.31 226.164 198.159 225.243 197.975 224.405C196.501 217.872 194.072 211.657 191.476 205.492C190.873 204.068 190.135 202.578 188.46 201.455H188.477Z" fill="#0D1117"/>
<path d="M248.716 4.60917e-06C250.525 0.134018 252.552 0.117266 254.529 0.77058C257.729 1.85944 258.281 3.63511 256.087 6.21486C255.534 6.86818 254.814 7.40423 254.127 7.94028C244.478 15.3948 246.488 29.3489 257.209 35.1617C258.348 35.7815 259.655 36.1668 260.727 36.8704C262.369 37.9592 262.452 39.8186 260.828 40.7567C253.306 45.0619 245.5 47.8092 236.705 45.0284C225.297 41.4101 219.351 30.153 222.835 18.7116C226.219 7.60525 236.839 -0.134008 248.716 4.60917e-06ZM253.809 38.9141C247.728 34.7261 244.16 29.5834 243.255 22.9162C242.317 16.0313 244.93 10.2018 249.805 4.90824C239.855 4.74072 231.663 9.84997 228.179 17.941C223.806 28.1093 228.983 38.4115 239.754 40.8908C244.31 41.9461 248.683 41.276 253.809 38.8973V38.9141Z" fill="#0D1117"/>
<path d="M223.974 98.7509C223.186 95.7691 222.282 92.8711 221.679 89.906C221.042 86.7567 223.052 85.1988 226.051 86.472C227.776 87.209 229.334 88.3314 231.009 89.2025C234.578 91.0619 234.092 91.8827 237.107 88.4989C237.392 88.1806 237.71 87.8623 238.028 87.5776C239.251 86.4552 240.591 85.5004 242.317 86.405C243.942 87.2425 244.344 88.8004 244.243 90.4924C244.143 92.0838 243.925 93.6752 243.69 95.2498C243.506 96.5397 243.288 97.8463 242.92 99.1027C242.551 100.393 242.635 101.364 243.992 101.967C244.511 102.202 244.997 102.57 245.449 102.939C246.823 104.044 248.331 105.15 247.761 107.227C247.259 109.053 245.583 109.606 243.992 109.673C239.888 109.891 237.342 111.951 235.901 115.704C235.499 116.759 234.695 117.697 233.974 118.602C233.12 119.657 232.065 120.478 230.591 119.975C229.234 119.506 228.48 118.434 228.296 117.044C228.095 115.452 227.977 113.861 227.927 112.269C227.877 110.728 227.274 109.941 225.632 109.706C223.488 109.388 221.31 108.953 219.3 108.199C216.184 107.043 215.765 104.229 218.395 102.185C220.087 100.862 222.081 99.9235 223.974 98.7844V98.7509ZM232.969 111.532C234.41 108.065 235.633 105.787 238.966 105.904C235.063 102.034 239.72 98.2316 238.363 94.563C234.41 98.4661 231.294 94.094 227.693 93.2396C227.927 95.5849 228.915 97.2098 229.535 98.9687C230.54 101.833 230.205 102.503 227.341 103.374C226.621 103.592 225.716 103.307 224.862 104.58C228.614 105.251 232.484 105.669 232.969 111.516V111.532Z" fill="#0D1117"/>
<path d="M37.0086 100.426C39.2198 100.426 40.761 101.85 42.4361 102.989C44.6809 104.53 46.8641 104.469 48.986 102.805C49.5556 102.353 50.1251 101.883 50.7282 101.498C53.509 99.8063 55.4522 100.862 55.6699 104.162C55.7034 104.748 55.6699 105.334 55.6029 105.904C55.4354 107.345 56.005 108.065 57.5126 108.115C58.8192 108.149 60.1594 108.199 61.4325 108.45C64.163 109.02 64.9671 111.348 62.9066 113.224C60.9802 114.967 58.769 116.491 56.4908 117.731C54.112 119.02 52.7719 120.729 52.3196 123.393C52.0348 125.085 51.3145 126.726 50.6779 128.351C50.1084 129.775 49.1703 130.897 47.4449 130.83C45.7697 130.763 44.9154 129.557 44.2621 128.2C44.1448 127.932 43.994 127.664 43.9605 127.379C43.6087 122.806 40.8112 121.851 36.8411 122.488C36.1543 122.605 35.3837 122.387 34.6969 122.17C31.8826 121.265 31.179 119.121 32.938 116.792C33.4573 116.106 34.0771 115.419 34.7974 114.967C36.305 114.012 36.4223 112.856 35.9197 111.231C35.1994 108.869 34.6131 106.44 34.2781 104.011C33.9598 101.649 34.9984 100.493 36.9919 100.426H37.0086ZM54.8323 113.224C52.1018 112.404 51.1135 110.527 50.3932 107.964C46.8083 111.75 43.6255 109.589 40.2249 107.713C40.0742 111.281 44.1113 113.911 40.8112 117.211C45.0326 117.546 44.9991 117.479 47.8302 121.55C47.7296 116.709 51.281 115.302 54.8323 113.241V113.224Z" fill="#0D1117"/>
<path d="M80.0268 12.3962C79.9765 13.0495 80.0268 13.5018 79.9095 13.9206C78.8039 17.4384 79.2227 19.9847 82.9416 22.0954C86.0574 23.8543 85.5213 27.8915 82.0202 28.7626C76.2912 30.1864 73.1419 33.6708 71.1987 38.847C70.6626 40.2542 69.5235 41.276 67.8316 41.1588C66.0559 41.0248 65.4696 39.6009 65.0173 38.2105C64.6153 36.9709 64.096 35.6475 64.1797 34.3911C64.364 31.6271 62.7894 30.9068 60.5446 30.6387C59.8243 30.555 59.0872 30.421 58.4172 30.1697C56.5745 29.4829 54.8658 28.4778 54.7151 26.3001C54.5643 24.2731 55.9882 22.9832 57.7136 22.4639C60.4776 21.6264 60.7122 19.7334 60.3604 17.3882C60.1594 16.0983 59.9081 14.7749 59.9751 13.4851C60.0923 11.2403 61.9853 9.68244 63.8447 10.7713C68.1666 13.3008 71.4165 12.882 74.3647 8.74435C75.1856 7.58848 76.844 7.20319 78.3516 8.02403C80.2613 9.06263 79.9933 10.9221 80.01 12.4465L80.0268 12.3962ZM74.2307 16.5171C71.3494 20.6715 68.2671 17.539 65.3691 16.9359C64.8163 19.0801 65.9554 20.6715 65.9387 22.4137C65.9387 24.4741 63.8447 24.6919 62.4711 25.6803C66.0559 27.1321 68.323 29.1199 69.2722 31.6438C70.8469 27.3387 74.8673 26.6686 78.6029 24.6752C74.9678 23.0502 73.6779 20.4202 74.2307 16.5171Z" fill="#0D1117"/>
<path d="M100.246 213.098C113.949 218.173 127.468 217.286 140.936 215.61C149.58 214.538 158.274 213.667 166.817 211.623C171.793 210.434 176.667 209.094 181.073 206.95C181.978 207.385 182.095 207.938 182.078 208.541C181.726 217.068 185.361 224.07 190.42 230.536C191.224 231.558 192.129 232.462 192.699 233.702C194.072 236.701 195.211 237.002 197.305 234.489C200.438 230.737 204.542 228.727 208.931 227.052C214.509 224.924 220.255 224.422 226.085 225.645C236.152 227.755 241.881 239.063 237.66 248.494C236.772 250.47 235.6 252.347 234.444 254.206C232.367 257.556 232.702 260.806 237.057 262.046C237.61 262.197 238.179 262.381 238.699 262.632C243.423 264.977 244.176 268.529 240.759 272.465C239.218 274.224 237.409 275.732 235.482 277.039C230.44 280.473 223.907 280.791 219.099 286.185C218.764 283.672 219.652 282.851 220.037 281.897C221.042 279.434 220.892 277.859 219.401 277.34C217.357 276.62 216.469 278.06 215.782 279.585C214.459 282.533 212.131 284.443 209.417 285.967C202.549 289.82 196.401 288.363 191.978 281.796C191.174 280.59 190.621 279.2 189.784 278.027C188.226 275.832 186.4 275.832 184.909 278.027C184.256 278.982 183.854 280.104 183.351 281.159C181.09 286.017 177.873 290.122 173.652 293.371C168.727 297.157 163.166 299.067 156.9 298.397C151.59 297.827 147.017 295.951 144.605 290.674C144.069 289.502 143.231 288.698 141.874 289.066C140.35 289.502 139.981 290.758 140.165 292.182C140.233 292.752 140.333 293.388 140.651 293.84C141.64 295.298 140.802 295.901 139.613 296.47C138.038 297.224 136.43 297.911 134.688 298.229C130.466 299.017 126.245 298.765 122.09 297.878C118.254 297.057 115.172 295.097 112.944 291.68C110.766 288.329 109.259 288.245 106.377 291.093C101.251 296.152 95.4721 299.804 88.1014 300.457C83.2937 300.876 78.7875 300.039 74.7001 297.459C72.3381 295.968 70.3614 294.125 69.3396 291.328C68.2842 288.413 67.9324 288.396 64.7999 289.502C58.1997 291.83 49.7402 289.519 44.8822 284.058C40.0912 278.68 38.9019 270.405 41.9842 264.006C42.9558 261.996 44.2959 260.287 46.1888 259.081C49.1204 257.238 52.0016 257.674 54.8662 259.282C55.955 259.902 57.0941 259.952 58.0657 258.947C59.0876 257.891 58.6185 256.87 58.0322 255.764C53.4925 247.137 56.8094 238.208 65.9558 234.305C73.494 231.089 81.4343 233.049 86.8283 239.465C89.3243 242.43 91.0497 242.296 93.1604 239.18C97.5493 232.714 99.4925 225.477 99.9783 217.788C100.062 216.347 100.146 214.89 100.246 212.997V213.098ZM108.237 250.085C97.9346 249.616 87.2806 256.2 83.2434 265.229C82.6404 266.569 82.0876 267.909 82.2383 269.417C82.3556 270.539 82.9754 271.326 84.0978 271.544C85.0359 271.728 85.8232 271.293 86.3257 270.505C86.6273 270.02 86.778 269.45 86.9623 268.897C88.7212 263.621 92.4066 260.036 97.164 257.456C105.49 252.95 111.252 253.955 117.718 260.974C118.673 262.012 119.661 262.917 121.069 262.029C122.643 261.041 122.342 259.516 121.621 258.176C120.784 256.618 119.46 255.462 118.137 254.29C116.06 252.447 116.077 251.626 118.003 249.834C119.594 248.343 121.571 247.857 123.632 247.84C125.072 247.84 126.513 248.176 127.954 248.36C129.377 248.544 130.667 248.31 131.019 246.685C131.354 245.11 130.316 244.356 128.992 243.787C123.967 241.642 116.747 243.217 113.547 247.723C111.956 249.968 110.482 250.99 108.254 250.085H108.237ZM172.01 243.887C165.879 243.854 161.541 245.177 158.09 247.639C156.9 248.494 155.795 249.432 155.007 250.688C154.17 252.045 153.835 253.452 155.326 254.541C156.666 255.529 157.838 254.859 158.693 253.704C159.949 252.012 161.641 250.94 163.517 250.085C170.017 247.154 177.991 248.762 183.167 254.039C184.708 255.596 185.931 257.389 187.037 259.282C187.774 260.538 188.98 261.125 190.37 260.304C191.576 259.6 191.56 258.377 191.208 257.205C190.99 256.518 190.638 255.865 190.253 255.261C185.629 247.975 179.046 244.122 172.027 243.854L172.01 243.887Z" fill="#F49E21"/>
<path d="M123.715 166.511C115.423 166.511 105.959 164.434 96.9965 160.129C95.5559 159.442 94.132 158.688 92.7584 157.867C91.2675 156.98 90.5974 155.69 90.6476 153.864C91.4182 127.781 95.1706 102.185 103.077 77.2585C103.731 75.1813 104.769 73.2046 105.272 71.0939C106.176 67.2913 108.773 65.3816 112.09 63.7567C123.699 58.0612 135.76 54.7108 148.809 55.7159C155.962 56.2687 162.981 57.3408 169.548 60.5069C171.29 61.3445 172.262 62.3663 172.848 64.1923C178.141 80.7429 182.664 97.461 184.876 114.749C186.082 124.146 187.003 133.594 188.326 142.975C188.829 146.51 187.74 148.721 184.775 150.564C173.015 157.884 160.586 163.412 146.699 165.104C139.613 165.958 132.527 167.081 123.715 166.528V166.511ZM137.787 135.638C147.922 135.722 157.369 131.685 163.919 124.481C175.294 111.985 173.719 93.4741 160.418 83.1886C145.66 71.7975 122.576 75.1813 111.738 90.3248C102.742 102.889 105.171 119.473 117.45 128.887C123.431 133.477 130.282 135.621 137.804 135.638H137.787Z" fill="#EBE0D4"/>
<path d="M194.29 175.942C194.726 169.661 194.072 163.412 193.855 157.164C193.771 154.718 194.525 153.043 196.3 151.485C201.242 147.13 206.452 143.193 212.616 140.697C214.225 140.044 215.883 139.424 217.592 139.072C222.349 138.084 224.209 139.256 225.599 144.047C227.073 149.09 228.078 154.216 228.095 159.509C228.128 178.656 226.202 197.586 221.545 216.197C220.54 220.2 221.176 220.15 216.788 220.318C213.119 220.468 209.635 221.524 206.234 222.881C203.068 224.154 203.034 224.137 202.096 220.653C200.706 215.443 198.679 210.451 196.82 205.392C196.267 203.901 195.647 202.293 194.592 201.17C191.844 198.256 191.911 195.14 192.883 191.555C194.257 186.462 193.704 181.119 194.307 175.926L194.29 175.942Z" fill="#874CC4"/>
<path d="M85.5216 173.564C85.8399 180.549 85.6389 187.568 87.6491 194.386C87.9841 195.542 87.9171 196.647 86.8115 197.535C80.3956 202.762 79.29 210.032 79.1225 217.637C79.0555 220.552 79.1058 223.467 79.1225 226.382C79.1225 227.856 78.5697 228.476 77.0118 228.291C72.7569 227.755 68.569 228.023 64.5653 229.749C62.4881 230.653 62.0693 228.995 61.5835 227.638C58.6688 219.547 55.7205 211.473 53.9951 203.013C52.1524 194.001 50.8793 184.921 50.2259 175.758C49.9077 171.235 50.0417 166.763 50.8457 162.256C51.4823 158.688 53.4423 157.08 56.8596 156.427C63.4262 155.17 69.8924 155.405 76.3417 157.097C79.156 157.834 82.7911 157.482 84.6003 159.425C86.4765 161.436 84.9688 165.004 85.2201 167.868C85.3876 169.761 85.4044 171.654 85.4881 173.547L85.5216 173.564Z" fill="#874CC4"/>
<path d="M110.883 58.614C116.043 46.5193 122.626 35.6307 132.091 26.6686C133.984 24.8762 136.111 23.2513 138.356 21.9279C144.705 18.1755 147.268 18.8288 152.645 22.8827C155.225 24.8259 157.202 27.3722 158.944 30.1027C163.534 37.2892 166.515 45.1792 169.229 53.1865C169.363 53.5717 169.481 54.024 168.844 54.6103C149.228 48.295 129.88 49.3001 110.9 58.614H110.883Z" fill="#874CC4"/>
<path d="M105.992 168.806C110.197 169.711 113.731 170.515 117.367 170.783C119.259 170.917 120.064 171.805 120.265 173.798C121.454 185.524 122.526 197.267 124.436 208.91C124.888 211.69 124.687 211.841 121.739 211.791C119.259 211.757 116.78 211.456 114.318 211.523C111.889 211.59 111.018 210.35 110.599 208.206C109.108 200.333 108.12 192.409 107.031 184.469C106.327 179.41 106.21 174.368 106.009 168.79L105.992 168.806Z" fill="#874CC4"/>
<path d="M157.369 168.186C158.777 172.776 158.542 177.165 158.693 181.521C158.961 189.377 158.391 197.267 159.329 205.107C159.547 206.933 159.212 208.173 157.018 208.424C154.12 208.742 151.255 209.261 148.391 209.781C146.213 210.166 145.09 209.446 145.04 207.151C144.99 205.107 144.789 203.08 144.739 201.036C144.487 192.007 144.236 182.978 144.035 173.949C143.951 170.28 144.002 170.264 147.335 169.744C150.635 169.225 153.935 168.723 157.403 168.186H157.369Z" fill="#874CC4"/>
<path d="M163.768 207.084C163.768 203.65 163.819 200.601 163.768 197.569C163.601 187.97 163.835 178.338 162.529 168.789C162.361 167.55 162.579 166.562 163.986 166.009C167.37 164.685 170.704 163.228 174.071 161.838C175.31 161.335 176.031 161.687 176.064 163.111C176.098 165.288 176.131 167.483 176.165 169.661C176.282 179.862 176.315 190.064 176.567 200.249C176.634 202.846 175.846 204.219 173.267 204.956C170.469 205.76 167.655 206.414 163.785 207.067L163.768 207.084Z" fill="#874CC4"/>
<path d="M124.854 171.151C128.959 171.151 132.577 171.168 136.212 171.151C138.993 171.135 139.177 171.202 139.278 173.999C139.445 179.092 139.596 184.184 139.546 189.294C139.495 195.425 139.797 201.522 140.35 207.603C140.568 209.982 139.747 210.836 137.368 211.188C129.846 212.277 129.763 212.394 128.657 204.873C127.032 193.934 125.927 182.945 124.854 171.151Z" fill="#874CC4"/>
<path d="M105.858 209.714C98.9897 207.369 94.718 203.499 92.9256 196.48C90.1783 185.742 90.4966 174.854 90.2788 163.965C90.2788 163.597 90.5301 163.211 90.7311 162.591C93.7464 163.881 96.6444 165.121 99.5592 166.344C100.883 166.897 100.966 167.969 101.017 169.208C101.368 177.785 102.323 186.312 103.496 194.805C104.166 199.663 105.02 204.504 105.841 209.697L105.858 209.714Z" fill="#874CC4"/>
<path d="M181.391 199.629C181.391 196.379 181.458 192.945 181.391 189.511C181.19 180.063 181.006 170.615 180.654 161.168C180.587 159.291 181.073 158.219 182.731 157.382C184.658 156.393 186.467 155.17 188.226 154.098C189.063 154.35 189.164 154.886 189.181 155.489C189.348 166.394 189.901 177.299 188.577 188.171C188.075 192.259 187.422 196.279 183.837 199.026C183.284 199.445 182.781 200.065 181.408 199.629H181.391Z" fill="#874CC4"/>
<path d="M253.825 38.9141C248.699 41.276 244.327 41.9461 239.771 40.9075C228.999 38.4283 223.806 28.1093 228.195 17.9578C231.68 9.86672 239.871 4.75747 249.822 4.92499C244.947 10.2185 242.334 16.0313 243.272 22.933C244.176 29.6002 247.745 34.7429 253.825 38.9308V38.9141Z" fill="#F49E21"/>
<path d="M232.97 111.532C232.484 105.686 228.614 105.267 224.862 104.597C225.699 103.324 226.621 103.609 227.341 103.391C230.206 102.52 230.541 101.85 229.536 98.9854C228.916 97.2265 227.927 95.6016 227.693 93.2564C231.278 94.1107 234.41 98.4829 238.364 94.5798C239.704 98.2484 235.064 102.051 238.967 105.921C235.633 105.803 234.41 108.082 232.97 111.549V111.532Z" fill="#F49E21"/>
<path d="M54.8323 113.224C51.2809 115.285 47.7296 116.692 47.8301 121.533C44.9991 117.462 45.0326 117.546 40.8112 117.194C44.1112 113.894 40.0741 111.264 40.2248 107.696C43.6087 109.589 46.8082 111.733 50.3931 107.948C51.1134 110.511 52.1018 112.387 54.8323 113.208V113.224Z" fill="#F49E21"/>
<path d="M74.2308 16.5004C73.678 20.4035 74.9847 23.0168 78.603 24.6584C74.8674 26.6519 70.847 27.3219 69.2724 31.6271C68.3343 29.1032 66.0672 27.1153 62.4712 25.6635C63.8448 24.6752 65.922 24.4574 65.9388 22.3969C65.9388 20.6715 64.8164 19.0634 65.3692 16.9192C68.2673 17.5222 71.3496 20.638 74.2308 16.5004Z" fill="#F49E21"/>
<path d="M108.237 250.085C110.465 250.99 111.939 249.951 113.53 247.723C116.73 243.217 123.966 241.642 128.975 243.787C130.299 244.356 131.337 245.11 131.002 246.685C130.65 248.31 129.377 248.544 127.937 248.36C126.496 248.176 125.055 247.841 123.615 247.841C121.554 247.841 119.578 248.343 117.986 249.834C116.06 251.626 116.043 252.447 118.12 254.29C119.427 255.463 120.767 256.618 121.604 258.176C122.325 259.533 122.643 261.041 121.052 262.029C119.645 262.917 118.656 262.012 117.701 260.974C111.252 253.955 105.473 252.95 97.1471 257.456C92.3896 260.036 88.7043 263.621 86.9454 268.897C86.7611 269.45 86.6103 270.02 86.3088 270.505C85.8062 271.293 85.0357 271.728 84.0808 271.544C82.9417 271.326 82.3387 270.539 82.2214 269.417C82.0706 267.909 82.6234 266.569 83.2265 265.229C87.2636 256.2 97.9177 249.616 108.22 250.085H108.237Z" fill="#0D1117"/>
<path d="M172.027 243.904C179.046 244.172 185.646 248.025 190.253 255.312C190.638 255.915 190.99 256.568 191.208 257.255C191.576 258.428 191.576 259.65 190.37 260.354C188.98 261.158 187.79 260.588 187.037 259.332C185.931 257.439 184.708 255.663 183.167 254.089C178.008 248.812 170.017 247.204 163.517 250.135C161.641 250.973 159.949 252.062 158.693 253.754C157.839 254.91 156.666 255.58 155.326 254.591C153.835 253.503 154.17 252.079 155.008 250.739C155.795 249.482 156.9 248.544 158.09 247.69C161.541 245.227 165.879 243.904 172.01 243.937L172.027 243.904Z" fill="#0D1117"/>
<path d="M137.803 135.655C130.282 135.655 123.43 133.494 117.45 128.904C105.171 119.489 102.742 102.905 111.738 90.3416C122.593 75.1981 145.66 71.8143 160.418 83.2054C173.736 93.4909 175.31 111.985 163.919 124.498C157.369 131.701 147.921 135.722 137.787 135.655H137.803ZM137.837 81.1449C131.89 81.2287 124.921 83.7917 119.108 89.1522C106.813 100.476 109.057 119.037 123.631 127.162C135.659 133.846 151.205 131.299 160.401 121.114C170.151 110.326 168.459 94.764 156.582 86.3882C151.556 82.8368 145.928 81.1114 137.82 81.1617L137.837 81.1449Z" fill="#0D1117"/>
<path d="M137.837 81.1449C145.945 81.0947 151.573 82.8201 156.599 86.3714C168.476 94.7473 170.168 110.31 160.418 121.098C151.205 131.283 135.659 133.846 123.648 127.145C109.074 119.02 106.83 100.46 119.125 89.1355C124.938 83.7749 131.907 81.2119 137.854 81.1282L137.837 81.1449ZM138.507 125.872C144.856 125.704 150.568 123.862 155.359 119.607C163.819 112.085 163.986 100.007 155.761 92.2178C146.564 83.5237 130.031 83.8922 121.236 92.9883C113.564 100.929 113.949 112.37 122.141 119.774C126.798 123.979 132.376 125.721 138.524 125.872H138.507Z" fill="#874CC4"/>
<path d="M138.507 125.872C132.359 125.738 126.781 123.996 122.124 119.774C113.932 112.37 113.564 100.912 121.219 92.9884C130.014 83.8922 146.548 83.5237 155.744 92.2178C163.969 99.9905 163.802 112.068 155.342 119.607C150.551 123.862 144.856 125.704 138.49 125.872H138.507ZM139.529 90.7604C133.331 90.7604 128.121 92.6533 124.067 97.1428C119.309 102.436 119.343 109.74 124.017 115C131.505 123.409 146.866 123.024 153.902 114.246C158.24 108.819 158.056 101.833 153.349 96.724C149.58 92.6366 144.755 90.9279 139.529 90.7604Z" fill="#0D1117"/>
<path d="M139.529 90.7436C144.755 90.9111 149.58 92.6198 153.349 96.7072C158.056 101.816 158.241 108.802 153.902 114.229C146.883 123.007 131.505 123.393 124.017 114.983C119.343 109.723 119.31 102.42 124.067 97.126C128.104 92.6366 133.314 90.7604 139.529 90.7436Z" fill="#F49E21"/>
</g>
<defs>
<clipPath id="clip0_831_8138">
<rect width="278" height="278" fill="white" transform="translate(0 5)"/>
</clipPath>
<clipPath id="clip1_831_8138">
<rect width="230" height="305.416" fill="white" transform="translate(32)"/>
</clipPath>
</defs>
</svg>
