<svg width="303" height="282" viewBox="0 0 303 282" fill="none" xmlns="http://www.w3.org/2000/svg">
<g clip-path="url(#clip0_144_772)">
<path d="M120.583 4.89172C104.49 8.74971 89.6141 17.1546 75.6611 26.7077C58.0993 38.7409 41.4816 52.9787 29.0603 71.1433C11.2046 97.2766 3.08464 130.092 0.608772 162.61C-0.838981 181.601 -0.251487 201.695 8.39307 218.229C19.5555 239.609 41.6704 250.677 62.5894 259.725C92.8873 272.838 124.885 284.687 157.344 281.495C173.878 279.865 189.866 274.376 205.56 268.52C237.096 256.763 270.164 241.675 288.355 211.156C305.959 181.624 305.854 143.044 297.566 108.965C293.894 93.9008 288.858 76.4481 280.13 63.8407C270.751 50.2919 255.917 39.2232 244.293 27.787C239.824 23.4008 235.334 18.9688 230.172 15.5701C225.094 12.2173 219.492 9.96681 213.827 8.03782C184.578 -1.85974 150.399 -2.2731 120.541 4.86876L120.583 4.89172Z" fill="#B895C5"/>
</g>
<defs>
<clipPath id="clip0_144_772">
<rect width="303" height="282" fill="white"/>
</clipPath>
</defs>
</svg>
