<svg width="200" height="208" viewBox="0 0 200 208" fill="none" xmlns="http://www.w3.org/2000/svg">
<g clip-path="url(#clip0_144_590)">
<path d="M99.9073 137.658C99.4083 136.033 97.8544 135.89 96.6569 135.348C93.2069 133.78 89.7141 132.283 86.2356 130.772C84.5961 130.059 83.0992 129.19 83.6837 127.037C84.2255 125.055 85.7794 124.528 87.6327 124.685C91.2823 124.984 94.9461 125.226 98.5672 125.668C101.946 126.082 105.196 125.44 108.575 125.184C108.589 123.516 107.42 123.373 106.665 123.031C102.53 121.192 98.0682 120.422 93.7201 119.267C91.9951 118.811 89.4575 119.21 89.0155 116.53C88.7589 114.976 90.5837 113.807 94.2903 113.394C99.893 112.766 105.51 112.339 111.113 111.854C113.365 111.654 115.518 111.198 117.713 109.915C116.216 107.663 114.135 107.606 112.096 107.52C105.339 107.264 98.5815 107.563 91.824 107.862C90.5695 107.919 89.2864 107.962 88.0461 107.848C86.8344 107.734 85.8934 107.064 85.6653 105.795C85.4372 104.498 86.2071 103.642 87.3048 103.144C91.0114 101.461 94.7465 99.8076 98.4817 98.1824C101.062 97.0561 103.685 96.0297 106.251 94.9034C107.292 94.4472 108.447 93.7915 108.105 92.4371C107.791 91.1683 106.465 90.9545 105.367 90.8689C102.659 90.6551 100.064 91.3679 97.5122 92.1805C89.8567 94.6041 82.5575 97.9115 75.2298 101.176C74.46 101.518 73.7329 102.003 72.9346 102.231C70.3114 103.001 68.116 101.504 67.8451 98.7669C67.6455 96.8565 68.3298 95.1743 69.285 93.5776C70.6536 91.2824 72.1077 89.0442 73.3765 86.6919C73.8755 85.7652 74.4885 84.6105 73.4906 83.5555C72.4641 82.4863 71.1953 82.6289 69.955 83.0423C68.3013 83.6125 67.1181 84.8528 65.9918 86.1074C63.7251 88.6307 61.8148 91.4107 59.99 94.2762C57.4809 98.2251 54.4015 101.704 51.0228 104.911C48.6563 107.135 48.2714 106.936 45.9476 104.697C41.1718 100.121 36.3104 95.6305 31.3921 91.1968C25.1193 85.5371 18.7468 79.9772 12.4313 74.3745C12.0036 74.0039 11.5474 73.6475 11.2053 73.2198C9.63712 71.2239 7.78381 69.2566 9.13815 66.4196C10.464 63.6539 13.0586 62.8555 15.7958 62.7557C18.4617 62.656 21.1276 63.0266 23.8078 63.1122C36.6098 63.5113 49.4404 62.5989 62.2282 63.6681C64.7658 63.882 65.835 62.9126 66.8472 60.6458C74.1891 44.1942 80.861 27.4859 87.1908 10.6351C87.7325 9.19525 88.2457 7.78389 89.2579 6.51509C93.9624 0.627286 100.563 1.43989 103.443 8.42542C105.481 13.3581 107.349 18.3762 109.103 23.4229C113.066 34.8564 117.314 46.1758 121.591 57.481C122.76 60.5888 124.513 61.6438 127.778 61.9004C143.218 63.1264 158.628 64.6233 174.054 66.0632C177.661 66.4053 179.685 70.6394 178.088 74.4743C177.033 76.9977 175.208 78.9508 173.056 80.6187C159.441 91.0828 145.869 101.618 132.169 111.982C129.703 113.85 128.719 115.504 129.275 118.854C131 129.261 131.699 139.825 133.58 150.232C134.792 156.875 136.132 163.504 137.401 170.133C137.957 173.056 138.1 176.007 138.057 178.972C138.043 180.526 137.829 182.037 137.173 183.491C134.849 188.624 130.301 189.978 126.025 186.385C122.147 183.135 118.597 179.485 114.99 175.921C107.363 168.408 99.9501 160.681 92.936 152.598C92.0236 151.543 91.0257 150.574 89.8852 149.362C83.2561 154.765 76.741 160.097 70.2116 165.415C62.3422 171.816 54.4158 178.131 46.6319 184.618C44.4935 186.4 42.5119 186.115 40.402 185.074C38.0354 183.905 36.0966 182.265 36.1109 179.329C36.1109 177.931 36.2677 176.492 36.6098 175.137C40.017 161.922 42.74 148.535 46.6889 135.462C46.9313 134.65 47.1879 133.837 47.5301 133.067C48.9699 129.86 50.1389 129.389 53.3893 130.615C59.6336 132.982 66.2057 133.809 72.7492 134.707C80.6899 135.804 88.6449 136.845 96.6141 137.872C97.6691 138.014 98.7953 138.285 99.9358 137.658H99.9073ZM74.7166 96.0154C76.6982 95.6875 78.3947 94.6468 80.191 93.8342C86.2213 91.097 92.38 88.7448 98.7525 86.9342C101.504 86.1501 104.327 86.0646 107.135 86.4495C110.215 86.8772 112.709 89.0869 113.08 91.6958C113.465 94.5043 112.111 96.657 109.858 98.1111C108.219 99.166 106.351 99.8788 104.583 100.748C103.699 101.19 102.502 101.219 101.974 102.531C106.551 102.844 110.942 102.231 115.261 103.172C117.528 103.671 119.581 104.469 121.178 106.18C123.131 108.261 123.159 110.386 121.391 112.624C119.695 114.762 117.243 115.432 114.762 115.988C111.997 116.601 109.16 116.829 106.308 117.214C108.033 118.455 109.815 119.239 111.455 120.265C113.351 121.448 114.591 123.188 114.22 125.554C113.85 127.964 112.082 129.133 109.872 129.546C107.805 129.931 105.695 130.145 103.6 130.359C102.06 130.515 100.492 130.515 98.3819 130.615C100.549 131.955 102.188 132.811 103.628 133.908C105.154 135.077 106.037 136.703 105.653 138.713C105.268 140.78 103.742 141.778 101.86 142.22C100.634 142.505 99.337 142.776 98.111 142.647C93.2069 142.163 88.3027 141.649 83.4414 140.922C73.4335 139.44 63.2974 138.641 53.5747 135.591C52.1776 135.149 51.4505 135.776 51.0798 137.045C50.7947 137.986 50.4668 138.927 50.2387 139.882C47.302 151.615 44.3652 163.362 41.4427 175.094C41.2431 175.907 41.015 176.748 40.9722 177.575C40.9152 178.716 41.0578 179.87 42.1127 180.583C43.3958 181.438 44.2084 180.384 45.0495 179.728C59.0205 168.808 72.6494 157.46 86.2213 146.055C89.5715 143.246 90.4127 143.118 93.5775 146.397C96.1294 149.02 98.5102 151.8 100.962 154.523C109.53 164.074 118.697 173.013 127.949 181.88C130.686 184.504 132.625 183.805 133.31 180.027C133.58 178.53 133.538 176.934 133.381 175.408C133.124 172.885 132.782 170.376 132.283 167.895C130.002 156.305 127.65 144.715 126.367 132.953C125.754 127.365 125.554 121.691 124.014 116.259C123.302 113.75 123.957 112.253 125.896 110.87C140.894 100.121 154.979 88.1888 169.763 77.1688C170.775 76.4132 171.758 75.5721 172.528 74.6026C174.624 71.9225 174.111 70.6964 170.746 70.3828C155.62 68.9714 140.495 67.5173 125.34 66.2485C122.019 65.9634 119.695 64.7231 118.426 61.6723C116.972 58.1653 115.504 54.6582 114.192 51.0942C109.63 38.677 105.139 26.2457 100.577 13.8285C99.9501 12.1178 99.2087 10.407 98.2393 8.88162C96.942 6.81447 95.5021 6.75745 93.7486 8.43968C92.0521 10.0649 91.3963 12.2746 90.655 14.3702C84.5391 31.4777 77.297 48.1146 70.0406 64.7516C68.5437 68.1874 67.9592 68.5723 64.3238 68.4012C61.8005 68.2871 59.2629 68.002 56.7395 67.9735C43.3672 67.8309 29.9807 67.7454 16.6084 67.6741C15.6817 67.6741 14.641 67.389 13.9282 68.2729C13.7001 69.3421 14.4557 69.8696 15.0402 70.4113C25.5613 79.9772 36.51 89.0727 46.746 98.9522C48.2571 100.406 49.2836 100.178 50.5524 98.7241C52.591 96.3861 54.5156 93.9768 56.2548 91.4107C57.9798 88.8446 59.7904 86.3212 61.6864 83.8834C63.2546 81.8733 65.1079 80.1198 67.4174 78.965C70.8532 77.24 74.3459 77.7105 76.7837 80.1483C79.0647 82.415 79.3499 84.9384 77.5536 88.6878C76.4559 90.9545 75.1158 93.1072 73.904 95.3169C73.6902 95.6162 73.3623 95.9584 73.7329 96.272C74.0751 96.5572 74.4457 96.3291 74.7166 96.0297V96.0154Z" fill="#0D1117"/>
<path d="M45.6621 35.7545C43.8658 35.4836 43.4096 34.2291 43.21 32.7465C42.483 27.4859 39.9454 23.2803 35.8396 19.9729C35.2978 19.531 34.7419 19.0748 34.3284 18.5188C33.2022 16.9649 33.4303 15.3967 35.2408 14.7837C40.2305 13.1014 41.6989 8.93862 42.9962 4.57623C43.2385 3.77788 43.2528 2.90826 43.4809 2.10991C43.9228 0.555985 44.9065 -0.199593 46.6173 0.0570188C48.1712 0.285118 49.2689 0.91239 49.4542 2.60888C49.5825 3.86342 49.6538 5.13222 49.8534 6.37251C50.4949 10.2074 51.5784 13.7572 55.4418 15.6961C56.0406 15.9954 56.5396 16.5657 56.9387 17.1359C57.8226 18.3905 57.6515 19.8874 56.283 20.3151C52.833 21.4128 51.892 24.4066 50.5092 27.101C49.4828 29.0969 48.7414 31.221 48.1854 33.4022C47.8433 34.7138 47.1162 35.6832 45.6764 35.7688L45.6621 35.7545ZM50.3666 18.2051C48.5704 16.138 47.102 13.8998 46.0185 10.849C44.1224 13.6289 42.6113 15.8814 40.4016 17.6919C42.8109 20.0727 44.322 22.5675 46.1183 25.3332C47.3158 22.6103 48.827 20.4719 50.3666 18.2051Z" fill="#0D1117"/>
<path d="M26.1026 160.24C25.9173 161.466 25.2473 162.136 24.4489 162.777C20.3146 166.07 16.8219 169.834 15.1396 175.009C14.769 176.135 14.0419 176.991 12.6876 176.905C11.319 176.819 10.6632 175.836 10.4779 174.695C9.62249 169.292 5.83035 165.885 2.25205 162.321C1.95267 162.022 1.56775 161.808 1.28263 161.508C-0.756008 159.313 -0.385347 157.574 2.45163 156.462C3.7632 155.948 5.06051 155.407 6.20101 154.594C8.72435 152.798 10.264 150.317 10.9056 147.323C11.2192 145.841 11.5898 144.458 13.3434 144.401C15.1396 144.344 15.7812 145.798 15.8667 147.238C16.1946 152.213 19.0743 155.15 23.3655 157.046C24.8909 157.716 25.9601 158.671 26.1169 160.254L26.1026 160.24ZM13.0582 154.409C11.2334 156.733 8.88117 158.187 6.89956 160.054C9.09502 162.734 11.1051 165.172 13.1865 167.71C15.3535 165.258 17.3493 162.977 19.5733 160.468C16.8931 158.942 14.8973 156.889 13.0582 154.409Z" fill="#0D1117"/>
<path d="M158.7 113.351C160.083 113.322 160.782 113.764 161.181 114.577C161.551 115.333 161.822 116.131 162.122 116.915C163.505 120.593 165.629 123.53 169.407 125.155C171.716 126.153 172.073 127.465 170.59 128.99C167.397 132.269 165.543 136.346 163.49 140.324C163.234 140.823 163.077 141.379 162.749 141.821C161.309 143.816 159.228 143.645 158.173 141.45C157.873 140.823 157.788 140.096 157.517 139.454C155.963 135.861 153.981 132.725 149.576 132.255C148.436 132.126 147.794 131.456 147.68 130.344C147.538 129.004 147.766 127.678 149.177 127.194C154.295 125.483 155.992 121.434 156.662 116.616C156.761 115.931 156.918 115.247 157.146 114.591C157.46 113.679 158.23 113.365 158.686 113.337L158.7 113.351ZM159.955 123.53C158.529 125.383 157.104 127.251 155.635 129.175C157.332 130.986 159.028 132.796 160.967 134.878C162.279 132.611 164.203 130.644 164.403 128.52C164.574 126.652 161.637 125.683 160.468 123.958C160.397 123.843 160.254 123.772 159.941 123.53H159.955Z" fill="#0D1117"/>
<path d="M200 111.412C199.772 112.695 199.486 113.764 198.531 114.52C195.11 117.243 191.788 120.051 190.12 124.3C189.721 125.298 188.766 125.683 187.682 125.511C186.556 125.326 186 124.585 185.843 123.501C185.758 122.945 185.701 122.389 185.629 121.833C185.187 118.711 183.733 116.473 180.797 114.933C177.375 113.137 177.375 111.683 180.568 109.616C183.448 107.762 185.401 105.382 185.8 101.903C185.872 101.347 185.929 100.777 186.128 100.264C186.57 99.1232 187.397 98.4104 188.652 98.3677C189.735 98.3249 190.591 98.8951 191.018 99.8361C191.66 101.233 192.13 102.716 192.7 104.141C193.727 106.651 194.711 109.131 198.104 109.188C199.501 109.202 199.829 110.4 199.985 111.412H200ZM192.986 112.88C191.517 111.098 190.277 109.602 188.937 107.976C187.725 109.402 186.585 110.756 185.501 112.039C186.784 113.608 187.925 114.99 189.094 116.416C190.619 115.603 191.645 114.249 192.986 112.866V112.88Z" fill="#0D1117"/>
<path d="M67.4599 195.766C67.1748 196.336 67.018 197.092 66.5618 197.562C64.238 199.872 62.5416 202.595 60.9449 205.417C60.2891 206.558 59.4337 207.527 57.9511 207.271C56.6823 207.043 56.1405 206.03 55.8697 204.876C55.1711 201.896 53.7455 199.444 51.1224 197.719C49.8821 196.906 49.6967 195.709 50.6234 194.44C51.2792 193.542 51.7639 192.53 52.7618 191.874C55.2281 190.235 56.5397 187.797 57.2097 184.974C57.281 184.703 57.3381 184.432 57.3951 184.147C57.6517 182.907 58.393 182.051 59.6618 182.037C60.9449 182.037 61.786 182.85 61.9 184.119C62.2137 187.383 63.8531 189.921 66.0628 192.188C67.018 193.171 67.0608 194.469 67.4742 195.78L67.4599 195.766ZM58.9918 199.358C60.2035 197.833 61.23 196.536 62.2422 195.267C61.4011 193.955 60.7025 192.801 59.505 192.074C57.1575 194.326 56.9864 196.754 58.9918 199.358Z" fill="#0D1117"/>
<path d="M73.8898 95.3026C75.1158 93.0929 76.4559 90.9402 77.5537 88.6735C79.3642 84.9241 79.0648 82.4008 76.7838 80.134C74.346 77.6962 70.839 77.24 67.4175 78.9508C65.108 80.1055 63.2547 81.859 61.6865 83.8691C59.7904 86.307 57.9942 88.8303 56.2549 91.3964C54.5157 93.9768 52.5911 96.3718 50.5524 98.7098C49.2836 100.164 48.2429 100.392 46.746 98.9379C36.5101 89.0584 25.5613 79.963 15.0403 70.3971C14.4415 69.8553 13.6859 69.3278 13.9283 68.2586C14.6411 67.3605 15.6818 67.6456 16.6085 67.6599C29.9808 67.7454 43.3673 67.8309 56.7396 67.9592C59.263 67.9878 61.8006 68.2729 64.3239 68.3869C67.9592 68.558 68.5437 68.1731 70.0406 64.7373C77.297 48.1004 84.5392 31.4492 90.6551 14.356C91.4107 12.2603 92.0522 10.0506 93.7487 8.42542C95.4879 6.75744 96.9278 6.81447 98.2394 8.86736C99.2088 10.407 99.9501 12.1035 100.577 13.8143C105.139 26.2314 109.616 38.6628 114.192 51.0799C115.504 54.644 116.972 58.151 118.426 61.658C119.695 64.7088 122.004 65.9634 125.34 66.2342C140.48 67.503 155.606 68.9572 170.746 70.3685C174.111 70.6822 174.638 71.9082 172.528 74.5884C171.759 75.572 170.775 76.4132 169.763 77.1545C154.979 88.1745 140.894 100.107 125.896 110.856C123.958 112.253 123.316 113.736 124.015 116.245C125.554 121.677 125.754 127.351 126.367 132.939C127.65 144.7 130.002 156.291 132.283 167.881C132.768 170.361 133.124 172.885 133.381 175.394C133.538 176.919 133.595 178.516 133.31 180.013C132.611 183.791 130.672 184.475 127.949 181.866C118.697 172.999 109.53 164.046 100.962 154.509C98.5245 151.786 96.1295 149.006 93.5776 146.383C90.4127 143.118 89.5716 143.232 86.2214 146.04C72.6495 157.445 59.0206 168.793 45.0496 179.713C44.1942 180.384 43.3816 181.424 42.1128 180.569C41.0578 179.856 40.9153 178.687 40.9723 177.561C41.015 176.734 41.2431 175.893 41.4427 175.08C44.3653 163.347 47.302 151.6 50.2388 139.867C50.4812 138.912 50.8091 137.986 51.0799 137.03C51.4506 135.762 52.1776 135.134 53.5747 135.576C63.2975 138.613 73.4336 139.411 83.4415 140.908C88.3171 141.635 93.2069 142.148 98.1111 142.633C99.3371 142.747 100.634 142.491 101.86 142.205C103.742 141.764 105.253 140.751 105.653 138.698C106.023 136.688 105.154 135.063 103.628 133.894C102.188 132.796 100.563 131.941 98.3819 130.601C100.492 130.501 102.046 130.501 103.6 130.344C105.695 130.145 107.805 129.931 109.872 129.532C112.082 129.118 113.85 127.949 114.221 125.54C114.577 123.173 113.351 121.434 111.455 120.251C109.815 119.224 108.033 118.44 106.308 117.2C109.16 116.815 111.997 116.587 114.762 115.974C117.243 115.432 119.695 114.748 121.391 112.61C123.159 110.386 123.131 108.261 121.178 106.166C119.581 104.469 117.528 103.657 115.261 103.158C110.942 102.217 106.565 102.816 101.974 102.516C102.502 101.205 103.685 101.162 104.583 100.734C106.351 99.8646 108.219 99.166 109.858 98.0968C112.111 96.6427 113.479 94.49 113.08 91.6815C112.724 89.0727 110.229 86.8629 107.135 86.4353C104.327 86.0503 101.518 86.1359 98.7526 86.92C92.3801 88.7305 86.2072 91.0828 80.191 93.82C78.409 94.6326 76.7125 95.6733 74.7167 96.0012C74.4458 95.7588 74.1607 95.5165 73.8898 95.2741V95.3026Z" fill="#874CC4"/>
<path d="M74.7171 96.0154C74.4319 96.3148 74.0755 96.5429 73.7334 96.2578C73.3627 95.9299 73.6906 95.5877 73.9044 95.3026C74.1753 95.545 74.4462 95.7873 74.7313 96.0154H74.7171Z" fill="#874CC4"/>
<path d="M50.3674 18.2052C48.8135 20.4719 47.3166 22.6103 46.1191 25.3333C44.3228 22.5676 42.7974 20.087 40.4023 17.6919C42.6121 15.8814 44.1232 13.6289 46.0193 10.849C47.1027 13.8998 48.5854 16.138 50.3674 18.2052Z" fill="#F49E21"/>
<path d="M13.0591 154.409C14.8981 156.889 16.894 158.942 19.5741 160.468C17.3502 162.991 15.3401 165.258 13.1874 167.71C11.106 165.172 9.1101 162.734 6.90039 160.054C8.882 158.187 11.2343 156.733 13.0591 154.409Z" fill="#F49E21"/>
<path d="M159.955 123.53C160.268 123.772 160.397 123.843 160.482 123.958C161.651 125.683 164.588 126.666 164.417 128.52C164.217 130.644 162.293 132.597 160.981 134.878C159.028 132.796 157.346 130.986 155.649 129.175C157.132 127.251 158.558 125.383 159.969 123.53H159.955Z" fill="#F49E21"/>
<path d="M192.985 112.88C191.645 114.263 190.619 115.618 189.094 116.43C187.925 115.005 186.784 113.608 185.501 112.054C186.584 110.771 187.725 109.416 188.937 107.991C190.277 109.602 191.517 111.113 192.985 112.895V112.88Z" fill="#F49E21"/>
<path d="M58.9923 199.344C56.9869 196.74 57.158 194.312 59.5055 192.059C60.703 192.786 61.4015 193.941 62.2427 195.253C61.2305 196.522 60.204 197.805 58.9923 199.344Z" fill="#F49E21"/>
</g>
<defs>
<clipPath id="clip0_144_590">
<rect width="200" height="207.299" fill="white"/>
</clipPath>
</defs>
</svg>
