<svg width="47" height="40" viewBox="0 0 47 40" fill="none" xmlns="http://www.w3.org/2000/svg">
<g id="Capa_1">
<path id="Vector" d="M11.0788 17.2774C11.0788 14.4601 11.0711 11.6413 11.0803 8.82409C11.0911 5.64072 12.3602 3.09341 15.0493 1.39003C17.8201 -0.364551 20.7622 -0.459183 23.6101 1.11699C26.3948 2.65903 27.9106 5.12412 27.9661 8.37885C28.0062 10.6795 27.9923 12.9802 27.9784 15.2808C27.963 17.8173 26.1898 19.8806 23.7458 20.2405C21.2324 20.6112 18.8409 19.0878 18.144 16.6708C17.4501 14.26 18.6374 11.6057 20.9441 10.6252C21.6303 10.3336 22.429 10.2451 23.1845 10.2017C24.5985 10.1195 24.5939 10.1614 24.597 8.70929C24.6016 7.09279 24.0557 5.71984 22.8129 4.67578C21.1939 3.3168 19.3605 3.11202 17.4748 3.94199C15.6568 4.74404 14.5744 6.24575 14.5405 8.23768C14.4587 13.1477 14.5127 18.0608 14.5004 22.9724C14.5004 23.4905 14.6777 23.7093 15.2189 23.7093C20.1778 23.6984 25.1382 23.7388 30.097 23.6922C32.2542 23.6721 34.3312 21.6227 34.6272 19.4027C34.9464 17.0028 33.4955 14.5315 31.3028 13.9141C30.5504 13.7015 30.2975 13.3494 30.3653 12.6125C30.4116 12.1005 30.3869 11.5793 30.3653 11.0627C30.3376 10.4111 30.5966 10.1645 31.2458 10.318C34.3543 11.0518 36.5901 12.8514 37.6016 15.9184C39.1975 20.7571 36.5454 25.5864 31.6451 26.9097C30.9343 27.1021 30.1726 27.1766 29.4325 27.1797C23.6764 27.2014 17.9204 27.1936 12.1643 27.189C11.0757 27.189 11.0603 27.1595 11.0603 26.0425C11.0603 23.1213 11.0603 20.2001 11.0603 17.2789C11.0665 17.2789 11.0726 17.2789 11.0773 17.2789L11.0788 17.2774ZM24.6 14.7983C24.599 14.0082 24.2048 13.6085 23.4174 13.5991C23.1629 13.596 22.9024 13.5883 22.6557 13.6395C21.8461 13.8086 21.3126 14.5005 21.3435 15.3041C21.3743 16.1015 21.8939 16.7034 22.688 16.8616C23.8306 17.0881 24.6031 16.2551 24.6 14.7983Z" fill="#FCE8F3"/>
</g>
</svg>
