<svg width="117" height="20" viewBox="0 0 117 20" fill="none" xmlns="http://www.w3.org/2000/svg">
<g id="Group">
<path id="Vector" d="M0.702026 6.10822H3.60199V7.80717C3.91481 7.13776 4.33332 6.62935 4.85328 6.28193C5.37325 5.93451 5.94394 5.7608 6.56113 5.7608C7.00078 5.7608 7.45733 5.87519 7.93502 6.10822L6.88241 9.02314C6.48504 8.82401 6.15953 8.72656 5.90589 8.72656C5.38593 8.72656 4.94629 9.04856 4.58696 9.69679C4.22764 10.345 4.05009 11.6076 4.05009 13.493L4.06277 14.1497V19.6109H0.706254V6.10398L0.702026 6.10822Z" fill="#FCE8F3"/>
<path id="Vector_2" d="M18.5625 6.10822H21.9444V19.6151H18.5625V18.1873C17.903 18.8144 17.2394 19.2677 16.5757 19.5473C15.912 19.827 15.1933 19.9626 14.4155 19.9626C12.6738 19.9626 11.1689 19.2847 9.90068 17.9331C8.63247 16.5816 7.99414 14.8996 7.99414 12.8871C7.99414 10.8746 8.60711 9.09516 9.83727 7.76057C11.0674 6.43021 12.5597 5.7608 14.314 5.7608C15.1215 5.7608 15.8824 5.91332 16.5883 6.21837C17.2985 6.52342 17.9538 6.98523 18.5541 7.59533V6.10398L18.5625 6.10822ZM15.0073 8.88756C13.9632 8.88756 13.0923 9.25616 12.4033 9.99761C11.71 10.739 11.3676 11.6881 11.3676 12.8447C11.3676 14.0014 11.7184 14.9716 12.4244 15.7258C13.1304 16.4799 13.9928 16.857 15.0242 16.857C16.0557 16.857 16.9646 16.4884 17.6663 15.7469C18.3681 15.0055 18.7147 14.0353 18.7147 12.8363C18.7147 11.6372 18.3638 10.7094 17.6663 9.98065C16.9688 9.25192 16.0811 8.88756 15.0115 8.88756H15.0073Z" fill="#FCE8F3"/>
<path id="Vector_3" d="M22.9294 6.10815H26.3747L29.7777 14.0776L33.1765 6.10815H36.6049L30.8726 19.6151H28.6786L22.9337 6.10815H22.9294Z" fill="#FCE8F3"/>
<path id="Vector_4" d="M51.0878 13.8404H40.2278C40.3842 14.8021 40.8027 15.5647 41.4833 16.1325C42.1639 16.7002 43.0347 16.9841 44.0916 16.9841C45.3556 16.9841 46.442 16.5434 47.3509 15.6579L50.2001 16.9968C49.4899 18.0051 48.6402 18.7551 47.6468 19.238C46.6533 19.721 45.4781 19.9625 44.1169 19.9625C42.0033 19.9625 40.2827 19.2931 38.9511 17.9585C37.6195 16.6239 36.9558 14.9504 36.9558 12.9379C36.9558 10.9254 37.6195 9.16716 38.9427 7.80715C40.2658 6.44714 41.9272 5.76501 43.9267 5.76501C46.0488 5.76501 47.7736 6.44714 49.1052 7.80715C50.4326 9.16716 51.1005 10.9678 51.1005 13.2006L51.0878 13.8446V13.8404ZM47.706 11.1712C47.4819 10.417 47.0423 9.80692 46.3828 9.3324C45.7233 8.86212 44.9624 8.62486 44.0958 8.62486C43.1531 8.62486 42.3245 8.89178 41.6143 9.42138C41.1662 9.75185 40.7562 10.3365 40.3757 11.1712H47.706Z" fill="#FCE8F3"/>
<path id="Vector_5" d="M51.8276 1.35449H55.3912L59.9737 14.3276L64.6238 1.35449H68.1832L61.6181 19.6151H58.2743L51.8234 1.35449H51.8276Z" fill="#FCE8F3"/>
<path id="Vector_6" d="M70.9268 0.5495C71.5186 0.5495 72.0259 0.765572 72.4529 1.19349C72.8756 1.62564 73.087 2.14677 73.087 2.75687C73.087 3.36697 72.8756 3.87539 72.4571 4.30331C72.0386 4.73122 71.5355 4.94306 70.9522 4.94306C70.3688 4.94306 69.8404 4.72699 69.4134 4.2906C68.9864 3.85421 68.7793 3.32884 68.7793 2.70603C68.7793 2.08322 68.9907 1.60022 69.4092 1.18078C69.8277 0.757099 70.335 0.5495 70.9268 0.5495ZM69.2359 6.10818H72.6177V19.6151H69.2359V6.10818Z" fill="#FCE8F3"/>
<path id="Vector_7" d="M81.0259 5.7608C82.2984 5.7608 83.4905 6.07856 84.6107 6.71832C85.731 7.35384 86.6018 8.21814 87.2317 9.31124C87.8573 10.4043 88.1744 11.5822 88.1744 12.849C88.1744 14.1158 87.8573 15.3148 87.2275 16.4248C86.5976 17.5349 85.7352 18.3992 84.6446 19.0262C83.5539 19.6533 82.3533 19.9626 81.0386 19.9626C79.1067 19.9626 77.4581 19.272 76.0926 17.895C74.7272 16.518 74.0424 14.8445 74.0424 12.8744C74.0424 10.7645 74.816 9.00619 76.3589 7.59957C77.7117 6.37514 79.2674 5.7608 81.0259 5.7608ZM81.0809 8.95111C80.0325 8.95111 79.1575 9.31548 78.4557 10.0484C77.754 10.7814 77.4073 11.7177 77.4073 12.8617C77.4073 14.0056 77.754 14.9886 78.443 15.7173C79.1321 16.446 80.0072 16.8104 81.0682 16.8104C82.1293 16.8104 83.0086 16.4418 83.7103 15.7046C84.4121 14.9674 84.7629 14.0226 84.7629 12.8617C84.7629 11.7008 84.4163 10.7602 83.7272 10.0357C83.0382 9.31124 82.1546 8.95111 81.0767 8.95111H81.0809Z" fill="#FCE8F3"/>
<path id="Vector_8" d="M89.5736 0.896912H92.9555V19.6151H89.5736V0.896912Z" fill="#FCE8F3"/>
<path id="Vector_9" d="M108.538 13.8404H97.6775C97.8339 14.8021 98.2524 15.5647 98.933 16.1325C99.6136 16.7002 100.484 16.9841 101.541 16.9841C102.805 16.9841 103.892 16.5434 104.801 15.6579L107.65 16.9968C106.94 18.0051 106.09 18.7551 105.096 19.238C104.103 19.721 102.928 19.9625 101.567 19.9625C99.453 19.9625 97.7324 19.2931 96.4008 17.9585C95.0692 16.6239 94.4055 14.9504 94.4055 12.9379C94.4055 10.9254 95.0692 9.16716 96.3924 7.80715C97.7155 6.44714 99.3769 5.76501 101.376 5.76501C103.499 5.76501 105.223 6.44714 106.555 7.80715C107.882 9.16716 108.55 10.9678 108.55 13.2006L108.538 13.8446V13.8404ZM105.156 11.1712C104.932 10.417 104.492 9.80692 103.833 9.3324C103.173 8.86212 102.412 8.62486 101.546 8.62486C100.603 8.62486 99.7743 8.89178 99.0641 9.42138C98.616 9.75185 98.2059 10.3365 97.8254 11.1712H105.156Z" fill="#FCE8F3"/>
<path id="Vector_10" d="M110.693 1.12994H114.075V6.10819H116.083V9.02311H114.075V19.6109H110.693V9.02311H108.96V6.10819H110.693V1.12994Z" fill="#FCE8F3"/>
</g>
</svg>
