<svg width="44" height="31" viewBox="0 0 44 31" fill="none" xmlns="http://www.w3.org/2000/svg">
<path id="Vector" d="M15.9453 27.1719C15.4332 27.6342 15.0369 27.9436 14.6319 28.1698C12.6494 29.2767 10.2068 29.2767 8.22434 28.1698C7.49377 27.7618 6.79152 27.0826 5.387 25.7245C3.98249 24.3661 3.28022 23.6869 2.85845 22.9803C1.71385 21.063 1.71385 18.7007 2.85845 16.7834C3.28022 16.0769 3.98249 15.3978 5.387 14.0394L11.4281 8.19691C12.8326 6.83857 13.5349 6.15939 14.2654 5.75149C16.2479 4.64452 18.6905 4.64452 20.673 5.75147C21.4035 6.15939 22.1058 6.83857 23.5103 8.19691C24.9148 9.55525 25.6171 10.2344 26.0389 10.9409C27.1835 12.8583 27.1835 15.2205 26.0389 17.1378C25.8051 17.5295 25.4851 17.9129 25.0069 18.408M18.9932 12.592C18.515 13.0871 18.195 13.4705 17.9611 13.8622C16.8166 15.7795 16.8166 18.1417 17.9611 20.0591C18.383 20.7657 19.0852 21.4449 20.4898 22.803C21.8943 24.1614 22.5966 24.8406 23.327 25.2486C25.3095 26.3555 27.7521 26.3555 29.7346 25.2486C30.4653 24.8406 31.1675 24.1614 32.5721 22.803L38.6131 16.9606C40.0177 15.6022 40.7199 14.9231 41.1415 14.2166C42.2862 12.2993 42.2862 9.93702 41.1415 8.0197C40.7199 7.31317 40.0177 6.63399 38.6131 5.27565C37.2086 3.91731 36.5063 3.23815 35.7759 2.83023C33.7931 1.72326 31.3508 1.72326 29.3683 2.83023C28.9631 3.05638 28.5669 3.36587 28.0547 3.82824" stroke="#85296C" stroke-width="3" stroke-linecap="round"/>
</svg>
